G04 ================== begin FILE IDENTIFICATION RECORD ==================*
G04 Layout Name:  d:/Project/Circuit/ORCAD/KPRM/02v2/pcb/KPRM_02v2.brd*
G04 Film Name:    MASK_TOP*
G04 File Format:  Gerber RS274X*
G04 File Origin:  Cadence Allegro 16.6-S019*
G04 Origin Date:  Thu Dec 19 17:20:45 2013*
G04 *
G04 Layer:  VIA CLASS/SOLDERMASK_TOP*
G04 Layer:  PIN/SOLDERMASK_TOP*
G04 Layer:  PACKAGE GEOMETRY/SOLDERMASK_TOP*
G04 *
G04 Offset:    (0.000 0.000)*
G04 Mirror:    No*
G04 Mode:      Positive*
G04 Rotation:  0*
G04 FullContactRelief:  No*
G04 UndefLineWidth:     0.000*
G04 ================== end FILE IDENTIFICATION RECORD ====================*
%FSLAX34Y34*MOMM*%
%IR0*IPPOS*OFA0.00000B0.00000*MIA0B0*SFA1.00000B1.00000*%
%ADD23R,.8X2.2*%
%ADD11C,3.*%
%ADD24R,2.2X.8*%
%ADD10C,4.2*%
%ADD30C,2.7*%
%ADD25C,1.8*%
%ADD32C,2.8*%
%ADD17R,1.75X.8*%
%ADD13C,1.75*%
%ADD29R,2.25X2.25*%
%ADD21R,1.45X1.45*%
%ADD12R,1.75X1.75*%
%ADD27R,2.1X3.4*%
%ADD28R,2.1X1.15*%
%ADD20R,1.3X1.6*%
%ADD26R,1.45X2.*%
%ADD16R,1.6X1.3*%
%ADD14R,2.9X1.3*%
%ADD19O,2.2X1.95*%
%ADD18R,1.2X1.95*%
%ADD31R,2.7X2.7*%
%ADD15R,1.95X1.2*%
%ADD22R,1.45X1.27*%
%LPD*%
G75*
G54D10*
X-965400Y-2222500D03*
Y-1333500D03*
G54D20*
X-728400Y-2080260D03*
X-711400D03*
X-669000D03*
X-686000D03*
G54D11*
X-908050Y-2222500D03*
Y0D03*
X-88900Y-2222500D03*
Y0D03*
G54D12*
X-889200Y-2171700D03*
X-940000D03*
X-889200Y-1943100D03*
X-940000D03*
X-889200Y-1689100D03*
X-940000D03*
X-889200Y-1435100D03*
X-940000D03*
X-628650Y-1162050D03*
X-380900Y-2029460D03*
Y-1927860D03*
Y-1826260D03*
Y-1724660D03*
Y-1623060D03*
Y-1521460D03*
Y-1419860D03*
Y-1318260D03*
Y-956310D03*
Y-854710D03*
Y-753110D03*
Y-651510D03*
Y-549910D03*
Y-448310D03*
Y-346710D03*
Y-245110D03*
G54D21*
X-673050Y-1527810D03*
Y-1566910D03*
X-705050D03*
Y-1527810D03*
X-673050Y-1464310D03*
Y-1503410D03*
X-705050D03*
Y-1464310D03*
X-666700Y-557260D03*
X-698700D03*
X-666700Y-518160D03*
X-698700D03*
X-666700Y-454660D03*
Y-493760D03*
X-698700D03*
Y-454660D03*
G54D30*
X-133550Y-2029460D03*
Y-1978660D03*
Y-1927860D03*
Y-1826260D03*
Y-1877060D03*
Y-1775460D03*
Y-1673860D03*
Y-1724660D03*
Y-1623060D03*
Y-1521460D03*
Y-1572260D03*
Y-1470660D03*
Y-1369060D03*
Y-1419860D03*
Y-1318260D03*
Y-956310D03*
Y-905510D03*
Y-854710D03*
Y-753110D03*
Y-803910D03*
Y-702310D03*
Y-600710D03*
Y-651510D03*
Y-549910D03*
Y-448310D03*
Y-499110D03*
Y-397510D03*
Y-295910D03*
Y-346710D03*
Y-245110D03*
X-82750Y-2029460D03*
Y-1978660D03*
Y-1927860D03*
Y-1826260D03*
Y-1877060D03*
Y-1775460D03*
Y-1673860D03*
Y-1724660D03*
Y-1623060D03*
Y-1521460D03*
Y-1572260D03*
Y-1470660D03*
Y-1369060D03*
Y-1419860D03*
Y-1318260D03*
Y-956310D03*
Y-905510D03*
Y-854710D03*
Y-753110D03*
Y-803910D03*
Y-702310D03*
Y-600710D03*
Y-651510D03*
Y-549910D03*
Y-448310D03*
Y-499110D03*
Y-397510D03*
Y-295910D03*
Y-346710D03*
Y-245110D03*
G54D22*
X-673050Y-1541010D03*
Y-1553710D03*
X-705050D03*
Y-1541010D03*
X-673050Y-1477510D03*
Y-1490210D03*
X-705050D03*
Y-1477510D03*
X-666700Y-531360D03*
Y-544060D03*
X-698700D03*
Y-531360D03*
X-666700Y-467860D03*
Y-480560D03*
X-698700D03*
Y-467860D03*
G54D31*
X-133550Y-1267460D03*
Y-194310D03*
X-82750Y-1267460D03*
Y-194310D03*
G54D13*
X-889200Y-2120900D03*
Y-2146300D03*
X-940000Y-2120900D03*
Y-2146300D03*
X-889200Y-2044700D03*
Y-2070100D03*
Y-2095500D03*
X-940000Y-2044700D03*
Y-2070100D03*
Y-2095500D03*
X-889200Y-1968500D03*
Y-1993900D03*
Y-2019300D03*
X-940000Y-1968500D03*
Y-1993900D03*
Y-2019300D03*
X-889200Y-1892300D03*
Y-1917700D03*
X-940000Y-1892300D03*
Y-1917700D03*
X-889200Y-1816100D03*
Y-1841500D03*
Y-1866900D03*
X-940000Y-1816100D03*
Y-1841500D03*
Y-1866900D03*
X-889200Y-1739900D03*
Y-1765300D03*
Y-1790700D03*
X-940000Y-1739900D03*
Y-1765300D03*
Y-1790700D03*
X-889200Y-1663700D03*
Y-1714500D03*
X-940000Y-1663700D03*
Y-1714500D03*
X-889200Y-1587500D03*
Y-1612900D03*
Y-1638300D03*
X-940000Y-1587500D03*
Y-1612900D03*
Y-1638300D03*
X-889200Y-1511300D03*
Y-1536700D03*
Y-1562100D03*
X-940000Y-1511300D03*
Y-1536700D03*
Y-1562100D03*
X-889200Y-1460500D03*
Y-1485900D03*
X-940000Y-1460500D03*
Y-1485900D03*
X-889200Y-1384300D03*
Y-1409700D03*
X-940000Y-1384300D03*
Y-1409700D03*
X-380900Y-1978660D03*
Y-1877060D03*
Y-1775460D03*
Y-1673860D03*
Y-1572260D03*
Y-1470660D03*
Y-1369060D03*
Y-1267460D03*
Y-905510D03*
Y-803910D03*
Y-702310D03*
Y-600710D03*
Y-499110D03*
Y-397510D03*
Y-295910D03*
Y-194310D03*
X-330100Y-1978660D03*
X-304700D03*
X-279300D03*
Y-2029460D03*
X-304700D03*
X-330100D03*
X-279300Y-1927860D03*
X-304700D03*
X-330100D03*
Y-1877060D03*
X-304700D03*
X-279300D03*
Y-1826260D03*
X-304700D03*
X-330100D03*
Y-1775460D03*
X-304700D03*
X-279300D03*
X-330100Y-1673860D03*
X-304700D03*
X-279300D03*
Y-1724660D03*
X-304700D03*
X-330100D03*
X-279300Y-1623060D03*
X-304700D03*
X-330100D03*
Y-1572260D03*
X-304700D03*
X-279300D03*
Y-1521460D03*
X-304700D03*
X-330100D03*
Y-1470660D03*
X-304700D03*
X-279300D03*
X-330100Y-1369060D03*
X-304700D03*
X-279300D03*
Y-1419860D03*
X-304700D03*
X-330100D03*
X-279300Y-1318260D03*
X-304700D03*
X-330100D03*
Y-1267460D03*
X-304700D03*
X-279300D03*
X-330100Y-905510D03*
X-304700D03*
X-279300D03*
Y-956310D03*
X-304700D03*
X-330100D03*
X-279300Y-854710D03*
X-304700D03*
X-330100D03*
Y-803910D03*
X-304700D03*
X-279300D03*
Y-753110D03*
X-304700D03*
X-330100D03*
Y-702310D03*
X-304700D03*
X-279300D03*
X-330100Y-600710D03*
X-304700D03*
X-279300D03*
Y-651510D03*
X-304700D03*
X-330100D03*
X-279300Y-549910D03*
X-304700D03*
X-330100D03*
Y-499110D03*
X-304700D03*
X-279300D03*
Y-448310D03*
X-304700D03*
X-330100D03*
Y-397510D03*
X-304700D03*
X-279300D03*
X-330100Y-295910D03*
X-304700D03*
X-279300D03*
Y-346710D03*
X-304700D03*
X-330100D03*
X-279300Y-245110D03*
X-304700D03*
X-330100D03*
Y-194310D03*
X-304700D03*
X-279300D03*
G54D14*
X-889200Y-1315460D03*
Y-1346460D03*
X-578050Y-2213610D03*
Y-2182610D03*
G54D32*
X0Y-2222500D03*
Y0D03*
G54D23*
X-584400Y-1811310D03*
X-597100D03*
X-609800D03*
X-622500D03*
X-635200D03*
X-647900D03*
Y-1718310D03*
X-635200D03*
X-622500D03*
X-609800D03*
X-597100D03*
X-584400D03*
X-590750Y-801660D03*
X-603450D03*
X-616150D03*
X-628850D03*
X-641550D03*
Y-708660D03*
X-628850D03*
X-616150D03*
X-603450D03*
X-590750D03*
X-546300Y-1811310D03*
X-559000D03*
X-571700D03*
Y-1718310D03*
X-559000D03*
X-546300D03*
X-539950Y-801660D03*
X-552650D03*
X-565350D03*
X-578050D03*
Y-708660D03*
X-565350D03*
X-552650D03*
X-539950D03*
G54D15*
X-817750Y-2131060D03*
Y-2161060D03*
X-792350Y-2131060D03*
Y-2161060D03*
X-584400Y-1686560D03*
X-609800D03*
X-635200D03*
X-584400Y-1656560D03*
X-597100Y-1605760D03*
Y-1635760D03*
X-609800Y-1656560D03*
X-622500Y-1605760D03*
Y-1635760D03*
X-635200Y-1656560D03*
X-628850Y-676910D03*
X-578050D03*
X-603450D03*
X-628850Y-646910D03*
X-578050D03*
X-590750Y-626110D03*
X-603450Y-646910D03*
X-616150Y-626110D03*
X-590750Y-596110D03*
X-616150D03*
X-559000Y-1686560D03*
X-546300Y-1605760D03*
Y-1635760D03*
X-559000Y-1656560D03*
X-571700Y-1605760D03*
Y-1635760D03*
X-552650Y-676910D03*
X-539950Y-626110D03*
X-552650Y-646910D03*
X-565350Y-626110D03*
X-539950Y-596110D03*
X-565350D03*
G54D24*
X-641550Y-1572260D03*
Y-1559560D03*
Y-1546860D03*
Y-1534160D03*
Y-1521460D03*
Y-1508760D03*
Y-1496060D03*
Y-1483360D03*
Y-1470660D03*
X-635200Y-562610D03*
Y-549910D03*
Y-537210D03*
Y-524510D03*
Y-511810D03*
Y-499110D03*
Y-486410D03*
Y-473710D03*
Y-461010D03*
X-548550Y-1521460D03*
Y-1534160D03*
Y-1546860D03*
Y-1559560D03*
Y-1572260D03*
Y-1470660D03*
Y-1483360D03*
Y-1496060D03*
Y-1508760D03*
X-542200Y-537210D03*
Y-549910D03*
Y-562610D03*
Y-461010D03*
Y-473710D03*
Y-486410D03*
Y-499110D03*
Y-511810D03*
Y-524510D03*
G54D16*
X-766950Y-2148060D03*
Y-2131060D03*
X-647900Y-2122660D03*
Y-2105660D03*
X-539950Y-2213610D03*
Y-2196610D03*
G54D25*
X-603250Y-1162050D03*
G54D26*
X-554950Y-2099310D03*
X-524950D03*
G54D17*
X-730450Y-2143760D03*
Y-2131060D03*
Y-2118360D03*
Y-2105660D03*
X-676450Y-2131060D03*
Y-2143760D03*
Y-2105660D03*
Y-2118360D03*
G54D18*
X-804900Y-2099310D03*
X-774900D03*
X-803300Y-2010410D03*
X-773300D03*
X-675050Y-1896110D03*
X-705050D03*
X-654250Y-1908810D03*
X-675050Y-1921510D03*
X-705050D03*
X-654250Y-1934210D03*
X-675050Y-1845310D03*
X-705050D03*
X-654250Y-1858010D03*
X-675050Y-1870710D03*
X-705050D03*
X-654250Y-1883410D03*
X-668700Y-911860D03*
X-698700D03*
X-668700Y-835660D03*
X-698700D03*
X-668700Y-861060D03*
X-698700D03*
X-668700Y-886460D03*
X-698700D03*
X-624250Y-1908810D03*
Y-1934210D03*
Y-1858010D03*
Y-1883410D03*
X-617900Y-924560D03*
X-647900D03*
X-617900Y-848360D03*
X-647900D03*
X-617900Y-873760D03*
X-647900D03*
X-617900Y-899160D03*
X-647900D03*
X-529550Y-2131060D03*
X-529000Y-2156460D03*
X-559000D03*
X-499550Y-2131060D03*
G54D27*
X-428150Y-2192160D03*
G54D19*
X-740600Y-2035810D03*
Y-2010410D03*
Y-1985010D03*
X-653600D03*
Y-2010410D03*
Y-2035810D03*
G54D28*
X-489150Y-2215160D03*
Y-2192160D03*
Y-2169160D03*
G54D29*
X-470100Y-2072460D03*
Y-2029460D03*
X-197050Y-1978660D03*
Y-2021660D03*
Y-1920060D03*
Y-1818460D03*
Y-1877060D03*
Y-1775460D03*
Y-1673860D03*
Y-1716860D03*
Y-1615260D03*
Y-1513660D03*
Y-1572260D03*
Y-1470660D03*
Y-1369060D03*
Y-1412060D03*
Y-1310460D03*
Y-1267460D03*
Y-905510D03*
Y-948510D03*
Y-846910D03*
Y-803910D03*
Y-702310D03*
Y-745310D03*
Y-600710D03*
Y-643710D03*
Y-542110D03*
Y-499110D03*
Y-397510D03*
Y-440510D03*
Y-295910D03*
Y-338910D03*
Y-237310D03*
Y-194310D03*
M02*
