G04 ================== begin FILE IDENTIFICATION RECORD ==================*
G04 Layout Name:  d:/Project/Circuit/ORCAD/KPRM/02v2/pcb/KPRM_02v2.brd*
G04 Film Name:    SILK_TOP*
G04 File Format:  Gerber RS274X*
G04 File Origin:  Cadence Allegro 16.6-S019*
G04 Origin Date:  Thu Dec 19 17:20:45 2013*
G04 *
G04 Layer:  MANUFACTURING/AUTOSILK_TOP*
G04 *
G04 Offset:    (0.000 0.000)*
G04 Mirror:    No*
G04 Mode:      Positive*
G04 Rotation:  0*
G04 FullContactRelief:  No*
G04 UndefLineWidth:     0.200*
G04 ================== end FILE IDENTIFICATION RECORD ====================*
%FSLAX34Y34*MOMM*%
%IR0*IPPOS*OFA0.00000B0.00000*MIA0B0*SFA1.00000B1.00000*%
%ADD10C,.2*%
%ADD11C,.5*%
%ADD12C,.15*%
%ADD13C,.25*%
G75*
%LPD*%
G75*
G54D10*
G01X-985400Y-1303500D02*
X-935400D01*
Y-1343500D01*
X-955400Y-1363500D01*
Y-2193500D01*
X-935400Y-2213500D01*
Y-2253500D01*
X-985400D01*
G01X-901700Y-1337460D02*
Y-1324460D01*
G01X-825750Y-2152560D02*
Y-2139560D01*
G01X-876700Y-1337460D02*
Y-1324460D01*
G01X-809750Y-2152560D02*
Y-2139560D01*
G01X-784350Y-2152560D02*
Y-2139560D01*
G01X-800350Y-2152560D02*
Y-2139560D01*
G01X-783400Y-2091310D02*
X-796400D01*
G01X-783400Y-2107310D02*
X-796400D01*
G01X-781800Y-2002410D02*
X-794800D01*
G01X-781800Y-2018410D02*
X-794800D01*
G01X-719450Y-2149210D02*
Y-2100210D01*
X-687450D01*
Y-2149210D01*
X-719450D01*
G01X-727350Y-2052410D02*
Y-1968410D01*
X-666850D01*
Y-2052410D01*
X-727350D01*
G01X-696550Y-1904110D02*
X-683550D01*
G01X-696550Y-1929510D02*
X-683550D01*
G01X-696550Y-1913510D02*
X-683550D01*
G01X-696550Y-1853310D02*
X-683550D01*
G01X-696550Y-1837310D02*
X-683550D01*
G01X-696550Y-1878710D02*
X-683550D01*
G01X-696550Y-1862710D02*
X-683550D01*
G01X-696550Y-1888110D02*
X-683550D01*
G01X-696050Y-1573860D02*
Y-1520860D01*
X-682050D01*
Y-1573860D01*
X-696050D01*
G01Y-1510360D02*
Y-1457360D01*
X-682050D01*
Y-1510360D01*
X-696050D01*
G01X-690200Y-919860D02*
X-677200D01*
G01X-690200Y-843660D02*
X-677200D01*
G01X-690200Y-869060D02*
X-677200D01*
G01X-690200Y-853060D02*
X-677200D01*
G01X-690200Y-894460D02*
X-677200D01*
G01X-690200Y-878460D02*
X-677200D01*
G01X-690200Y-903860D02*
X-677200D01*
G01X-690200Y-827660D02*
X-677200D01*
G01X-689700Y-564210D02*
Y-511210D01*
X-675700D01*
Y-564210D01*
X-689700D01*
G01Y-500710D02*
Y-447710D01*
X-675700D01*
Y-500710D01*
X-689700D01*
G01X-590550Y-2204610D02*
Y-2191610D01*
G01X-645750Y-1916810D02*
X-632750D01*
G01X-645750Y-1900810D02*
X-632750D01*
G01X-645750Y-1942210D02*
X-632750D01*
G01X-645750Y-1926210D02*
X-632750D01*
G01X-645750Y-1866010D02*
X-632750D01*
G01X-645750Y-1850010D02*
X-632750D01*
G01X-645750Y-1891410D02*
X-632750D01*
G01X-645750Y-1875410D02*
X-632750D01*
G01X-655100Y-1731560D02*
X-539100D01*
Y-1798060D01*
X-655100D01*
Y-1731560D01*
G01X-592400Y-1678060D02*
Y-1665060D01*
G01X-601800Y-1678060D02*
Y-1665060D01*
G01X-617800Y-1678060D02*
Y-1665060D01*
G01X-627200Y-1678060D02*
Y-1665060D01*
G01X-643200Y-1678060D02*
Y-1665060D01*
G01X-589100Y-1627260D02*
Y-1614260D01*
G01X-605100Y-1627260D02*
Y-1614260D01*
G01X-614500Y-1627260D02*
Y-1614260D01*
G01X-630500Y-1627260D02*
Y-1614260D01*
G01X-628300Y-1579460D02*
Y-1463460D01*
X-561800D01*
Y-1579460D01*
X-628300D01*
G01X-639400Y-932560D02*
X-626400D01*
G01X-639400Y-916560D02*
X-626400D01*
G01X-639400Y-856360D02*
X-626400D01*
G01X-639400Y-840360D02*
X-626400D01*
G01X-639400Y-881760D02*
X-626400D01*
G01X-639400Y-865760D02*
X-626400D01*
G01X-639400Y-907160D02*
X-626400D01*
G01X-639400Y-891160D02*
X-626400D01*
G01X-648750Y-721910D02*
X-532750D01*
Y-788410D01*
X-648750D01*
Y-721910D01*
G01X-620850Y-668410D02*
Y-655410D01*
G01X-636850Y-668410D02*
Y-655410D01*
G01X-586050Y-668410D02*
Y-655410D01*
G01X-582750Y-617610D02*
Y-604610D01*
G01X-598750Y-617610D02*
Y-604610D01*
G01X-595450Y-668410D02*
Y-655410D01*
G01X-611450Y-668410D02*
Y-655410D01*
G01X-608150Y-617610D02*
Y-604610D01*
G01X-624150Y-617610D02*
Y-604610D01*
G01X-621950Y-569810D02*
Y-453810D01*
X-555450D01*
Y-569810D01*
X-621950D01*
G01X-565550Y-2204610D02*
Y-2191610D01*
G01X-508050Y-2139060D02*
X-521050D01*
G01X-550500Y-2164460D02*
X-537500D01*
G01X-550500Y-2148460D02*
X-537500D01*
G01X-534950Y-2091310D02*
X-544950D01*
G01X-534950Y-2107310D02*
X-544950D01*
G01X-508050Y-2123060D02*
X-521050D01*
G01X-551000Y-1678060D02*
Y-1665060D01*
G01X-567000Y-1678060D02*
Y-1665060D01*
G01X-576400Y-1678060D02*
Y-1665060D01*
G01X-538300Y-1627260D02*
Y-1614260D01*
G01X-554300Y-1627260D02*
Y-1614260D01*
G01X-563700Y-1627260D02*
Y-1614260D01*
G01X-579700Y-1627260D02*
Y-1614260D01*
G01X-531950Y-617610D02*
Y-604610D01*
G01X-547950Y-617610D02*
Y-604610D01*
G01X-544650Y-668410D02*
Y-655410D01*
G01X-560650Y-668410D02*
Y-655410D01*
G01X-557350Y-617610D02*
Y-604610D01*
G01X-573350Y-617610D02*
Y-604610D01*
G01X-570050Y-668410D02*
Y-655410D01*
G01X-476400Y-2224660D02*
Y-2159660D01*
X-440900D01*
Y-2224660D01*
X-476400D01*
G01X-456100Y-2024960D02*
X-452100D01*
Y-2076960D01*
X-456100D01*
G01X-484100Y-2024960D02*
X-488100D01*
Y-2076960D01*
X-484100D01*
G01X-393600Y-2042160D02*
Y-1965960D01*
X-241200D01*
Y-2042160D01*
X-393600D01*
G01X-380900Y-2010410D02*
Y-1997710D01*
G01X-393600Y-1940560D02*
Y-1864360D01*
X-241200D01*
Y-1940560D01*
X-393600D01*
G01X-380900Y-1908810D02*
Y-1896110D01*
G01X-393600Y-1838960D02*
Y-1762760D01*
X-241200D01*
Y-1838960D01*
X-393600D01*
G01X-380900Y-1807210D02*
Y-1794510D01*
G01X-393600Y-1737360D02*
Y-1661160D01*
X-241200D01*
Y-1737360D01*
X-393600D01*
G01X-380900Y-1705610D02*
Y-1692910D01*
G01X-393600Y-1635760D02*
Y-1559560D01*
X-241200D01*
Y-1635760D01*
X-393600D01*
G01X-380900Y-1604010D02*
Y-1591310D01*
G01X-393600Y-1534160D02*
Y-1457960D01*
X-241200D01*
Y-1534160D01*
X-393600D01*
G01X-380900Y-1502410D02*
Y-1489710D01*
G01X-393600Y-1432560D02*
Y-1356360D01*
X-241200D01*
Y-1432560D01*
X-393600D01*
G01X-380900Y-1400810D02*
Y-1388110D01*
G01X-393600Y-1330960D02*
Y-1254760D01*
X-241200D01*
Y-1330960D01*
X-393600D01*
G01X-380900Y-1299210D02*
Y-1286510D01*
G01X-393600Y-969010D02*
Y-892810D01*
X-241200D01*
Y-969010D01*
X-393600D01*
G01X-380900Y-937260D02*
Y-924560D01*
G01X-393600Y-867410D02*
Y-791210D01*
X-241200D01*
Y-867410D01*
X-393600D01*
G01X-380900Y-835660D02*
Y-822960D01*
G01X-393600Y-765810D02*
Y-689610D01*
X-241200D01*
Y-765810D01*
X-393600D01*
G01X-380900Y-734060D02*
Y-721360D01*
G01X-393600Y-664210D02*
Y-588010D01*
X-241200D01*
Y-664210D01*
X-393600D01*
G01X-380900Y-632460D02*
Y-619760D01*
G01X-393600Y-562610D02*
Y-486410D01*
X-241200D01*
Y-562610D01*
X-393600D01*
G01X-380900Y-530860D02*
Y-518160D01*
G01X-393600Y-461010D02*
Y-384810D01*
X-241200D01*
Y-461010D01*
X-393600D01*
G01X-380900Y-429260D02*
Y-416560D01*
G01X-393600Y-359410D02*
Y-283210D01*
X-241200D01*
Y-359410D01*
X-393600D01*
G01X-380900Y-327660D02*
Y-314960D01*
G01X-393600Y-257810D02*
Y-181610D01*
X-241200D01*
Y-257810D01*
X-393600D01*
G01X-380900Y-226060D02*
Y-213360D01*
G01X-211050Y-2026160D02*
X-215050D01*
Y-1974160D01*
X-211050D01*
G01Y-1924560D02*
X-215050D01*
Y-1872560D01*
X-211050D01*
G01Y-1822960D02*
X-215050D01*
Y-1770960D01*
X-211050D01*
G01Y-1721360D02*
X-215050D01*
Y-1669360D01*
X-211050D01*
G01Y-1619760D02*
X-215050D01*
Y-1567760D01*
X-211050D01*
G01Y-1518160D02*
X-215050D01*
Y-1466160D01*
X-211050D01*
G01Y-1416560D02*
X-215050D01*
Y-1364560D01*
X-211050D01*
G01Y-1314960D02*
X-215050D01*
Y-1262960D01*
X-211050D01*
G01Y-953010D02*
X-215050D01*
Y-901010D01*
X-211050D01*
G01Y-851410D02*
X-215050D01*
Y-799410D01*
X-211050D01*
G01Y-749810D02*
X-215050D01*
Y-697810D01*
X-211050D01*
G01Y-648210D02*
X-215050D01*
Y-596210D01*
X-211050D01*
G01Y-546610D02*
X-215050D01*
Y-494610D01*
X-211050D01*
G01Y-445010D02*
X-215050D01*
Y-393010D01*
X-211050D01*
G01Y-343410D02*
X-215050D01*
Y-291410D01*
X-211050D01*
G01Y-241810D02*
X-215050D01*
Y-189810D01*
X-211050D01*
G01X-152600Y-2073910D02*
Y-1223010D01*
G01Y-2073910D02*
X18850D01*
Y-1223010D01*
X-152600D01*
G01X-183050Y-2026160D02*
X-179050D01*
Y-1974160D01*
X-183050D01*
G01Y-1924560D02*
X-179050D01*
Y-1872560D01*
X-183050D01*
G01Y-1822960D02*
X-179050D01*
Y-1770960D01*
X-183050D01*
G01Y-1721360D02*
X-179050D01*
Y-1669360D01*
X-183050D01*
G01Y-1619760D02*
X-179050D01*
Y-1567760D01*
X-183050D01*
G01Y-1518160D02*
X-179050D01*
Y-1466160D01*
X-183050D01*
G01Y-1416560D02*
X-179050D01*
Y-1364560D01*
X-183050D01*
G01Y-1314960D02*
X-179050D01*
Y-1262960D01*
X-183050D01*
G01X-152600Y-1000760D02*
Y-149860D01*
G01Y-1000760D02*
X18850D01*
Y-149860D01*
X-152600D01*
G01X-183050Y-953010D02*
X-179050D01*
Y-901010D01*
X-183050D01*
G01Y-851410D02*
X-179050D01*
Y-799410D01*
X-183050D01*
G01Y-749810D02*
X-179050D01*
Y-697810D01*
X-183050D01*
G01Y-648210D02*
X-179050D01*
Y-596210D01*
X-183050D01*
G01Y-546610D02*
X-179050D01*
Y-494610D01*
X-183050D01*
G01Y-445010D02*
X-179050D01*
Y-393010D01*
X-183050D01*
G01Y-343410D02*
X-179050D01*
Y-291410D01*
X-183050D01*
G01Y-241810D02*
X-179050D01*
Y-189810D01*
X-183050D01*
G01X-108150Y-1223010D02*
Y-2073910D01*
G01D02*
Y-1223010D01*
G01Y-2073910D02*
X18850D01*
Y-1223010D01*
X-108150D01*
G01D02*
Y-2073910D01*
G01Y-149860D02*
Y-1000760D01*
G01D02*
Y-149860D01*
G01Y-1000760D02*
X18850D01*
Y-149860D01*
X-108150D01*
G01D02*
Y-1000760D01*
G54D11*
G01X-706950Y-2110210D02*
G03I-2500J0D01*
G01X-714850Y-1978410D02*
G03I-2500J0D01*
G01X-615800Y-1473460D02*
G03I-2500J0D01*
G01X-609450Y-463810D02*
G03I-2500J0D01*
G01X-546600Y-1741560D02*
G03X-549100Y-1739060I-2500J0D01*
G01D02*
G03X-551600Y-1741560I0J-2500D01*
G01D02*
G03X-549100Y-1744060I2500J0D01*
G01D02*
G03X-546600Y-1741560I0J2500D01*
G01X-540250Y-731910D02*
G03I-2500J0D01*
G01X-463900Y-2169660D02*
G03I-2500J0D01*
G54D12*
G01X-975250Y-1299210D02*
X-968500Y-1286510D01*
G01X-975250D02*
X-968500Y-1299210D01*
G01X-958930D02*
Y-1286510D01*
X-960860Y-1289050D01*
G01Y-1299210D02*
X-957000D01*
G01X-936830Y-2196610D02*
X-944700Y-2194180D01*
X-936830Y-2191750D01*
G01X-939580Y-2192620D02*
Y-2195740D01*
G01X-936830Y-2186310D02*
X-944700D01*
X-943130Y-2187480D01*
G01X-936830D02*
Y-2185140D01*
G01X-893240Y-2192040D02*
X-893640Y-2192620D01*
X-893900Y-2193300D01*
Y-2194080D01*
X-893510Y-2194960D01*
X-892850Y-2195640D01*
X-892060Y-2196130D01*
X-890750Y-2196520D01*
X-889570Y-2196610D01*
X-888390Y-2196420D01*
X-887600Y-2196130D01*
X-886820Y-2195540D01*
X-886290Y-2194860D01*
X-886030Y-2194180D01*
Y-2193500D01*
X-886290Y-2192820D01*
X-886690Y-2192230D01*
X-887210Y-2191750D01*
G01X-886030Y-2186310D02*
X-893900D01*
X-892330Y-2187480D01*
G01X-886030D02*
Y-2185140D01*
G01X-892140Y-1293920D02*
X-893100Y-1293280D01*
X-894230Y-1292860D01*
X-895510D01*
X-896960Y-1293500D01*
X-898090Y-1294550D01*
X-898890Y-1295820D01*
X-899540Y-1297940D01*
X-899700Y-1299850D01*
X-899370Y-1301750D01*
X-898890Y-1303020D01*
X-897930Y-1304290D01*
X-896800Y-1305140D01*
X-895680Y-1305560D01*
X-894550D01*
X-893420Y-1305140D01*
X-892460Y-1304500D01*
X-891650Y-1303660D01*
G01X-882730Y-1305560D02*
Y-1292860D01*
X-884660Y-1295400D01*
G01Y-1305560D02*
X-880800D01*
G01X-848180Y-2122000D02*
Y-2109300D01*
X-844160D01*
X-842870Y-2109940D01*
X-842070Y-2110780D01*
X-841750Y-2112480D01*
X-842070Y-2114170D01*
X-843030Y-2115230D01*
X-844160Y-2115860D01*
X-848180D01*
G01X-844160D02*
X-841750Y-2122000D01*
G01X-835070Y-2111420D02*
X-834110Y-2110150D01*
X-832980Y-2109510D01*
X-831690Y-2109300D01*
X-830080Y-2109720D01*
X-828960Y-2110780D01*
X-828640Y-2112050D01*
X-828800Y-2113320D01*
X-829440Y-2114380D01*
X-832660Y-2116500D01*
X-834110Y-2117980D01*
X-835070Y-2120100D01*
X-835390Y-2122000D01*
X-828640D01*
G01X-822600Y-2119460D02*
X-821640Y-2120940D01*
X-820350Y-2121790D01*
X-818900Y-2122000D01*
X-817620Y-2121790D01*
X-816330Y-2120730D01*
X-815530Y-2119460D01*
X-815370Y-2118190D01*
X-815690Y-2116710D01*
X-816810Y-2115650D01*
X-817940Y-2115230D01*
X-819390D01*
G01X-817940D02*
X-816970Y-2114590D01*
X-816170Y-2113530D01*
X-815850Y-2112260D01*
X-816170Y-2110990D01*
X-816970Y-2109940D01*
X-818420Y-2109300D01*
X-819870Y-2109510D01*
X-821320Y-2110360D01*
G01X-816180Y-1998000D02*
Y-1985300D01*
X-812160D01*
X-810870Y-1985940D01*
X-810070Y-1986780D01*
X-809750Y-1988480D01*
X-810070Y-1990170D01*
X-811030Y-1991230D01*
X-812160Y-1991860D01*
X-816180D01*
G01X-812160D02*
X-809750Y-1998000D01*
G01X-800020D02*
Y-1985300D01*
X-801950Y-1987840D01*
G01Y-1998000D02*
X-798090D01*
G01X-787070D02*
X-785940Y-1997790D01*
X-784650Y-1997150D01*
X-783850Y-1996100D01*
X-783530Y-1994610D01*
X-783850Y-1993130D01*
X-784810Y-1991860D01*
X-786260Y-1991230D01*
X-787870D01*
X-788830Y-1990800D01*
X-789640Y-1989750D01*
X-789960Y-1988260D01*
X-789480Y-1986780D01*
X-788350Y-1985720D01*
X-787070Y-1985300D01*
X-785780Y-1985720D01*
X-784650Y-1986780D01*
X-784170Y-1988260D01*
X-784490Y-1989750D01*
X-785300Y-1990800D01*
X-786260Y-1991230D01*
X-787870D01*
X-789320Y-1991860D01*
X-790280Y-1993130D01*
X-790600Y-1994610D01*
X-790280Y-1996100D01*
X-789480Y-1997150D01*
X-788190Y-1997790D01*
X-787070Y-1998000D01*
G01X-770950Y-2139560D02*
X-762950D01*
G01X-804380Y-2181860D02*
Y-2169160D01*
X-800360D01*
X-799070Y-2169800D01*
X-798270Y-2170640D01*
X-797950Y-2172340D01*
X-798270Y-2174030D01*
X-799230Y-2175090D01*
X-800360Y-2175720D01*
X-804380D01*
G01X-800360D02*
X-797950Y-2181860D01*
G01X-791270Y-2171280D02*
X-790310Y-2170010D01*
X-789180Y-2169370D01*
X-787890Y-2169160D01*
X-786280Y-2169580D01*
X-785160Y-2170640D01*
X-784840Y-2171910D01*
X-785000Y-2173180D01*
X-785640Y-2174240D01*
X-788860Y-2176360D01*
X-790310Y-2177840D01*
X-791270Y-2179960D01*
X-791590Y-2181860D01*
X-784840D01*
G01X-775270D02*
Y-2169160D01*
X-777200Y-2171700D01*
G01Y-2181860D02*
X-773340D01*
G01X-758690Y-2111050D02*
X-759650Y-2110410D01*
X-760780Y-2109990D01*
X-762060D01*
X-763510Y-2110630D01*
X-764640Y-2111680D01*
X-765440Y-2112950D01*
X-766090Y-2115070D01*
X-766250Y-2116980D01*
X-765920Y-2118880D01*
X-765440Y-2120150D01*
X-764480Y-2121420D01*
X-763350Y-2122270D01*
X-762230Y-2122690D01*
X-761100D01*
X-759970Y-2122270D01*
X-759010Y-2121630D01*
X-758200Y-2120790D01*
G01X-747340Y-2122690D02*
Y-2109990D01*
X-753300Y-2119090D01*
X-745250D01*
G01X-744440Y-2057400D02*
X-745400Y-2056760D01*
X-746530Y-2056340D01*
X-747810D01*
X-749260Y-2056980D01*
X-750390Y-2058030D01*
X-751190Y-2059300D01*
X-751840Y-2061420D01*
X-752000Y-2063330D01*
X-751670Y-2065230D01*
X-751190Y-2066500D01*
X-750230Y-2067770D01*
X-749100Y-2068620D01*
X-747980Y-2069040D01*
X-746850D01*
X-745720Y-2068620D01*
X-744760Y-2067980D01*
X-743950Y-2067140D01*
G01X-738560D02*
X-737600Y-2068190D01*
X-736470Y-2068830D01*
X-735030Y-2069040D01*
X-733580Y-2068620D01*
X-732450Y-2067770D01*
X-731650Y-2066290D01*
X-731490Y-2064600D01*
X-731810Y-2062900D01*
X-732610Y-2061840D01*
X-733740Y-2061000D01*
X-734860Y-2060790D01*
X-735990Y-2061000D01*
X-737440Y-2061840D01*
X-736960Y-2056340D01*
X-732610D01*
G01X-808320Y-2085440D02*
Y-2072740D01*
X-804300D01*
X-803010Y-2073380D01*
X-802210Y-2074220D01*
X-801890Y-2075920D01*
X-802210Y-2077610D01*
X-803170Y-2078670D01*
X-804300Y-2079300D01*
X-808320D01*
G01X-804300D02*
X-801890Y-2085440D01*
G01X-795210Y-2074860D02*
X-794250Y-2073590D01*
X-793120Y-2072950D01*
X-791830Y-2072740D01*
X-790220Y-2073160D01*
X-789100Y-2074220D01*
X-788780Y-2075490D01*
X-788940Y-2076760D01*
X-789580Y-2077820D01*
X-792800Y-2079940D01*
X-794250Y-2081420D01*
X-795210Y-2083540D01*
X-795530Y-2085440D01*
X-788780D01*
G01X-782260Y-2074860D02*
X-781300Y-2073590D01*
X-780170Y-2072950D01*
X-778880Y-2072740D01*
X-777270Y-2073160D01*
X-776150Y-2074220D01*
X-775830Y-2075490D01*
X-775990Y-2076760D01*
X-776630Y-2077820D01*
X-779850Y-2079940D01*
X-781300Y-2081420D01*
X-782260Y-2083540D01*
X-782580Y-2085440D01*
X-775830D01*
G01X-750380Y-1900090D02*
Y-1887390D01*
X-746360D01*
X-745070Y-1888030D01*
X-744270Y-1888870D01*
X-743950Y-1890570D01*
X-744270Y-1892260D01*
X-745230Y-1893320D01*
X-746360Y-1893950D01*
X-750380D01*
G01X-746360D02*
X-743950Y-1900090D01*
G01X-734220D02*
Y-1887390D01*
X-736150Y-1889930D01*
G01Y-1900090D02*
X-732290D01*
G01X-724800Y-1897550D02*
X-723840Y-1899030D01*
X-722550Y-1899880D01*
X-721100Y-1900090D01*
X-719820Y-1899880D01*
X-718530Y-1898820D01*
X-717730Y-1897550D01*
X-717570Y-1896280D01*
X-717890Y-1894800D01*
X-719010Y-1893740D01*
X-720140Y-1893320D01*
X-721590D01*
G01X-720140D02*
X-719170Y-1892680D01*
X-718370Y-1891620D01*
X-718050Y-1890350D01*
X-718370Y-1889080D01*
X-719170Y-1888030D01*
X-720620Y-1887390D01*
X-722070Y-1887600D01*
X-723520Y-1888450D01*
G01X-748380Y-1926090D02*
Y-1913390D01*
X-744360D01*
X-743070Y-1914030D01*
X-742270Y-1914870D01*
X-741950Y-1916570D01*
X-742270Y-1918260D01*
X-743230Y-1919320D01*
X-744360Y-1919950D01*
X-748380D01*
G01X-744360D02*
X-741950Y-1926090D01*
G01X-732220D02*
Y-1913390D01*
X-734150Y-1915930D01*
G01Y-1926090D02*
X-730290D01*
G01X-719270D02*
Y-1913390D01*
X-721200Y-1915930D01*
G01Y-1926090D02*
X-717340D01*
G01X-750380Y-1850090D02*
Y-1837390D01*
X-746360D01*
X-745070Y-1838030D01*
X-744270Y-1838870D01*
X-743950Y-1840570D01*
X-744270Y-1842260D01*
X-745230Y-1843320D01*
X-746360Y-1843950D01*
X-750380D01*
G01X-746360D02*
X-743950Y-1850090D01*
G01X-734220D02*
Y-1837390D01*
X-736150Y-1839930D01*
G01Y-1850090D02*
X-732290D01*
G01X-721590D02*
X-721270Y-1847340D01*
X-720780Y-1845010D01*
X-720140Y-1842890D01*
X-719330Y-1840570D01*
X-718050Y-1837390D01*
X-724480D01*
G01X-750380Y-1874090D02*
Y-1861390D01*
X-746360D01*
X-745070Y-1862030D01*
X-744270Y-1862870D01*
X-743950Y-1864570D01*
X-744270Y-1866260D01*
X-745230Y-1867320D01*
X-746360Y-1867950D01*
X-750380D01*
G01X-746360D02*
X-743950Y-1874090D01*
G01X-734220D02*
Y-1861390D01*
X-736150Y-1863930D01*
G01Y-1874090D02*
X-732290D01*
G01X-724800Y-1872190D02*
X-723840Y-1873240D01*
X-722710Y-1873880D01*
X-721270Y-1874090D01*
X-719820Y-1873670D01*
X-718690Y-1872820D01*
X-717890Y-1871340D01*
X-717730Y-1869650D01*
X-718050Y-1867950D01*
X-718850Y-1866890D01*
X-719980Y-1866050D01*
X-721100Y-1865840D01*
X-722230Y-1866050D01*
X-723680Y-1866890D01*
X-723200Y-1861390D01*
X-718850D01*
G01X-733790Y-918210D02*
Y-905510D01*
X-729770D01*
X-728480Y-906150D01*
X-727680Y-906990D01*
X-727360Y-908690D01*
X-727680Y-910380D01*
X-728640Y-911440D01*
X-729770Y-912070D01*
X-733790D01*
G01X-729770D02*
X-727360Y-918210D01*
G01X-721160Y-915670D02*
X-720200Y-917150D01*
X-718910Y-918000D01*
X-717460Y-918210D01*
X-716180Y-918000D01*
X-714890Y-916940D01*
X-714090Y-915670D01*
X-713930Y-914400D01*
X-714250Y-912920D01*
X-715370Y-911860D01*
X-716500Y-911440D01*
X-717950D01*
G01X-716500D02*
X-715530Y-910800D01*
X-714730Y-909740D01*
X-714410Y-908470D01*
X-714730Y-907200D01*
X-715530Y-906150D01*
X-716980Y-905510D01*
X-718430Y-905720D01*
X-719880Y-906570D01*
G01X-733790Y-842010D02*
Y-829310D01*
X-729770D01*
X-728480Y-829950D01*
X-727680Y-830790D01*
X-727360Y-832490D01*
X-727680Y-834180D01*
X-728640Y-835240D01*
X-729770Y-835870D01*
X-733790D01*
G01X-729770D02*
X-727360Y-842010D01*
G01X-720360Y-840530D02*
X-719230Y-841590D01*
X-717950Y-842010D01*
X-716660Y-841590D01*
X-715530Y-840320D01*
X-714730Y-838410D01*
X-714410Y-836510D01*
Y-834180D01*
X-714730Y-832270D01*
X-715530Y-830580D01*
X-716500Y-829730D01*
X-717630Y-829310D01*
X-718910Y-829730D01*
X-719880Y-830580D01*
X-720520Y-831850D01*
X-720840Y-833540D01*
X-720520Y-835020D01*
X-719720Y-836510D01*
X-718750Y-837350D01*
X-717630Y-837570D01*
X-716340Y-837140D01*
X-715370Y-836080D01*
X-714410Y-834180D01*
G01X-733790Y-867410D02*
Y-854710D01*
X-729770D01*
X-728480Y-855350D01*
X-727680Y-856190D01*
X-727360Y-857890D01*
X-727680Y-859580D01*
X-728640Y-860640D01*
X-729770Y-861270D01*
X-733790D01*
G01X-729770D02*
X-727360Y-867410D01*
G01X-717950D02*
X-717630Y-864660D01*
X-717140Y-862330D01*
X-716500Y-860210D01*
X-715690Y-857890D01*
X-714410Y-854710D01*
X-720840D01*
G01X-733790Y-892810D02*
Y-880110D01*
X-729770D01*
X-728480Y-880750D01*
X-727680Y-881590D01*
X-727360Y-883290D01*
X-727680Y-884980D01*
X-728640Y-886040D01*
X-729770Y-886670D01*
X-733790D01*
G01X-729770D02*
X-727360Y-892810D01*
G01X-721160Y-890910D02*
X-720200Y-891960D01*
X-719070Y-892600D01*
X-717630Y-892810D01*
X-716180Y-892390D01*
X-715050Y-891540D01*
X-714250Y-890060D01*
X-714090Y-888370D01*
X-714410Y-886670D01*
X-715210Y-885610D01*
X-716340Y-884770D01*
X-717460Y-884560D01*
X-718590Y-884770D01*
X-720040Y-885610D01*
X-719560Y-880110D01*
X-715210D01*
G01X-719940Y-2167040D02*
Y-2154340D01*
X-716730D01*
X-715440Y-2154980D01*
X-714470Y-2155820D01*
X-713670Y-2157090D01*
X-713030Y-2158570D01*
X-712870Y-2160690D01*
X-713030Y-2162810D01*
X-713670Y-2164290D01*
X-714470Y-2165560D01*
X-715440Y-2166410D01*
X-716730Y-2167040D01*
X-719940D01*
G01X-707480D02*
X-703460Y-2154340D01*
X-699430Y-2167040D01*
G01X-700880Y-2162600D02*
X-706030D01*
G01X-693560Y-2156460D02*
X-692600Y-2155190D01*
X-691470Y-2154550D01*
X-690180Y-2154340D01*
X-688570Y-2154760D01*
X-687450Y-2155820D01*
X-687130Y-2157090D01*
X-687290Y-2158360D01*
X-687930Y-2159420D01*
X-691150Y-2161540D01*
X-692600Y-2163020D01*
X-693560Y-2165140D01*
X-693880Y-2167040D01*
X-687130D01*
G01X-719900Y-2076260D02*
Y-2084260D01*
G01X-666140Y-2057400D02*
X-667100Y-2056760D01*
X-668230Y-2056340D01*
X-669510D01*
X-670960Y-2056980D01*
X-672090Y-2058030D01*
X-672890Y-2059300D01*
X-673540Y-2061420D01*
X-673700Y-2063330D01*
X-673370Y-2065230D01*
X-672890Y-2066500D01*
X-671930Y-2067770D01*
X-670800Y-2068620D01*
X-669680Y-2069040D01*
X-668550D01*
X-667420Y-2068620D01*
X-666460Y-2067980D01*
X-665650Y-2067140D01*
G01X-659780Y-2063750D02*
X-658660Y-2062270D01*
X-657690Y-2061420D01*
X-656400Y-2061000D01*
X-655280Y-2061420D01*
X-654470Y-2062270D01*
X-653830Y-2063540D01*
X-653670Y-2065020D01*
X-653830Y-2066290D01*
X-654470Y-2067560D01*
X-655440Y-2068620D01*
X-656560Y-2069040D01*
X-657850Y-2068620D01*
X-658980Y-2067350D01*
X-659620Y-2065440D01*
X-659780Y-2063330D01*
X-659460Y-2060570D01*
X-658980Y-2059090D01*
X-658170Y-2057610D01*
X-657050Y-2056550D01*
X-655920Y-2056340D01*
X-654790Y-2056760D01*
X-653990Y-2057820D01*
G01X-677500Y-2084260D02*
Y-2076260D01*
G01X-697090Y-1965040D02*
X-693070Y-1952340D01*
X-689040Y-1965040D01*
G01X-690490Y-1960600D02*
X-695640D01*
G01X-684140Y-1952340D02*
X-680120Y-1965040D01*
X-676090Y-1952340D01*
G01X-667170Y-1965040D02*
Y-1952340D01*
X-669100Y-1954880D01*
G01Y-1965040D02*
X-665240D01*
G01X-654120Y-1692030D02*
X-666820D01*
Y-1688010D01*
X-666180Y-1686720D01*
X-665340Y-1685920D01*
X-663640Y-1685600D01*
X-661950Y-1685920D01*
X-660890Y-1686880D01*
X-660260Y-1688010D01*
Y-1692030D01*
G01Y-1688010D02*
X-654120Y-1685600D01*
G01X-656660Y-1679400D02*
X-655180Y-1678440D01*
X-654330Y-1677150D01*
X-654120Y-1675700D01*
X-654330Y-1674420D01*
X-655390Y-1673130D01*
X-656660Y-1672330D01*
X-657930Y-1672170D01*
X-659410Y-1672490D01*
X-660470Y-1673610D01*
X-660890Y-1674740D01*
Y-1676190D01*
G01Y-1674740D02*
X-661530Y-1673770D01*
X-662590Y-1672970D01*
X-663860Y-1672650D01*
X-665130Y-1672970D01*
X-666180Y-1673770D01*
X-666820Y-1675220D01*
X-666610Y-1676670D01*
X-665760Y-1678120D01*
G01X-656660Y-1666450D02*
X-655180Y-1665490D01*
X-654330Y-1664200D01*
X-654120Y-1662750D01*
X-654330Y-1661470D01*
X-655390Y-1660180D01*
X-656660Y-1659380D01*
X-657930Y-1659220D01*
X-659410Y-1659540D01*
X-660470Y-1660660D01*
X-660890Y-1661790D01*
Y-1663240D01*
G01Y-1661790D02*
X-661530Y-1660820D01*
X-662590Y-1660020D01*
X-663860Y-1659700D01*
X-665130Y-1660020D01*
X-666180Y-1660820D01*
X-666820Y-1662270D01*
X-666610Y-1663720D01*
X-665760Y-1665170D01*
G01X-673170Y-1692030D02*
X-685870D01*
Y-1688010D01*
X-685230Y-1686720D01*
X-684390Y-1685920D01*
X-682690Y-1685600D01*
X-681000Y-1685920D01*
X-679940Y-1686880D01*
X-679310Y-1688010D01*
Y-1692030D01*
G01Y-1688010D02*
X-673170Y-1685600D01*
G01X-675710Y-1679400D02*
X-674230Y-1678440D01*
X-673380Y-1677150D01*
X-673170Y-1675700D01*
X-673380Y-1674420D01*
X-674440Y-1673130D01*
X-675710Y-1672330D01*
X-676980Y-1672170D01*
X-678460Y-1672490D01*
X-679520Y-1673610D01*
X-679940Y-1674740D01*
Y-1676190D01*
G01Y-1674740D02*
X-680580Y-1673770D01*
X-681640Y-1672970D01*
X-682910Y-1672650D01*
X-684180Y-1672970D01*
X-685230Y-1673770D01*
X-685870Y-1675220D01*
X-685660Y-1676670D01*
X-684810Y-1678120D01*
G01X-673170Y-1662920D02*
X-685870D01*
X-683330Y-1664850D01*
G01X-673170D02*
Y-1660990D01*
G01X-706370Y-1592090D02*
Y-1579390D01*
X-702350D01*
X-701060Y-1580030D01*
X-700260Y-1580870D01*
X-699940Y-1582570D01*
X-700260Y-1584260D01*
X-701220Y-1585320D01*
X-702350Y-1585950D01*
X-706370D01*
G01X-702350D02*
X-699940Y-1592090D01*
G01X-693420D02*
Y-1579390D01*
X-689400D01*
X-688110Y-1580030D01*
X-687310Y-1580870D01*
X-686990Y-1582570D01*
X-687310Y-1584260D01*
X-688270Y-1585320D01*
X-689400Y-1585950D01*
X-693420D01*
G01X-689400D02*
X-686990Y-1592090D01*
G01X-675320D02*
Y-1579390D01*
X-681280Y-1588490D01*
X-673230D01*
G01X-660820Y-1636880D02*
X-673520D01*
Y-1632860D01*
X-672880Y-1631570D01*
X-672040Y-1630770D01*
X-670340Y-1630450D01*
X-668650Y-1630770D01*
X-667590Y-1631730D01*
X-666960Y-1632860D01*
Y-1636880D01*
G01Y-1632860D02*
X-660820Y-1630450D01*
G01X-663360Y-1624250D02*
X-661880Y-1623290D01*
X-661030Y-1622000D01*
X-660820Y-1620550D01*
X-661030Y-1619270D01*
X-662090Y-1617980D01*
X-663360Y-1617180D01*
X-664630Y-1617020D01*
X-666110Y-1617340D01*
X-667170Y-1618460D01*
X-667590Y-1619590D01*
Y-1621040D01*
G01Y-1619590D02*
X-668230Y-1618620D01*
X-669290Y-1617820D01*
X-670560Y-1617500D01*
X-671830Y-1617820D01*
X-672880Y-1618620D01*
X-673520Y-1620070D01*
X-673310Y-1621520D01*
X-672460Y-1622970D01*
G01X-671400Y-1610820D02*
X-672670Y-1609860D01*
X-673310Y-1608730D01*
X-673520Y-1607440D01*
X-673100Y-1605830D01*
X-672040Y-1604710D01*
X-670770Y-1604390D01*
X-669500Y-1604550D01*
X-668440Y-1605190D01*
X-666320Y-1608410D01*
X-664840Y-1609860D01*
X-662720Y-1610820D01*
X-660820Y-1611140D01*
Y-1604390D01*
G01X-704370Y-1450090D02*
Y-1437390D01*
X-700350D01*
X-699060Y-1438030D01*
X-698260Y-1438870D01*
X-697940Y-1440570D01*
X-698260Y-1442260D01*
X-699220Y-1443320D01*
X-700350Y-1443950D01*
X-704370D01*
G01X-700350D02*
X-697940Y-1450090D01*
G01X-691420D02*
Y-1437390D01*
X-687400D01*
X-686110Y-1438030D01*
X-685310Y-1438870D01*
X-684990Y-1440570D01*
X-685310Y-1442260D01*
X-686270Y-1443320D01*
X-687400Y-1443950D01*
X-691420D01*
G01X-687400D02*
X-684990Y-1450090D01*
G01X-678790Y-1447550D02*
X-677830Y-1449030D01*
X-676540Y-1449880D01*
X-675090Y-1450090D01*
X-673810Y-1449880D01*
X-672520Y-1448820D01*
X-671720Y-1447550D01*
X-671560Y-1446280D01*
X-671880Y-1444800D01*
X-673000Y-1443740D01*
X-674130Y-1443320D01*
X-675580D01*
G01X-674130D02*
X-673160Y-1442680D01*
X-672360Y-1441620D01*
X-672040Y-1440350D01*
X-672360Y-1439080D01*
X-673160Y-1438030D01*
X-674610Y-1437390D01*
X-676060Y-1437600D01*
X-677510Y-1438450D01*
G01X-686700Y-759860D02*
Y-747160D01*
X-683490D01*
X-682200Y-747800D01*
X-681230Y-748640D01*
X-680430Y-749910D01*
X-679790Y-751390D01*
X-679630Y-753510D01*
X-679790Y-755630D01*
X-680430Y-757110D01*
X-681230Y-758380D01*
X-682200Y-759230D01*
X-683490Y-759860D01*
X-686700D01*
G01X-673750D02*
Y-747160D01*
X-670540D01*
X-669250Y-747800D01*
X-668280Y-748640D01*
X-667480Y-749910D01*
X-666840Y-751390D01*
X-666680Y-753510D01*
X-666840Y-755630D01*
X-667480Y-757110D01*
X-668280Y-758380D01*
X-669250Y-759230D01*
X-670540Y-759860D01*
X-673750D01*
G01X-660800Y-757320D02*
X-659840Y-758800D01*
X-658550Y-759650D01*
X-657100Y-759860D01*
X-655820Y-759650D01*
X-654530Y-758590D01*
X-653730Y-757320D01*
X-653570Y-756050D01*
X-653890Y-754570D01*
X-655010Y-753510D01*
X-656140Y-753090D01*
X-657590D01*
G01X-656140D02*
X-655170Y-752450D01*
X-654370Y-751390D01*
X-654050Y-750120D01*
X-654370Y-748850D01*
X-655170Y-747800D01*
X-656620Y-747160D01*
X-658070Y-747370D01*
X-659520Y-748220D01*
G01X-662820Y-673900D02*
X-675520D01*
Y-669880D01*
X-674880Y-668590D01*
X-674040Y-667790D01*
X-672340Y-667470D01*
X-670650Y-667790D01*
X-669590Y-668750D01*
X-668960Y-669880D01*
Y-673900D01*
G01Y-669880D02*
X-662820Y-667470D01*
G01Y-657740D02*
X-675520D01*
X-672980Y-659670D01*
G01X-662820D02*
Y-655810D01*
G01X-652120Y-627230D02*
X-664820D01*
Y-623210D01*
X-664180Y-621920D01*
X-663340Y-621120D01*
X-661640Y-620800D01*
X-659950Y-621120D01*
X-658890Y-622080D01*
X-658260Y-623210D01*
Y-627230D01*
G01Y-623210D02*
X-652120Y-620800D01*
G01X-662700Y-614120D02*
X-663970Y-613160D01*
X-664610Y-612030D01*
X-664820Y-610740D01*
X-664400Y-609130D01*
X-663340Y-608010D01*
X-662070Y-607690D01*
X-660800Y-607850D01*
X-659740Y-608490D01*
X-657620Y-611710D01*
X-656140Y-613160D01*
X-654020Y-614120D01*
X-652120Y-614440D01*
Y-607690D01*
G01Y-596180D02*
X-664820D01*
X-655720Y-602140D01*
Y-594090D01*
G01X-700370Y-582090D02*
Y-569390D01*
X-696350D01*
X-695060Y-570030D01*
X-694260Y-570870D01*
X-693940Y-572570D01*
X-694260Y-574260D01*
X-695220Y-575320D01*
X-696350Y-575950D01*
X-700370D01*
G01X-696350D02*
X-693940Y-582090D01*
G01X-687420D02*
Y-569390D01*
X-683400D01*
X-682110Y-570030D01*
X-681310Y-570870D01*
X-680990Y-572570D01*
X-681310Y-574260D01*
X-682270Y-575320D01*
X-683400Y-575950D01*
X-687420D01*
G01X-683400D02*
X-680990Y-582090D01*
G01X-674310Y-571510D02*
X-673350Y-570240D01*
X-672220Y-569600D01*
X-670930Y-569390D01*
X-669320Y-569810D01*
X-668200Y-570870D01*
X-667880Y-572140D01*
X-668040Y-573410D01*
X-668680Y-574470D01*
X-671900Y-576590D01*
X-673350Y-578070D01*
X-674310Y-580190D01*
X-674630Y-582090D01*
X-667880D01*
G01X-698370Y-444090D02*
Y-431390D01*
X-694350D01*
X-693060Y-432030D01*
X-692260Y-432870D01*
X-691940Y-434570D01*
X-692260Y-436260D01*
X-693220Y-437320D01*
X-694350Y-437950D01*
X-698370D01*
G01X-694350D02*
X-691940Y-444090D01*
G01X-685420D02*
Y-431390D01*
X-681400D01*
X-680110Y-432030D01*
X-679310Y-432870D01*
X-678990Y-434570D01*
X-679310Y-436260D01*
X-680270Y-437320D01*
X-681400Y-437950D01*
X-685420D01*
G01X-681400D02*
X-678990Y-444090D01*
G01X-669260D02*
Y-431390D01*
X-671190Y-433930D01*
G01Y-444090D02*
X-667330D01*
G01X-580340Y-2224860D02*
X-581300Y-2224220D01*
X-582430Y-2223800D01*
X-583710D01*
X-585160Y-2224440D01*
X-586290Y-2225490D01*
X-587090Y-2226760D01*
X-587740Y-2228880D01*
X-587900Y-2230790D01*
X-587570Y-2232690D01*
X-587090Y-2233960D01*
X-586130Y-2235230D01*
X-585000Y-2236080D01*
X-583880Y-2236500D01*
X-582750D01*
X-581620Y-2236080D01*
X-580660Y-2235440D01*
X-579850Y-2234600D01*
G01X-571250Y-2236500D02*
X-570930Y-2233750D01*
X-570440Y-2231420D01*
X-569800Y-2229300D01*
X-568990Y-2226980D01*
X-567710Y-2223800D01*
X-574140D01*
G01X-629140Y-2108220D02*
X-630100Y-2107580D01*
X-631230Y-2107160D01*
X-632510D01*
X-633960Y-2107800D01*
X-635090Y-2108850D01*
X-635890Y-2110120D01*
X-636540Y-2112240D01*
X-636700Y-2114150D01*
X-636370Y-2116050D01*
X-635890Y-2117320D01*
X-634930Y-2118590D01*
X-633800Y-2119440D01*
X-632680Y-2119860D01*
X-631550D01*
X-630420Y-2119440D01*
X-629460Y-2118800D01*
X-628650Y-2117960D01*
G01X-619730Y-2119860D02*
X-618600Y-2119650D01*
X-617310Y-2119010D01*
X-616510Y-2117960D01*
X-616190Y-2116470D01*
X-616510Y-2114990D01*
X-617470Y-2113720D01*
X-618920Y-2113090D01*
X-620530D01*
X-621490Y-2112660D01*
X-622300Y-2111610D01*
X-622620Y-2110120D01*
X-622140Y-2108640D01*
X-621010Y-2107580D01*
X-619730Y-2107160D01*
X-618440Y-2107580D01*
X-617310Y-2108640D01*
X-616830Y-2110120D01*
X-617150Y-2111610D01*
X-617960Y-2112660D01*
X-618920Y-2113090D01*
X-620530D01*
X-621980Y-2113720D01*
X-622940Y-2114990D01*
X-623260Y-2116470D01*
X-622940Y-2117960D01*
X-622140Y-2119010D01*
X-620850Y-2119650D01*
X-619730Y-2119860D01*
G01X-651900Y-2114160D02*
X-643900D01*
G01X-613280Y-1913040D02*
Y-1900340D01*
X-609260D01*
X-607970Y-1900980D01*
X-607170Y-1901820D01*
X-606850Y-1903520D01*
X-607170Y-1905210D01*
X-608130Y-1906270D01*
X-609260Y-1906900D01*
X-613280D01*
G01X-609260D02*
X-606850Y-1913040D01*
G01X-597120D02*
Y-1900340D01*
X-599050Y-1902880D01*
G01Y-1913040D02*
X-595190D01*
G01X-587220Y-1902460D02*
X-586260Y-1901190D01*
X-585130Y-1900550D01*
X-583840Y-1900340D01*
X-582230Y-1900760D01*
X-581110Y-1901820D01*
X-580790Y-1903090D01*
X-580950Y-1904360D01*
X-581590Y-1905420D01*
X-584810Y-1907540D01*
X-586260Y-1909020D01*
X-587220Y-1911140D01*
X-587540Y-1913040D01*
X-580790D01*
G01X-612380Y-1940090D02*
Y-1927390D01*
X-608360D01*
X-607070Y-1928030D01*
X-606270Y-1928870D01*
X-605950Y-1930570D01*
X-606270Y-1932260D01*
X-607230Y-1933320D01*
X-608360Y-1933950D01*
X-612380D01*
G01X-608360D02*
X-605950Y-1940090D01*
G01X-596220D02*
Y-1927390D01*
X-598150Y-1929930D01*
G01Y-1940090D02*
X-594290D01*
G01X-583270Y-1927390D02*
X-584550Y-1927810D01*
X-585520Y-1928870D01*
X-586160Y-1930140D01*
X-586640Y-1931840D01*
X-586800Y-1933740D01*
X-586640Y-1935650D01*
X-586160Y-1937340D01*
X-585520Y-1938610D01*
X-584550Y-1939670D01*
X-583270Y-1940090D01*
X-581980Y-1939670D01*
X-581010Y-1938610D01*
X-580370Y-1937340D01*
X-579890Y-1935650D01*
X-579730Y-1933740D01*
X-579890Y-1931840D01*
X-580370Y-1930140D01*
X-581010Y-1928870D01*
X-581980Y-1927810D01*
X-583270Y-1927390D01*
G01X-613280Y-1862240D02*
Y-1849540D01*
X-609260D01*
X-607970Y-1850180D01*
X-607170Y-1851020D01*
X-606850Y-1852720D01*
X-607170Y-1854410D01*
X-608130Y-1855470D01*
X-609260Y-1856100D01*
X-613280D01*
G01X-609260D02*
X-606850Y-1862240D01*
G01X-597120D02*
Y-1849540D01*
X-599050Y-1852080D01*
G01Y-1862240D02*
X-595190D01*
G01X-587220Y-1856950D02*
X-586100Y-1855470D01*
X-585130Y-1854620D01*
X-583840Y-1854200D01*
X-582720Y-1854620D01*
X-581910Y-1855470D01*
X-581270Y-1856740D01*
X-581110Y-1858220D01*
X-581270Y-1859490D01*
X-581910Y-1860760D01*
X-582880Y-1861820D01*
X-584000Y-1862240D01*
X-585290Y-1861820D01*
X-586420Y-1860550D01*
X-587060Y-1858640D01*
X-587220Y-1856530D01*
X-586900Y-1853770D01*
X-586420Y-1852290D01*
X-585610Y-1850810D01*
X-584490Y-1849750D01*
X-583360Y-1849540D01*
X-582230Y-1849960D01*
X-581430Y-1851020D01*
G01X-613280Y-1887640D02*
Y-1874940D01*
X-609260D01*
X-607970Y-1875580D01*
X-607170Y-1876420D01*
X-606850Y-1878120D01*
X-607170Y-1879810D01*
X-608130Y-1880870D01*
X-609260Y-1881500D01*
X-613280D01*
G01X-609260D02*
X-606850Y-1887640D01*
G01X-597120D02*
Y-1874940D01*
X-599050Y-1877480D01*
G01Y-1887640D02*
X-595190D01*
G01X-582230D02*
Y-1874940D01*
X-588190Y-1884040D01*
X-580140D01*
G01X-641770Y-1636880D02*
X-654470D01*
Y-1632860D01*
X-653830Y-1631570D01*
X-652990Y-1630770D01*
X-651290Y-1630450D01*
X-649600Y-1630770D01*
X-648540Y-1631730D01*
X-647910Y-1632860D01*
Y-1636880D01*
G01Y-1632860D02*
X-641770Y-1630450D01*
G01X-644310Y-1624250D02*
X-642830Y-1623290D01*
X-641980Y-1622000D01*
X-641770Y-1620550D01*
X-641980Y-1619270D01*
X-643040Y-1617980D01*
X-644310Y-1617180D01*
X-645580Y-1617020D01*
X-647060Y-1617340D01*
X-648120Y-1618460D01*
X-648540Y-1619590D01*
Y-1621040D01*
G01Y-1619590D02*
X-649180Y-1618620D01*
X-650240Y-1617820D01*
X-651510Y-1617500D01*
X-652780Y-1617820D01*
X-653830Y-1618620D01*
X-654470Y-1620070D01*
X-654260Y-1621520D01*
X-653410Y-1622970D01*
G01X-641770Y-1605830D02*
X-654470D01*
X-645370Y-1611790D01*
Y-1603740D01*
G01X-607240Y-1455840D02*
Y-1443140D01*
X-604030D01*
X-602740Y-1443780D01*
X-601770Y-1444620D01*
X-600970Y-1445890D01*
X-600330Y-1447370D01*
X-600170Y-1449490D01*
X-600330Y-1451610D01*
X-600970Y-1453090D01*
X-601770Y-1454360D01*
X-602740Y-1455210D01*
X-604030Y-1455840D01*
X-607240D01*
G01X-594290D02*
Y-1443140D01*
X-591080D01*
X-589790Y-1443780D01*
X-588820Y-1444620D01*
X-588020Y-1445890D01*
X-587380Y-1447370D01*
X-587220Y-1449490D01*
X-587380Y-1451610D01*
X-588020Y-1453090D01*
X-588820Y-1454360D01*
X-589790Y-1455210D01*
X-591080Y-1455840D01*
X-594290D01*
G01X-580860Y-1445260D02*
X-579900Y-1443990D01*
X-578770Y-1443350D01*
X-577480Y-1443140D01*
X-575870Y-1443560D01*
X-574750Y-1444620D01*
X-574430Y-1445890D01*
X-574590Y-1447160D01*
X-575230Y-1448220D01*
X-578450Y-1450340D01*
X-579900Y-1451820D01*
X-580860Y-1453940D01*
X-581180Y-1455840D01*
X-574430D01*
G01X-627200Y-1143000D02*
X-620450Y-1130300D01*
G01X-627200D02*
X-620450Y-1143000D01*
G01X-613930Y-1137710D02*
X-612810Y-1136230D01*
X-611840Y-1135380D01*
X-610550Y-1134960D01*
X-609430Y-1135380D01*
X-608620Y-1136230D01*
X-607980Y-1137500D01*
X-607820Y-1138980D01*
X-607980Y-1140250D01*
X-608620Y-1141520D01*
X-609590Y-1142580D01*
X-610710Y-1143000D01*
X-612000Y-1142580D01*
X-613130Y-1141310D01*
X-613770Y-1139400D01*
X-613930Y-1137290D01*
X-613610Y-1134530D01*
X-613130Y-1133050D01*
X-612320Y-1131570D01*
X-611200Y-1130510D01*
X-610070Y-1130300D01*
X-608940Y-1130720D01*
X-608140Y-1131780D01*
G01X-635560Y-1187450D02*
X-632340D01*
Y-1191260D01*
X-633310Y-1192530D01*
X-634430Y-1193380D01*
X-636040Y-1193800D01*
X-637650Y-1193380D01*
X-638780Y-1192530D01*
X-639740Y-1191260D01*
X-640390Y-1189780D01*
X-640710Y-1188090D01*
Y-1186600D01*
X-640390Y-1185330D01*
X-639740Y-1183850D01*
X-638780Y-1182580D01*
X-637810Y-1181740D01*
X-636530Y-1181100D01*
X-635400D01*
X-634110Y-1181520D01*
X-633150Y-1182370D01*
G01X-627270Y-1193800D02*
Y-1181100D01*
X-619880Y-1193800D01*
Y-1181100D01*
G01X-614160Y-1193800D02*
Y-1181100D01*
X-610950D01*
X-609660Y-1181740D01*
X-608690Y-1182580D01*
X-607890Y-1183850D01*
X-607250Y-1185330D01*
X-607090Y-1187450D01*
X-607250Y-1189570D01*
X-607890Y-1191050D01*
X-608690Y-1192320D01*
X-609660Y-1193170D01*
X-610950Y-1193800D01*
X-614160D01*
G01X-594460D02*
X-600890D01*
Y-1181100D01*
X-594460D01*
G01X-597030Y-1187240D02*
X-600890D01*
G01X-606790Y-928790D02*
Y-916090D01*
X-602770D01*
X-601480Y-916730D01*
X-600680Y-917570D01*
X-600360Y-919270D01*
X-600680Y-920960D01*
X-601640Y-922020D01*
X-602770Y-922650D01*
X-606790D01*
G01X-602770D02*
X-600360Y-928790D01*
G01X-593680Y-918210D02*
X-592720Y-916940D01*
X-591590Y-916300D01*
X-590300Y-916090D01*
X-588690Y-916510D01*
X-587570Y-917570D01*
X-587250Y-918840D01*
X-587410Y-920110D01*
X-588050Y-921170D01*
X-591270Y-923290D01*
X-592720Y-924770D01*
X-593680Y-926890D01*
X-594000Y-928790D01*
X-587250D01*
G01X-606790Y-852590D02*
Y-839890D01*
X-602770D01*
X-601480Y-840530D01*
X-600680Y-841370D01*
X-600360Y-843070D01*
X-600680Y-844760D01*
X-601640Y-845820D01*
X-602770Y-846450D01*
X-606790D01*
G01X-602770D02*
X-600360Y-852590D01*
G01X-590630D02*
X-589500Y-852380D01*
X-588210Y-851740D01*
X-587410Y-850690D01*
X-587090Y-849200D01*
X-587410Y-847720D01*
X-588370Y-846450D01*
X-589820Y-845820D01*
X-591430D01*
X-592390Y-845390D01*
X-593200Y-844340D01*
X-593520Y-842850D01*
X-593040Y-841370D01*
X-591910Y-840310D01*
X-590630Y-839890D01*
X-589340Y-840310D01*
X-588210Y-841370D01*
X-587730Y-842850D01*
X-588050Y-844340D01*
X-588860Y-845390D01*
X-589820Y-845820D01*
X-591430D01*
X-592880Y-846450D01*
X-593840Y-847720D01*
X-594160Y-849200D01*
X-593840Y-850690D01*
X-593040Y-851740D01*
X-591750Y-852380D01*
X-590630Y-852590D01*
G01X-606790Y-877990D02*
Y-865290D01*
X-602770D01*
X-601480Y-865930D01*
X-600680Y-866770D01*
X-600360Y-868470D01*
X-600680Y-870160D01*
X-601640Y-871220D01*
X-602770Y-871850D01*
X-606790D01*
G01X-602770D02*
X-600360Y-877990D01*
G01X-593680Y-872700D02*
X-592560Y-871220D01*
X-591590Y-870370D01*
X-590300Y-869950D01*
X-589180Y-870370D01*
X-588370Y-871220D01*
X-587730Y-872490D01*
X-587570Y-873970D01*
X-587730Y-875240D01*
X-588370Y-876510D01*
X-589340Y-877570D01*
X-590460Y-877990D01*
X-591750Y-877570D01*
X-592880Y-876300D01*
X-593520Y-874390D01*
X-593680Y-872280D01*
X-593360Y-869520D01*
X-592880Y-868040D01*
X-592070Y-866560D01*
X-590950Y-865500D01*
X-589820Y-865290D01*
X-588690Y-865710D01*
X-587890Y-866770D01*
G01X-606790Y-903390D02*
Y-890690D01*
X-602770D01*
X-601480Y-891330D01*
X-600680Y-892170D01*
X-600360Y-893870D01*
X-600680Y-895560D01*
X-601640Y-896620D01*
X-602770Y-897250D01*
X-606790D01*
G01X-602770D02*
X-600360Y-903390D01*
G01X-588690D02*
Y-890690D01*
X-594650Y-899790D01*
X-586600D01*
G01X-643770Y-680380D02*
X-656470D01*
Y-676360D01*
X-655830Y-675070D01*
X-654990Y-674270D01*
X-653290Y-673950D01*
X-651600Y-674270D01*
X-650540Y-675230D01*
X-649910Y-676360D01*
Y-680380D01*
G01Y-676360D02*
X-643770Y-673950D01*
G01X-654350Y-667270D02*
X-655620Y-666310D01*
X-656260Y-665180D01*
X-656470Y-663890D01*
X-656050Y-662280D01*
X-654990Y-661160D01*
X-653720Y-660840D01*
X-652450Y-661000D01*
X-651390Y-661640D01*
X-649270Y-664860D01*
X-647790Y-666310D01*
X-645670Y-667270D01*
X-643770Y-667590D01*
Y-660840D01*
G01X-645670Y-654800D02*
X-644620Y-653840D01*
X-643980Y-652710D01*
X-643770Y-651270D01*
X-644190Y-649820D01*
X-645040Y-648690D01*
X-646520Y-647890D01*
X-648210Y-647730D01*
X-649910Y-648050D01*
X-650970Y-648850D01*
X-651810Y-649980D01*
X-652020Y-651100D01*
X-651810Y-652230D01*
X-650970Y-653680D01*
X-656470Y-653200D01*
Y-648850D01*
G01X-633070Y-627230D02*
X-645770D01*
Y-623210D01*
X-645130Y-621920D01*
X-644290Y-621120D01*
X-642590Y-620800D01*
X-640900Y-621120D01*
X-639840Y-622080D01*
X-639210Y-623210D01*
Y-627230D01*
G01Y-623210D02*
X-633070Y-620800D01*
G01X-643650Y-614120D02*
X-644920Y-613160D01*
X-645560Y-612030D01*
X-645770Y-610740D01*
X-645350Y-609130D01*
X-644290Y-608010D01*
X-643020Y-607690D01*
X-641750Y-607850D01*
X-640690Y-608490D01*
X-638570Y-611710D01*
X-637090Y-613160D01*
X-634970Y-614120D01*
X-633070Y-614440D01*
Y-607690D01*
G01X-638360Y-601170D02*
X-639840Y-600050D01*
X-640690Y-599080D01*
X-641110Y-597790D01*
X-640690Y-596670D01*
X-639840Y-595860D01*
X-638570Y-595220D01*
X-637090Y-595060D01*
X-635820Y-595220D01*
X-634550Y-595860D01*
X-633490Y-596830D01*
X-633070Y-597950D01*
X-633490Y-599240D01*
X-634760Y-600370D01*
X-636670Y-601010D01*
X-638780Y-601170D01*
X-641540Y-600850D01*
X-643020Y-600370D01*
X-644500Y-599560D01*
X-645560Y-598440D01*
X-645770Y-597310D01*
X-645350Y-596180D01*
X-644290Y-595380D01*
G01X-600890Y-446190D02*
Y-433490D01*
X-597680D01*
X-596390Y-434130D01*
X-595420Y-434970D01*
X-594620Y-436240D01*
X-593980Y-437720D01*
X-593820Y-439840D01*
X-593980Y-441960D01*
X-594620Y-443440D01*
X-595420Y-444710D01*
X-596390Y-445560D01*
X-597680Y-446190D01*
X-600890D01*
G01X-587940D02*
Y-433490D01*
X-584730D01*
X-583440Y-434130D01*
X-582470Y-434970D01*
X-581670Y-436240D01*
X-581030Y-437720D01*
X-580870Y-439840D01*
X-581030Y-441960D01*
X-581670Y-443440D01*
X-582470Y-444710D01*
X-583440Y-445560D01*
X-584730Y-446190D01*
X-587940D01*
G01X-571460D02*
Y-433490D01*
X-573390Y-436030D01*
G01Y-446190D02*
X-569530D01*
G01X-619110Y-55660D02*
Y-35340D01*
X-614030D01*
X-612000Y-36360D01*
X-610470Y-37710D01*
X-609200Y-39740D01*
X-608190Y-42110D01*
X-607930Y-45500D01*
X-608190Y-48890D01*
X-609200Y-51260D01*
X-610470Y-53290D01*
X-612000Y-54640D01*
X-614030Y-55660D01*
X-619110D01*
G01X-597010Y-46520D02*
X-588880D01*
X-589640Y-44150D01*
X-590910Y-42790D01*
X-592690Y-42110D01*
X-594470Y-42450D01*
X-595990Y-43470D01*
X-597010Y-45840D01*
X-597520Y-47870D01*
Y-49900D01*
X-597010Y-51930D01*
X-595740Y-53970D01*
X-594220Y-55320D01*
X-592440Y-55660D01*
X-590660Y-54980D01*
X-588880Y-52950D01*
G01X-568820Y-43810D02*
X-570590Y-42450D01*
X-572120Y-42110D01*
X-574150Y-42790D01*
X-575670Y-44150D01*
X-576690Y-46520D01*
X-576940Y-48890D01*
X-576690Y-51260D01*
X-575670Y-53290D01*
X-574150Y-54980D01*
X-572120Y-55660D01*
X-570340Y-54980D01*
X-568820Y-53630D01*
G01X-556370Y-46520D02*
X-548240D01*
X-549000Y-44150D01*
X-550270Y-42790D01*
X-552050Y-42110D01*
X-553830Y-42450D01*
X-555350Y-43470D01*
X-556370Y-45840D01*
X-556880Y-47870D01*
Y-49900D01*
X-556370Y-51930D01*
X-555100Y-53970D01*
X-553580Y-55320D01*
X-551800Y-55660D01*
X-550020Y-54980D01*
X-548240Y-52950D01*
G01X-539860Y-55660D02*
Y-42110D01*
G01Y-45840D02*
X-539100Y-44150D01*
X-537830Y-42790D01*
X-536050Y-42110D01*
X-534270Y-42790D01*
X-533000Y-44150D01*
X-532240Y-45840D01*
Y-55660D01*
G01Y-45840D02*
X-531480Y-44150D01*
X-530210Y-42790D01*
X-528430Y-42110D01*
X-526650Y-42790D01*
X-525380Y-44150D01*
X-524620Y-46180D01*
Y-55660D01*
G01X-516490D02*
Y-35340D01*
G01Y-45500D02*
X-515220Y-43470D01*
X-513700Y-42450D01*
X-512170Y-42110D01*
X-509890Y-42790D01*
X-508360Y-44150D01*
X-507350Y-46520D01*
Y-49230D01*
X-507860Y-51930D01*
X-508870Y-53970D01*
X-510650Y-55320D01*
X-512170Y-55660D01*
X-513700Y-55320D01*
X-515220Y-54310D01*
X-516490Y-52610D01*
G01X-495410Y-46520D02*
X-487280D01*
X-488040Y-44150D01*
X-489310Y-42790D01*
X-491090Y-42110D01*
X-492870Y-42450D01*
X-494390Y-43470D01*
X-495410Y-45840D01*
X-495920Y-47870D01*
Y-49900D01*
X-495410Y-51930D01*
X-494140Y-53970D01*
X-492620Y-55320D01*
X-490840Y-55660D01*
X-489060Y-54980D01*
X-487280Y-52950D01*
G01X-474840Y-55660D02*
Y-42110D01*
G01Y-44820D02*
X-473570Y-43470D01*
X-472300Y-42450D01*
X-470520Y-42110D01*
X-469250Y-42450D01*
X-467720Y-43470D01*
G01X-435470Y-38730D02*
X-433940Y-36690D01*
X-432160Y-35680D01*
X-430130Y-35340D01*
X-427590Y-36020D01*
X-425810Y-37710D01*
X-425310Y-39740D01*
X-425560Y-41780D01*
X-426580Y-43470D01*
X-431660Y-46850D01*
X-433940Y-49230D01*
X-435470Y-52610D01*
X-435970Y-55660D01*
X-425310D01*
G01X-410320Y-35340D02*
X-412350Y-36020D01*
X-413880Y-37710D01*
X-414890Y-39740D01*
X-415650Y-42450D01*
X-415910Y-45500D01*
X-415650Y-48550D01*
X-414890Y-51260D01*
X-413880Y-53290D01*
X-412350Y-54980D01*
X-410320Y-55660D01*
X-408290Y-54980D01*
X-406760Y-53290D01*
X-405750Y-51260D01*
X-404990Y-48550D01*
X-404730Y-45500D01*
X-404990Y-42450D01*
X-405750Y-39740D01*
X-406760Y-37710D01*
X-408290Y-36020D01*
X-410320Y-35340D01*
G01X-390000Y-55660D02*
Y-35340D01*
X-393050Y-39400D01*
G01Y-55660D02*
X-386950D01*
G01X-375270Y-51600D02*
X-373740Y-53970D01*
X-371710Y-55320D01*
X-369430Y-55660D01*
X-367390Y-55320D01*
X-365360Y-53630D01*
X-364090Y-51600D01*
X-363840Y-49560D01*
X-364350Y-47190D01*
X-366120Y-45500D01*
X-367900Y-44820D01*
X-370190D01*
G01X-367900D02*
X-366380Y-43810D01*
X-365110Y-42110D01*
X-364600Y-40080D01*
X-365110Y-38050D01*
X-366380Y-36360D01*
X-368660Y-35340D01*
X-370950Y-35680D01*
X-373240Y-37030D01*
G01X-615170Y-21370D02*
Y-1050D01*
G01X-605520D02*
X-615170Y-13580D01*
G01X-603990Y-21370D02*
X-610850Y-7820D01*
G01X-594340Y-21370D02*
Y-1050D01*
X-588240D01*
X-586210Y-2070D01*
X-584690Y-4440D01*
X-584180Y-7150D01*
X-584690Y-9860D01*
X-585960Y-11890D01*
X-588240Y-12900D01*
X-594340D01*
G01X-574020Y-21370D02*
Y-1050D01*
X-567670D01*
X-565640Y-2070D01*
X-564370Y-3420D01*
X-563860Y-6130D01*
X-564370Y-8840D01*
X-565890Y-10530D01*
X-567670Y-11550D01*
X-574020D01*
G01X-567670D02*
X-563860Y-21370D01*
G01X-555220D02*
Y-1050D01*
X-548620Y-17980D01*
X-542020Y-1050D01*
Y-21370D01*
G01X-535920Y-28140D02*
X-520680D01*
G01X-507980Y-1050D02*
X-510010Y-1730D01*
X-511540Y-3420D01*
X-512550Y-5450D01*
X-513310Y-8160D01*
X-513570Y-11210D01*
X-513310Y-14260D01*
X-512550Y-16970D01*
X-511540Y-19000D01*
X-510010Y-20690D01*
X-507980Y-21370D01*
X-505950Y-20690D01*
X-504420Y-19000D01*
X-503410Y-16970D01*
X-502650Y-14260D01*
X-502390Y-11210D01*
X-502650Y-8160D01*
X-503410Y-5450D01*
X-504420Y-3420D01*
X-505950Y-1730D01*
X-507980Y-1050D01*
G01X-492490Y-4440D02*
X-490960Y-2400D01*
X-489180Y-1390D01*
X-487150Y-1050D01*
X-484610Y-1730D01*
X-482830Y-3420D01*
X-482330Y-5450D01*
X-482580Y-7490D01*
X-483600Y-9180D01*
X-488680Y-12560D01*
X-490960Y-14940D01*
X-492490Y-18320D01*
X-492990Y-21370D01*
X-482330D01*
G01X-471910Y-7820D02*
X-467340Y-21370D01*
X-462770Y-7820D01*
G01X-451850Y-4440D02*
X-450320Y-2400D01*
X-448540Y-1390D01*
X-446510Y-1050D01*
X-443970Y-1730D01*
X-442190Y-3420D01*
X-441690Y-5450D01*
X-441940Y-7490D01*
X-442960Y-9180D01*
X-448040Y-12560D01*
X-450320Y-14940D01*
X-451850Y-18320D01*
X-452350Y-21370D01*
X-441690D01*
G01X-542340Y-2224860D02*
X-543300Y-2224220D01*
X-544430Y-2223800D01*
X-545710D01*
X-547160Y-2224440D01*
X-548290Y-2225490D01*
X-549090Y-2226760D01*
X-549740Y-2228880D01*
X-549900Y-2230790D01*
X-549570Y-2232690D01*
X-549090Y-2233960D01*
X-548130Y-2235230D01*
X-547000Y-2236080D01*
X-545880Y-2236500D01*
X-544750D01*
X-543620Y-2236080D01*
X-542660Y-2235440D01*
X-541850Y-2234600D01*
G01X-535980Y-2225920D02*
X-535020Y-2224650D01*
X-533890Y-2224010D01*
X-532600Y-2223800D01*
X-530990Y-2224220D01*
X-529870Y-2225280D01*
X-529550Y-2226550D01*
X-529710Y-2227820D01*
X-530350Y-2228880D01*
X-533570Y-2231000D01*
X-535020Y-2232480D01*
X-535980Y-2234600D01*
X-536300Y-2236500D01*
X-529550D01*
G01X-535950Y-2205110D02*
X-543950D01*
G01X-575180Y-2143760D02*
Y-2131060D01*
X-571160D01*
X-569870Y-2131700D01*
X-569070Y-2132540D01*
X-568750Y-2134240D01*
X-569070Y-2135930D01*
X-570030Y-2136990D01*
X-571160Y-2137620D01*
X-575180D01*
G01X-571160D02*
X-568750Y-2143760D01*
G01X-562070Y-2133180D02*
X-561110Y-2131910D01*
X-559980Y-2131270D01*
X-558690Y-2131060D01*
X-557080Y-2131480D01*
X-555960Y-2132540D01*
X-555640Y-2133810D01*
X-555800Y-2135080D01*
X-556440Y-2136140D01*
X-559660Y-2138260D01*
X-561110Y-2139740D01*
X-562070Y-2141860D01*
X-562390Y-2143760D01*
X-555640D01*
G01X-546070Y-2131060D02*
X-547350Y-2131480D01*
X-548320Y-2132540D01*
X-548960Y-2133810D01*
X-549440Y-2135510D01*
X-549600Y-2137410D01*
X-549440Y-2139320D01*
X-548960Y-2141010D01*
X-548320Y-2142280D01*
X-547350Y-2143340D01*
X-546070Y-2143760D01*
X-544780Y-2143340D01*
X-543810Y-2142280D01*
X-543170Y-2141010D01*
X-542690Y-2139320D01*
X-542530Y-2137410D01*
X-542690Y-2135510D01*
X-543170Y-2133810D01*
X-543810Y-2132540D01*
X-544780Y-2131480D01*
X-546070Y-2131060D01*
G01X-534240Y-2074970D02*
X-535200Y-2074330D01*
X-536330Y-2073910D01*
X-537610D01*
X-539060Y-2074550D01*
X-540190Y-2075600D01*
X-540990Y-2076870D01*
X-541640Y-2078990D01*
X-541800Y-2080900D01*
X-541470Y-2082800D01*
X-540990Y-2084070D01*
X-540030Y-2085340D01*
X-538900Y-2086190D01*
X-537780Y-2086610D01*
X-536650D01*
X-535520Y-2086190D01*
X-534560Y-2085550D01*
X-533750Y-2084710D01*
G01X-528360Y-2084070D02*
X-527400Y-2085550D01*
X-526110Y-2086400D01*
X-524660Y-2086610D01*
X-523380Y-2086400D01*
X-522090Y-2085340D01*
X-521290Y-2084070D01*
X-521130Y-2082800D01*
X-521450Y-2081320D01*
X-522570Y-2080260D01*
X-523700Y-2079840D01*
X-525150D01*
G01X-523700D02*
X-522730Y-2079200D01*
X-521930Y-2078140D01*
X-521610Y-2076870D01*
X-521930Y-2075600D01*
X-522730Y-2074550D01*
X-524180Y-2073910D01*
X-525630Y-2074120D01*
X-527080Y-2074970D01*
G01X-511680Y-2118360D02*
Y-2105660D01*
X-507660D01*
X-506370Y-2106300D01*
X-505570Y-2107140D01*
X-505250Y-2108840D01*
X-505570Y-2110530D01*
X-506530Y-2111590D01*
X-507660Y-2112220D01*
X-511680D01*
G01X-507660D02*
X-505250Y-2118360D01*
G01X-495520D02*
Y-2105660D01*
X-497450Y-2108200D01*
G01Y-2118360D02*
X-493590D01*
G01X-485300Y-2116880D02*
X-484170Y-2117940D01*
X-482890Y-2118360D01*
X-481600Y-2117940D01*
X-480470Y-2116670D01*
X-479670Y-2114760D01*
X-479350Y-2112860D01*
Y-2110530D01*
X-479670Y-2108620D01*
X-480470Y-2106930D01*
X-481440Y-2106080D01*
X-482570Y-2105660D01*
X-483850Y-2106080D01*
X-484820Y-2106930D01*
X-485460Y-2108200D01*
X-485780Y-2109890D01*
X-485460Y-2111370D01*
X-484660Y-2112860D01*
X-483690Y-2113700D01*
X-482570Y-2113920D01*
X-481280Y-2113490D01*
X-480310Y-2112430D01*
X-479350Y-2110530D01*
G01X-532700Y-1769860D02*
Y-1757160D01*
X-529490D01*
X-528200Y-1757800D01*
X-527230Y-1758640D01*
X-526430Y-1759910D01*
X-525790Y-1761390D01*
X-525630Y-1763510D01*
X-525790Y-1765630D01*
X-526430Y-1767110D01*
X-527230Y-1768380D01*
X-528200Y-1769230D01*
X-529490Y-1769860D01*
X-532700D01*
G01X-519750D02*
Y-1757160D01*
X-516540D01*
X-515250Y-1757800D01*
X-514280Y-1758640D01*
X-513480Y-1759910D01*
X-512840Y-1761390D01*
X-512680Y-1763510D01*
X-512840Y-1765630D01*
X-513480Y-1767110D01*
X-514280Y-1768380D01*
X-515250Y-1769230D01*
X-516540Y-1769860D01*
X-519750D01*
G01X-501330D02*
Y-1757160D01*
X-507290Y-1766260D01*
X-499240D01*
G01X-510020Y-1686030D02*
X-522720D01*
Y-1682010D01*
X-522080Y-1680720D01*
X-521240Y-1679920D01*
X-519540Y-1679600D01*
X-517850Y-1679920D01*
X-516790Y-1680880D01*
X-516160Y-1682010D01*
Y-1686030D01*
G01Y-1682010D02*
X-510020Y-1679600D01*
G01X-512560Y-1673400D02*
X-511080Y-1672440D01*
X-510230Y-1671150D01*
X-510020Y-1669700D01*
X-510230Y-1668420D01*
X-511290Y-1667130D01*
X-512560Y-1666330D01*
X-513830Y-1666170D01*
X-515310Y-1666490D01*
X-516370Y-1667610D01*
X-516790Y-1668740D01*
Y-1670190D01*
G01Y-1668740D02*
X-517430Y-1667770D01*
X-518490Y-1666970D01*
X-519760Y-1666650D01*
X-521030Y-1666970D01*
X-522080Y-1667770D01*
X-522720Y-1669220D01*
X-522510Y-1670670D01*
X-521660Y-1672120D01*
G01X-510020Y-1657240D02*
X-512770Y-1656920D01*
X-515100Y-1656430D01*
X-517220Y-1655790D01*
X-519540Y-1654980D01*
X-522720Y-1653700D01*
Y-1660130D01*
G01X-529070Y-1686030D02*
X-541770D01*
Y-1682010D01*
X-541130Y-1680720D01*
X-540290Y-1679920D01*
X-538590Y-1679600D01*
X-536900Y-1679920D01*
X-535840Y-1680880D01*
X-535210Y-1682010D01*
Y-1686030D01*
G01Y-1682010D02*
X-529070Y-1679600D01*
G01X-531610Y-1673400D02*
X-530130Y-1672440D01*
X-529280Y-1671150D01*
X-529070Y-1669700D01*
X-529280Y-1668420D01*
X-530340Y-1667130D01*
X-531610Y-1666330D01*
X-532880Y-1666170D01*
X-534360Y-1666490D01*
X-535420Y-1667610D01*
X-535840Y-1668740D01*
Y-1670190D01*
G01Y-1668740D02*
X-536480Y-1667770D01*
X-537540Y-1666970D01*
X-538810Y-1666650D01*
X-540080Y-1666970D01*
X-541130Y-1667770D01*
X-541770Y-1669220D01*
X-541560Y-1670670D01*
X-540710Y-1672120D01*
G01X-530970Y-1660450D02*
X-529920Y-1659490D01*
X-529280Y-1658360D01*
X-529070Y-1656920D01*
X-529490Y-1655470D01*
X-530340Y-1654340D01*
X-531820Y-1653540D01*
X-533510Y-1653380D01*
X-535210Y-1653700D01*
X-536270Y-1654500D01*
X-537110Y-1655630D01*
X-537320Y-1656750D01*
X-537110Y-1657880D01*
X-536270Y-1659330D01*
X-541770Y-1658850D01*
Y-1654500D01*
G01X-497670Y-1636880D02*
X-510370D01*
Y-1632860D01*
X-509730Y-1631570D01*
X-508890Y-1630770D01*
X-507190Y-1630450D01*
X-505500Y-1630770D01*
X-504440Y-1631730D01*
X-503810Y-1632860D01*
Y-1636880D01*
G01Y-1632860D02*
X-497670Y-1630450D01*
G01X-500210Y-1624250D02*
X-498730Y-1623290D01*
X-497880Y-1622000D01*
X-497670Y-1620550D01*
X-497880Y-1619270D01*
X-498940Y-1617980D01*
X-500210Y-1617180D01*
X-501480Y-1617020D01*
X-502960Y-1617340D01*
X-504020Y-1618460D01*
X-504440Y-1619590D01*
Y-1621040D01*
G01Y-1619590D02*
X-505080Y-1618620D01*
X-506140Y-1617820D01*
X-507410Y-1617500D01*
X-508680Y-1617820D01*
X-509730Y-1618620D01*
X-510370Y-1620070D01*
X-510160Y-1621520D01*
X-509310Y-1622970D01*
G01X-497670Y-1607770D02*
X-497880Y-1606640D01*
X-498520Y-1605350D01*
X-499570Y-1604550D01*
X-501060Y-1604230D01*
X-502540Y-1604550D01*
X-503810Y-1605510D01*
X-504440Y-1606960D01*
Y-1608570D01*
X-504870Y-1609530D01*
X-505920Y-1610340D01*
X-507410Y-1610660D01*
X-508890Y-1610180D01*
X-509950Y-1609050D01*
X-510370Y-1607770D01*
X-509950Y-1606480D01*
X-508890Y-1605350D01*
X-507410Y-1604870D01*
X-505920Y-1605190D01*
X-504870Y-1606000D01*
X-504440Y-1606960D01*
Y-1608570D01*
X-503810Y-1610020D01*
X-502540Y-1610980D01*
X-501060Y-1611300D01*
X-499570Y-1610980D01*
X-498520Y-1610180D01*
X-497880Y-1608890D01*
X-497670Y-1607770D01*
G01X-516720Y-1636880D02*
X-529420D01*
Y-1632860D01*
X-528780Y-1631570D01*
X-527940Y-1630770D01*
X-526240Y-1630450D01*
X-524550Y-1630770D01*
X-523490Y-1631730D01*
X-522860Y-1632860D01*
Y-1636880D01*
G01Y-1632860D02*
X-516720Y-1630450D01*
G01X-519260Y-1624250D02*
X-517780Y-1623290D01*
X-516930Y-1622000D01*
X-516720Y-1620550D01*
X-516930Y-1619270D01*
X-517990Y-1617980D01*
X-519260Y-1617180D01*
X-520530Y-1617020D01*
X-522010Y-1617340D01*
X-523070Y-1618460D01*
X-523490Y-1619590D01*
Y-1621040D01*
G01Y-1619590D02*
X-524130Y-1618620D01*
X-525190Y-1617820D01*
X-526460Y-1617500D01*
X-527730Y-1617820D01*
X-528780Y-1618620D01*
X-529420Y-1620070D01*
X-529210Y-1621520D01*
X-528360Y-1622970D01*
G01X-522010Y-1610820D02*
X-523490Y-1609700D01*
X-524340Y-1608730D01*
X-524760Y-1607440D01*
X-524340Y-1606320D01*
X-523490Y-1605510D01*
X-522220Y-1604870D01*
X-520740Y-1604710D01*
X-519470Y-1604870D01*
X-518200Y-1605510D01*
X-517140Y-1606480D01*
X-516720Y-1607600D01*
X-517140Y-1608890D01*
X-518410Y-1610020D01*
X-520320Y-1610660D01*
X-522430Y-1610820D01*
X-525190Y-1610500D01*
X-526670Y-1610020D01*
X-528150Y-1609210D01*
X-529210Y-1608090D01*
X-529420Y-1606960D01*
X-529000Y-1605830D01*
X-527940Y-1605030D01*
G01X-505670Y-678380D02*
X-518370D01*
Y-674360D01*
X-517730Y-673070D01*
X-516890Y-672270D01*
X-515190Y-671950D01*
X-513500Y-672270D01*
X-512440Y-673230D01*
X-511810Y-674360D01*
Y-678380D01*
G01Y-674360D02*
X-505670Y-671950D01*
G01X-516250Y-665270D02*
X-517520Y-664310D01*
X-518160Y-663180D01*
X-518370Y-661890D01*
X-517950Y-660280D01*
X-516890Y-659160D01*
X-515620Y-658840D01*
X-514350Y-659000D01*
X-513290Y-659640D01*
X-511170Y-662860D01*
X-509690Y-664310D01*
X-507570Y-665270D01*
X-505670Y-665590D01*
Y-658840D01*
G01X-507150Y-652000D02*
X-506090Y-650870D01*
X-505670Y-649590D01*
X-506090Y-648300D01*
X-507360Y-647170D01*
X-509270Y-646370D01*
X-511170Y-646050D01*
X-513500D01*
X-515410Y-646370D01*
X-517100Y-647170D01*
X-517950Y-648140D01*
X-518370Y-649270D01*
X-517950Y-650550D01*
X-517100Y-651520D01*
X-515830Y-652160D01*
X-514140Y-652480D01*
X-512660Y-652160D01*
X-511170Y-651360D01*
X-510330Y-650390D01*
X-510110Y-649270D01*
X-510540Y-647980D01*
X-511600Y-647010D01*
X-513500Y-646050D01*
G01X-510020Y-633230D02*
X-522720D01*
Y-629210D01*
X-522080Y-627920D01*
X-521240Y-627120D01*
X-519540Y-626800D01*
X-517850Y-627120D01*
X-516790Y-628080D01*
X-516160Y-629210D01*
Y-633230D01*
G01Y-629210D02*
X-510020Y-626800D01*
G01X-520600Y-620120D02*
X-521870Y-619160D01*
X-522510Y-618030D01*
X-522720Y-616740D01*
X-522300Y-615130D01*
X-521240Y-614010D01*
X-519970Y-613690D01*
X-518700Y-613850D01*
X-517640Y-614490D01*
X-515520Y-617710D01*
X-514040Y-619160D01*
X-511920Y-620120D01*
X-510020Y-620440D01*
Y-613690D01*
G01Y-604120D02*
X-510230Y-602990D01*
X-510870Y-601700D01*
X-511920Y-600900D01*
X-513410Y-600580D01*
X-514890Y-600900D01*
X-516160Y-601860D01*
X-516790Y-603310D01*
Y-604920D01*
X-517220Y-605880D01*
X-518270Y-606690D01*
X-519760Y-607010D01*
X-521240Y-606530D01*
X-522300Y-605400D01*
X-522720Y-604120D01*
X-522300Y-602830D01*
X-521240Y-601700D01*
X-519760Y-601220D01*
X-518270Y-601540D01*
X-517220Y-602350D01*
X-516790Y-603310D01*
Y-604920D01*
X-516160Y-606370D01*
X-514890Y-607330D01*
X-513410Y-607650D01*
X-511920Y-607330D01*
X-510870Y-606530D01*
X-510230Y-605240D01*
X-510020Y-604120D01*
G01X-524720Y-678380D02*
X-537420D01*
Y-674360D01*
X-536780Y-673070D01*
X-535940Y-672270D01*
X-534240Y-671950D01*
X-532550Y-672270D01*
X-531490Y-673230D01*
X-530860Y-674360D01*
Y-678380D01*
G01Y-674360D02*
X-524720Y-671950D01*
G01X-535300Y-665270D02*
X-536570Y-664310D01*
X-537210Y-663180D01*
X-537420Y-661890D01*
X-537000Y-660280D01*
X-535940Y-659160D01*
X-534670Y-658840D01*
X-533400Y-659000D01*
X-532340Y-659640D01*
X-530220Y-662860D01*
X-528740Y-664310D01*
X-526620Y-665270D01*
X-524720Y-665590D01*
Y-658840D01*
G01Y-649590D02*
X-527470Y-649270D01*
X-529800Y-648780D01*
X-531920Y-648140D01*
X-534240Y-647330D01*
X-537420Y-646050D01*
Y-652480D01*
G01X-473500Y-2153410D02*
Y-2140710D01*
X-470290D01*
X-469000Y-2141350D01*
X-468030Y-2142190D01*
X-467230Y-2143460D01*
X-466590Y-2144940D01*
X-466430Y-2147060D01*
X-466590Y-2149180D01*
X-467230Y-2150660D01*
X-468030Y-2151930D01*
X-469000Y-2152780D01*
X-470290Y-2153410D01*
X-473500D01*
G01X-461040D02*
X-457020Y-2140710D01*
X-452990Y-2153410D01*
G01X-454440Y-2148970D02*
X-459590D01*
G01X-444070Y-2153410D02*
Y-2140710D01*
X-446000Y-2143250D01*
G01Y-2153410D02*
X-442140D01*
G01X-487190Y-2001160D02*
X-483170Y-2013860D01*
X-479140Y-2001160D01*
G01X-473750Y-2013860D02*
Y-2001160D01*
X-470540D01*
X-469250Y-2001800D01*
X-468280Y-2002640D01*
X-467480Y-2003910D01*
X-466840Y-2005390D01*
X-466680Y-2007510D01*
X-466840Y-2009630D01*
X-467480Y-2011110D01*
X-468280Y-2012380D01*
X-469250Y-2013230D01*
X-470540Y-2013860D01*
X-473750D01*
G01X-460800Y-2011320D02*
X-459840Y-2012800D01*
X-458550Y-2013650D01*
X-457100Y-2013860D01*
X-455820Y-2013650D01*
X-454530Y-2012590D01*
X-453730Y-2011320D01*
X-453570Y-2010050D01*
X-453890Y-2008570D01*
X-455010Y-2007510D01*
X-456140Y-2007090D01*
X-457590D01*
G01X-456140D02*
X-455170Y-2006450D01*
X-454370Y-2005390D01*
X-454050Y-2004120D01*
X-454370Y-2002850D01*
X-455170Y-2001800D01*
X-456620Y-2001160D01*
X-458070Y-2001370D01*
X-459520Y-2002220D01*
G01X-435800Y-2010410D02*
Y-1997710D01*
G01X-429690D02*
X-435800Y-2005540D01*
G01X-428730Y-2010410D02*
X-433070Y-2001940D01*
G01X-419320Y-2010410D02*
Y-1997710D01*
X-421250Y-2000250D01*
G01Y-2010410D02*
X-417390D01*
G01X-409420Y-2005120D02*
X-408300Y-2003640D01*
X-407330Y-2002790D01*
X-406040Y-2002370D01*
X-404920Y-2002790D01*
X-404110Y-2003640D01*
X-403470Y-2004910D01*
X-403310Y-2006390D01*
X-403470Y-2007660D01*
X-404110Y-2008930D01*
X-405080Y-2009990D01*
X-406200Y-2010410D01*
X-407490Y-2009990D01*
X-408620Y-2008720D01*
X-409260Y-2006810D01*
X-409420Y-2004700D01*
X-409100Y-2001940D01*
X-408620Y-2000460D01*
X-407810Y-1998980D01*
X-406690Y-1997920D01*
X-405560Y-1997710D01*
X-404430Y-1998130D01*
X-403630Y-1999190D01*
G01X-435800Y-1908810D02*
Y-1896110D01*
G01X-429690D02*
X-435800Y-1903940D01*
G01X-428730Y-1908810D02*
X-433070Y-1900340D01*
G01X-419320Y-1908810D02*
Y-1896110D01*
X-421250Y-1898650D01*
G01Y-1908810D02*
X-417390D01*
G01X-409900Y-1906910D02*
X-408940Y-1907960D01*
X-407810Y-1908600D01*
X-406370Y-1908810D01*
X-404920Y-1908390D01*
X-403790Y-1907540D01*
X-402990Y-1906060D01*
X-402830Y-1904370D01*
X-403150Y-1902670D01*
X-403950Y-1901610D01*
X-405080Y-1900770D01*
X-406200Y-1900560D01*
X-407330Y-1900770D01*
X-408780Y-1901610D01*
X-408300Y-1896110D01*
X-403950D01*
G01X-435800Y-1807210D02*
Y-1794510D01*
G01X-429690D02*
X-435800Y-1802340D01*
G01X-428730Y-1807210D02*
X-433070Y-1798740D01*
G01X-419320Y-1807210D02*
Y-1794510D01*
X-421250Y-1797050D01*
G01Y-1807210D02*
X-417390D01*
G01X-404430D02*
Y-1794510D01*
X-410390Y-1803610D01*
X-402340D01*
G01X-435800Y-1705610D02*
Y-1692910D01*
G01X-429690D02*
X-435800Y-1700740D01*
G01X-428730Y-1705610D02*
X-433070Y-1697140D01*
G01X-419320Y-1705610D02*
Y-1692910D01*
X-421250Y-1695450D01*
G01Y-1705610D02*
X-417390D01*
G01X-409900Y-1703070D02*
X-408940Y-1704550D01*
X-407650Y-1705400D01*
X-406200Y-1705610D01*
X-404920Y-1705400D01*
X-403630Y-1704340D01*
X-402830Y-1703070D01*
X-402670Y-1701800D01*
X-402990Y-1700320D01*
X-404110Y-1699260D01*
X-405240Y-1698840D01*
X-406690D01*
G01X-405240D02*
X-404270Y-1698200D01*
X-403470Y-1697140D01*
X-403150Y-1695870D01*
X-403470Y-1694600D01*
X-404270Y-1693550D01*
X-405720Y-1692910D01*
X-407170Y-1693120D01*
X-408620Y-1693970D01*
G01X-435800Y-1604010D02*
Y-1591310D01*
G01X-429690D02*
X-435800Y-1599140D01*
G01X-428730Y-1604010D02*
X-433070Y-1595540D01*
G01X-419320Y-1604010D02*
Y-1591310D01*
X-421250Y-1593850D01*
G01Y-1604010D02*
X-417390D01*
G01X-409420Y-1593430D02*
X-408460Y-1592160D01*
X-407330Y-1591520D01*
X-406040Y-1591310D01*
X-404430Y-1591730D01*
X-403310Y-1592790D01*
X-402990Y-1594060D01*
X-403150Y-1595330D01*
X-403790Y-1596390D01*
X-407010Y-1598510D01*
X-408460Y-1599990D01*
X-409420Y-1602110D01*
X-409740Y-1604010D01*
X-402990D01*
G01X-435800Y-1502410D02*
Y-1489710D01*
G01X-429690D02*
X-435800Y-1497540D01*
G01X-428730Y-1502410D02*
X-433070Y-1493940D01*
G01X-419320Y-1502410D02*
Y-1489710D01*
X-421250Y-1492250D01*
G01Y-1502410D02*
X-417390D01*
G01X-406370D02*
Y-1489710D01*
X-408300Y-1492250D01*
G01Y-1502410D02*
X-404440D01*
G01X-435800Y-1400810D02*
Y-1388110D01*
G01X-429690D02*
X-435800Y-1395940D01*
G01X-428730Y-1400810D02*
X-433070Y-1392340D01*
G01X-419320Y-1400810D02*
Y-1388110D01*
X-421250Y-1390650D01*
G01Y-1400810D02*
X-417390D01*
G01X-406370Y-1388110D02*
X-407650Y-1388530D01*
X-408620Y-1389590D01*
X-409260Y-1390860D01*
X-409740Y-1392560D01*
X-409900Y-1394460D01*
X-409740Y-1396370D01*
X-409260Y-1398060D01*
X-408620Y-1399330D01*
X-407650Y-1400390D01*
X-406370Y-1400810D01*
X-405080Y-1400390D01*
X-404110Y-1399330D01*
X-403470Y-1398060D01*
X-402990Y-1396370D01*
X-402830Y-1394460D01*
X-402990Y-1392560D01*
X-403470Y-1390860D01*
X-404110Y-1389590D01*
X-405080Y-1388530D01*
X-406370Y-1388110D01*
G01X-490970Y-633230D02*
X-503670D01*
Y-629210D01*
X-503030Y-627920D01*
X-502190Y-627120D01*
X-500490Y-626800D01*
X-498800Y-627120D01*
X-497740Y-628080D01*
X-497110Y-629210D01*
Y-633230D01*
G01Y-629210D02*
X-490970Y-626800D01*
G01X-493510Y-620600D02*
X-492030Y-619640D01*
X-491180Y-618350D01*
X-490970Y-616900D01*
X-491180Y-615620D01*
X-492240Y-614330D01*
X-493510Y-613530D01*
X-494780Y-613370D01*
X-496260Y-613690D01*
X-497320Y-614810D01*
X-497740Y-615940D01*
Y-617390D01*
G01Y-615940D02*
X-498380Y-614970D01*
X-499440Y-614170D01*
X-500710Y-613850D01*
X-501980Y-614170D01*
X-503030Y-614970D01*
X-503670Y-616420D01*
X-503460Y-617870D01*
X-502610Y-619320D01*
G01X-503670Y-604120D02*
X-503250Y-605400D01*
X-502190Y-606370D01*
X-500920Y-607010D01*
X-499220Y-607490D01*
X-497320Y-607650D01*
X-495410Y-607490D01*
X-493720Y-607010D01*
X-492450Y-606370D01*
X-491390Y-605400D01*
X-490970Y-604120D01*
X-491390Y-602830D01*
X-492450Y-601860D01*
X-493720Y-601220D01*
X-495410Y-600740D01*
X-497320Y-600580D01*
X-499220Y-600740D01*
X-500920Y-601220D01*
X-502190Y-601860D01*
X-503250Y-602830D01*
X-503670Y-604120D01*
G01X-420210Y-1297860D02*
Y-1285160D01*
G01X-414100D02*
X-420210Y-1292990D01*
G01X-413140Y-1297860D02*
X-417480Y-1289390D01*
G01X-406460Y-1296380D02*
X-405330Y-1297440D01*
X-404050Y-1297860D01*
X-402760Y-1297440D01*
X-401630Y-1296170D01*
X-400830Y-1294260D01*
X-400510Y-1292360D01*
Y-1290030D01*
X-400830Y-1288120D01*
X-401630Y-1286430D01*
X-402600Y-1285580D01*
X-403730Y-1285160D01*
X-405010Y-1285580D01*
X-405980Y-1286430D01*
X-406620Y-1287700D01*
X-406940Y-1289390D01*
X-406620Y-1290870D01*
X-405820Y-1292360D01*
X-404850Y-1293200D01*
X-403730Y-1293420D01*
X-402440Y-1292990D01*
X-401470Y-1291930D01*
X-400510Y-1290030D01*
G01X-420210Y-935860D02*
Y-923160D01*
G01X-414100D02*
X-420210Y-930990D01*
G01X-413140Y-935860D02*
X-417480Y-927390D01*
G01X-403730Y-935860D02*
X-402600Y-935650D01*
X-401310Y-935010D01*
X-400510Y-933960D01*
X-400190Y-932470D01*
X-400510Y-930990D01*
X-401470Y-929720D01*
X-402920Y-929090D01*
X-404530D01*
X-405490Y-928660D01*
X-406300Y-927610D01*
X-406620Y-926120D01*
X-406140Y-924640D01*
X-405010Y-923580D01*
X-403730Y-923160D01*
X-402440Y-923580D01*
X-401310Y-924640D01*
X-400830Y-926120D01*
X-401150Y-927610D01*
X-401960Y-928660D01*
X-402920Y-929090D01*
X-404530D01*
X-405980Y-929720D01*
X-406940Y-930990D01*
X-407260Y-932470D01*
X-406940Y-933960D01*
X-406140Y-935010D01*
X-404850Y-935650D01*
X-403730Y-935860D01*
G01X-420210Y-831860D02*
Y-819160D01*
G01X-414100D02*
X-420210Y-826990D01*
G01X-413140Y-831860D02*
X-417480Y-823390D01*
G01X-404050Y-831860D02*
X-403730Y-829110D01*
X-403240Y-826780D01*
X-402600Y-824660D01*
X-401790Y-822340D01*
X-400510Y-819160D01*
X-406940D01*
G01X-420210Y-729860D02*
Y-717160D01*
G01X-414100D02*
X-420210Y-724990D01*
G01X-413140Y-729860D02*
X-417480Y-721390D01*
G01X-406780Y-724570D02*
X-405660Y-723090D01*
X-404690Y-722240D01*
X-403400Y-721820D01*
X-402280Y-722240D01*
X-401470Y-723090D01*
X-400830Y-724360D01*
X-400670Y-725840D01*
X-400830Y-727110D01*
X-401470Y-728380D01*
X-402440Y-729440D01*
X-403560Y-729860D01*
X-404850Y-729440D01*
X-405980Y-728170D01*
X-406620Y-726260D01*
X-406780Y-724150D01*
X-406460Y-721390D01*
X-405980Y-719910D01*
X-405170Y-718430D01*
X-404050Y-717370D01*
X-402920Y-717160D01*
X-401790Y-717580D01*
X-400990Y-718640D01*
G01X-420210Y-629860D02*
Y-617160D01*
G01X-414100D02*
X-420210Y-624990D01*
G01X-413140Y-629860D02*
X-417480Y-621390D01*
G01X-407260Y-627960D02*
X-406300Y-629010D01*
X-405170Y-629650D01*
X-403730Y-629860D01*
X-402280Y-629440D01*
X-401150Y-628590D01*
X-400350Y-627110D01*
X-400190Y-625420D01*
X-400510Y-623720D01*
X-401310Y-622660D01*
X-402440Y-621820D01*
X-403560Y-621610D01*
X-404690Y-621820D01*
X-406140Y-622660D01*
X-405660Y-617160D01*
X-401310D01*
G01X-418210Y-527860D02*
Y-515160D01*
G01X-412100D02*
X-418210Y-522990D01*
G01X-411140Y-527860D02*
X-415480Y-519390D01*
G01X-399790Y-527860D02*
Y-515160D01*
X-405750Y-524260D01*
X-397700D01*
G01X-420210Y-425860D02*
Y-413160D01*
G01X-414100D02*
X-420210Y-420990D01*
G01X-413140Y-425860D02*
X-417480Y-417390D01*
G01X-407260Y-423320D02*
X-406300Y-424800D01*
X-405010Y-425650D01*
X-403560Y-425860D01*
X-402280Y-425650D01*
X-400990Y-424590D01*
X-400190Y-423320D01*
X-400030Y-422050D01*
X-400350Y-420570D01*
X-401470Y-419510D01*
X-402600Y-419090D01*
X-404050D01*
G01X-402600D02*
X-401630Y-418450D01*
X-400830Y-417390D01*
X-400510Y-416120D01*
X-400830Y-414850D01*
X-401630Y-413800D01*
X-403080Y-413160D01*
X-404530Y-413370D01*
X-405980Y-414220D01*
G01X-420210Y-325860D02*
Y-313160D01*
G01X-414100D02*
X-420210Y-320990D01*
G01X-413140Y-325860D02*
X-417480Y-317390D01*
G01X-406780Y-315280D02*
X-405820Y-314010D01*
X-404690Y-313370D01*
X-403400Y-313160D01*
X-401790Y-313580D01*
X-400670Y-314640D01*
X-400350Y-315910D01*
X-400510Y-317180D01*
X-401150Y-318240D01*
X-404370Y-320360D01*
X-405820Y-321840D01*
X-406780Y-323960D01*
X-407100Y-325860D01*
X-400350D01*
G01X-418210Y-237860D02*
Y-225160D01*
G01X-412100D02*
X-418210Y-232990D01*
G01X-411140Y-237860D02*
X-415480Y-229390D01*
G01X-401730Y-237860D02*
Y-225160D01*
X-403660Y-227700D01*
G01Y-237860D02*
X-399800D01*
G01X-219650Y-1951160D02*
X-215630Y-1963860D01*
X-211600Y-1951160D01*
G01X-206210Y-1963860D02*
Y-1951160D01*
X-203000D01*
X-201710Y-1951800D01*
X-200740Y-1952640D01*
X-199940Y-1953910D01*
X-199300Y-1955390D01*
X-199140Y-1957510D01*
X-199300Y-1959630D01*
X-199940Y-1961110D01*
X-200740Y-1962380D01*
X-201710Y-1963230D01*
X-203000Y-1963860D01*
X-206210D01*
G01X-193260Y-1961320D02*
X-192300Y-1962800D01*
X-191010Y-1963650D01*
X-189560Y-1963860D01*
X-188280Y-1963650D01*
X-186990Y-1962590D01*
X-186190Y-1961320D01*
X-186030Y-1960050D01*
X-186350Y-1958570D01*
X-187470Y-1957510D01*
X-188600Y-1957090D01*
X-190050D01*
G01X-188600D02*
X-187630Y-1956450D01*
X-186830Y-1955390D01*
X-186510Y-1954120D01*
X-186830Y-1952850D01*
X-187630Y-1951800D01*
X-189080Y-1951160D01*
X-190530Y-1951370D01*
X-191980Y-1952220D01*
G01X-180310Y-1961320D02*
X-179350Y-1962800D01*
X-178060Y-1963650D01*
X-176610Y-1963860D01*
X-175330Y-1963650D01*
X-174040Y-1962590D01*
X-173240Y-1961320D01*
X-173080Y-1960050D01*
X-173400Y-1958570D01*
X-174520Y-1957510D01*
X-175650Y-1957090D01*
X-177100D01*
G01X-175650D02*
X-174680Y-1956450D01*
X-173880Y-1955390D01*
X-173560Y-1954120D01*
X-173880Y-1952850D01*
X-174680Y-1951800D01*
X-176130Y-1951160D01*
X-177580Y-1951370D01*
X-179030Y-1952220D01*
G01X-219650Y-1849160D02*
X-215630Y-1861860D01*
X-211600Y-1849160D01*
G01X-206210Y-1861860D02*
Y-1849160D01*
X-203000D01*
X-201710Y-1849800D01*
X-200740Y-1850640D01*
X-199940Y-1851910D01*
X-199300Y-1853390D01*
X-199140Y-1855510D01*
X-199300Y-1857630D01*
X-199940Y-1859110D01*
X-200740Y-1860380D01*
X-201710Y-1861230D01*
X-203000Y-1861860D01*
X-206210D01*
G01X-193260Y-1859320D02*
X-192300Y-1860800D01*
X-191010Y-1861650D01*
X-189560Y-1861860D01*
X-188280Y-1861650D01*
X-186990Y-1860590D01*
X-186190Y-1859320D01*
X-186030Y-1858050D01*
X-186350Y-1856570D01*
X-187470Y-1855510D01*
X-188600Y-1855090D01*
X-190050D01*
G01X-188600D02*
X-187630Y-1854450D01*
X-186830Y-1853390D01*
X-186510Y-1852120D01*
X-186830Y-1850850D01*
X-187630Y-1849800D01*
X-189080Y-1849160D01*
X-190530Y-1849370D01*
X-191980Y-1850220D01*
G01X-176780Y-1861860D02*
Y-1849160D01*
X-178710Y-1851700D01*
G01Y-1861860D02*
X-174850D01*
G01X-219650Y-1747160D02*
X-215630Y-1759860D01*
X-211600Y-1747160D01*
G01X-206210Y-1759860D02*
Y-1747160D01*
X-203000D01*
X-201710Y-1747800D01*
X-200740Y-1748640D01*
X-199940Y-1749910D01*
X-199300Y-1751390D01*
X-199140Y-1753510D01*
X-199300Y-1755630D01*
X-199940Y-1757110D01*
X-200740Y-1758380D01*
X-201710Y-1759230D01*
X-203000Y-1759860D01*
X-206210D01*
G01X-192780Y-1749280D02*
X-191820Y-1748010D01*
X-190690Y-1747370D01*
X-189400Y-1747160D01*
X-187790Y-1747580D01*
X-186670Y-1748640D01*
X-186350Y-1749910D01*
X-186510Y-1751180D01*
X-187150Y-1752240D01*
X-190370Y-1754360D01*
X-191820Y-1755840D01*
X-192780Y-1757960D01*
X-193100Y-1759860D01*
X-186350D01*
G01X-179510Y-1758380D02*
X-178380Y-1759440D01*
X-177100Y-1759860D01*
X-175810Y-1759440D01*
X-174680Y-1758170D01*
X-173880Y-1756260D01*
X-173560Y-1754360D01*
Y-1752030D01*
X-173880Y-1750120D01*
X-174680Y-1748430D01*
X-175650Y-1747580D01*
X-176780Y-1747160D01*
X-178060Y-1747580D01*
X-179030Y-1748430D01*
X-179670Y-1749700D01*
X-179990Y-1751390D01*
X-179670Y-1752870D01*
X-178870Y-1754360D01*
X-177900Y-1755200D01*
X-176780Y-1755420D01*
X-175490Y-1754990D01*
X-174520Y-1753930D01*
X-173560Y-1752030D01*
G01X-219650Y-1647160D02*
X-215630Y-1659860D01*
X-211600Y-1647160D01*
G01X-206210Y-1659860D02*
Y-1647160D01*
X-203000D01*
X-201710Y-1647800D01*
X-200740Y-1648640D01*
X-199940Y-1649910D01*
X-199300Y-1651390D01*
X-199140Y-1653510D01*
X-199300Y-1655630D01*
X-199940Y-1657110D01*
X-200740Y-1658380D01*
X-201710Y-1659230D01*
X-203000Y-1659860D01*
X-206210D01*
G01X-192780Y-1649280D02*
X-191820Y-1648010D01*
X-190690Y-1647370D01*
X-189400Y-1647160D01*
X-187790Y-1647580D01*
X-186670Y-1648640D01*
X-186350Y-1649910D01*
X-186510Y-1651180D01*
X-187150Y-1652240D01*
X-190370Y-1654360D01*
X-191820Y-1655840D01*
X-192780Y-1657960D01*
X-193100Y-1659860D01*
X-186350D01*
G01X-177100D02*
X-176780Y-1657110D01*
X-176290Y-1654780D01*
X-175650Y-1652660D01*
X-174840Y-1650340D01*
X-173560Y-1647160D01*
X-179990D01*
G01X-221650Y-1545160D02*
X-217630Y-1557860D01*
X-213600Y-1545160D01*
G01X-208210Y-1557860D02*
Y-1545160D01*
X-205000D01*
X-203710Y-1545800D01*
X-202740Y-1546640D01*
X-201940Y-1547910D01*
X-201300Y-1549390D01*
X-201140Y-1551510D01*
X-201300Y-1553630D01*
X-201940Y-1555110D01*
X-202740Y-1556380D01*
X-203710Y-1557230D01*
X-205000Y-1557860D01*
X-208210D01*
G01X-194780Y-1547280D02*
X-193820Y-1546010D01*
X-192690Y-1545370D01*
X-191400Y-1545160D01*
X-189790Y-1545580D01*
X-188670Y-1546640D01*
X-188350Y-1547910D01*
X-188510Y-1549180D01*
X-189150Y-1550240D01*
X-192370Y-1552360D01*
X-193820Y-1553840D01*
X-194780Y-1555960D01*
X-195100Y-1557860D01*
X-188350D01*
G01X-182310Y-1555960D02*
X-181350Y-1557010D01*
X-180220Y-1557650D01*
X-178780Y-1557860D01*
X-177330Y-1557440D01*
X-176200Y-1556590D01*
X-175400Y-1555110D01*
X-175240Y-1553420D01*
X-175560Y-1551720D01*
X-176360Y-1550660D01*
X-177490Y-1549820D01*
X-178610Y-1549610D01*
X-179740Y-1549820D01*
X-181190Y-1550660D01*
X-180710Y-1545160D01*
X-176360D01*
G01X-221650Y-1443160D02*
X-217630Y-1455860D01*
X-213600Y-1443160D01*
G01X-208210Y-1455860D02*
Y-1443160D01*
X-205000D01*
X-203710Y-1443800D01*
X-202740Y-1444640D01*
X-201940Y-1445910D01*
X-201300Y-1447390D01*
X-201140Y-1449510D01*
X-201300Y-1451630D01*
X-201940Y-1453110D01*
X-202740Y-1454380D01*
X-203710Y-1455230D01*
X-205000Y-1455860D01*
X-208210D01*
G01X-194780Y-1445280D02*
X-193820Y-1444010D01*
X-192690Y-1443370D01*
X-191400Y-1443160D01*
X-189790Y-1443580D01*
X-188670Y-1444640D01*
X-188350Y-1445910D01*
X-188510Y-1447180D01*
X-189150Y-1448240D01*
X-192370Y-1450360D01*
X-193820Y-1451840D01*
X-194780Y-1453960D01*
X-195100Y-1455860D01*
X-188350D01*
G01X-182310Y-1453320D02*
X-181350Y-1454800D01*
X-180060Y-1455650D01*
X-178610Y-1455860D01*
X-177330Y-1455650D01*
X-176040Y-1454590D01*
X-175240Y-1453320D01*
X-175080Y-1452050D01*
X-175400Y-1450570D01*
X-176520Y-1449510D01*
X-177650Y-1449090D01*
X-179100D01*
G01X-177650D02*
X-176680Y-1448450D01*
X-175880Y-1447390D01*
X-175560Y-1446120D01*
X-175880Y-1444850D01*
X-176680Y-1443800D01*
X-178130Y-1443160D01*
X-179580Y-1443370D01*
X-181030Y-1444220D01*
G01X-219650Y-1341160D02*
X-215630Y-1353860D01*
X-211600Y-1341160D01*
G01X-206210Y-1353860D02*
Y-1341160D01*
X-203000D01*
X-201710Y-1341800D01*
X-200740Y-1342640D01*
X-199940Y-1343910D01*
X-199300Y-1345390D01*
X-199140Y-1347510D01*
X-199300Y-1349630D01*
X-199940Y-1351110D01*
X-200740Y-1352380D01*
X-201710Y-1353230D01*
X-203000Y-1353860D01*
X-206210D01*
G01X-192780Y-1343280D02*
X-191820Y-1342010D01*
X-190690Y-1341370D01*
X-189400Y-1341160D01*
X-187790Y-1341580D01*
X-186670Y-1342640D01*
X-186350Y-1343910D01*
X-186510Y-1345180D01*
X-187150Y-1346240D01*
X-190370Y-1348360D01*
X-191820Y-1349840D01*
X-192780Y-1351960D01*
X-193100Y-1353860D01*
X-186350D01*
G01X-176780D02*
Y-1341160D01*
X-178710Y-1343700D01*
G01Y-1353860D02*
X-174850D01*
G01X-219650Y-1239160D02*
X-215630Y-1251860D01*
X-211600Y-1239160D01*
G01X-206210Y-1251860D02*
Y-1239160D01*
X-203000D01*
X-201710Y-1239800D01*
X-200740Y-1240640D01*
X-199940Y-1241910D01*
X-199300Y-1243390D01*
X-199140Y-1245510D01*
X-199300Y-1247630D01*
X-199940Y-1249110D01*
X-200740Y-1250380D01*
X-201710Y-1251230D01*
X-203000Y-1251860D01*
X-206210D01*
G01X-189730D02*
Y-1239160D01*
X-191660Y-1241700D01*
G01Y-1251860D02*
X-187800D01*
G01X-179510Y-1250380D02*
X-178380Y-1251440D01*
X-177100Y-1251860D01*
X-175810Y-1251440D01*
X-174680Y-1250170D01*
X-173880Y-1248260D01*
X-173560Y-1246360D01*
Y-1244030D01*
X-173880Y-1242120D01*
X-174680Y-1240430D01*
X-175650Y-1239580D01*
X-176780Y-1239160D01*
X-178060Y-1239580D01*
X-179030Y-1240430D01*
X-179670Y-1241700D01*
X-179990Y-1243390D01*
X-179670Y-1244870D01*
X-178870Y-1246360D01*
X-177900Y-1247200D01*
X-176780Y-1247420D01*
X-175490Y-1246990D01*
X-174520Y-1245930D01*
X-173560Y-1244030D01*
G01X-219650Y-875160D02*
X-215630Y-887860D01*
X-211600Y-875160D01*
G01X-206210Y-887860D02*
Y-875160D01*
X-203000D01*
X-201710Y-875800D01*
X-200740Y-876640D01*
X-199940Y-877910D01*
X-199300Y-879390D01*
X-199140Y-881510D01*
X-199300Y-883630D01*
X-199940Y-885110D01*
X-200740Y-886380D01*
X-201710Y-887230D01*
X-203000Y-887860D01*
X-206210D01*
G01X-189730D02*
Y-875160D01*
X-191660Y-877700D01*
G01Y-887860D02*
X-187800D01*
G01X-177100D02*
X-176780Y-885110D01*
X-176290Y-882780D01*
X-175650Y-880660D01*
X-174840Y-878340D01*
X-173560Y-875160D01*
X-179990D01*
G01X-219650Y-775160D02*
X-215630Y-787860D01*
X-211600Y-775160D01*
G01X-206210Y-787860D02*
Y-775160D01*
X-203000D01*
X-201710Y-775800D01*
X-200740Y-776640D01*
X-199940Y-777910D01*
X-199300Y-779390D01*
X-199140Y-781510D01*
X-199300Y-783630D01*
X-199940Y-785110D01*
X-200740Y-786380D01*
X-201710Y-787230D01*
X-203000Y-787860D01*
X-206210D01*
G01X-189730D02*
Y-775160D01*
X-191660Y-777700D01*
G01Y-787860D02*
X-187800D01*
G01X-180310Y-785960D02*
X-179350Y-787010D01*
X-178220Y-787650D01*
X-176780Y-787860D01*
X-175330Y-787440D01*
X-174200Y-786590D01*
X-173400Y-785110D01*
X-173240Y-783420D01*
X-173560Y-781720D01*
X-174360Y-780660D01*
X-175490Y-779820D01*
X-176610Y-779610D01*
X-177740Y-779820D01*
X-179190Y-780660D01*
X-178710Y-775160D01*
X-174360D01*
G01X-219650Y-673160D02*
X-215630Y-685860D01*
X-211600Y-673160D01*
G01X-206210Y-685860D02*
Y-673160D01*
X-203000D01*
X-201710Y-673800D01*
X-200740Y-674640D01*
X-199940Y-675910D01*
X-199300Y-677390D01*
X-199140Y-679510D01*
X-199300Y-681630D01*
X-199940Y-683110D01*
X-200740Y-684380D01*
X-201710Y-685230D01*
X-203000Y-685860D01*
X-206210D01*
G01X-189730D02*
Y-673160D01*
X-191660Y-675700D01*
G01Y-685860D02*
X-187800D01*
G01X-180310Y-683320D02*
X-179350Y-684800D01*
X-178060Y-685650D01*
X-176610Y-685860D01*
X-175330Y-685650D01*
X-174040Y-684590D01*
X-173240Y-683320D01*
X-173080Y-682050D01*
X-173400Y-680570D01*
X-174520Y-679510D01*
X-175650Y-679090D01*
X-177100D01*
G01X-175650D02*
X-174680Y-678450D01*
X-173880Y-677390D01*
X-173560Y-676120D01*
X-173880Y-674850D01*
X-174680Y-673800D01*
X-176130Y-673160D01*
X-177580Y-673370D01*
X-179030Y-674220D01*
G01X-219650Y-573160D02*
X-215630Y-585860D01*
X-211600Y-573160D01*
G01X-206210Y-585860D02*
Y-573160D01*
X-203000D01*
X-201710Y-573800D01*
X-200740Y-574640D01*
X-199940Y-575910D01*
X-199300Y-577390D01*
X-199140Y-579510D01*
X-199300Y-581630D01*
X-199940Y-583110D01*
X-200740Y-584380D01*
X-201710Y-585230D01*
X-203000Y-585860D01*
X-206210D01*
G01X-189730D02*
Y-573160D01*
X-191660Y-575700D01*
G01Y-585860D02*
X-187800D01*
G01X-176780D02*
Y-573160D01*
X-178710Y-575700D01*
G01Y-585860D02*
X-174850D01*
G01X-213190Y-471160D02*
X-209170Y-483860D01*
X-205140Y-471160D01*
G01X-199750Y-483860D02*
Y-471160D01*
X-196540D01*
X-195250Y-471800D01*
X-194280Y-472640D01*
X-193480Y-473910D01*
X-192840Y-475390D01*
X-192680Y-477510D01*
X-192840Y-479630D01*
X-193480Y-481110D01*
X-194280Y-482380D01*
X-195250Y-483230D01*
X-196540Y-483860D01*
X-199750D01*
G01X-186000Y-482380D02*
X-184870Y-483440D01*
X-183590Y-483860D01*
X-182300Y-483440D01*
X-181170Y-482170D01*
X-180370Y-480260D01*
X-180050Y-478360D01*
Y-476030D01*
X-180370Y-474120D01*
X-181170Y-472430D01*
X-182140Y-471580D01*
X-183270Y-471160D01*
X-184550Y-471580D01*
X-185520Y-472430D01*
X-186160Y-473700D01*
X-186480Y-475390D01*
X-186160Y-476870D01*
X-185360Y-478360D01*
X-184390Y-479200D01*
X-183270Y-479420D01*
X-181980Y-478990D01*
X-181010Y-477930D01*
X-180050Y-476030D01*
G01X-213190Y-371160D02*
X-209170Y-383860D01*
X-205140Y-371160D01*
G01X-199750Y-383860D02*
Y-371160D01*
X-196540D01*
X-195250Y-371800D01*
X-194280Y-372640D01*
X-193480Y-373910D01*
X-192840Y-375390D01*
X-192680Y-377510D01*
X-192840Y-379630D01*
X-193480Y-381110D01*
X-194280Y-382380D01*
X-195250Y-383230D01*
X-196540Y-383860D01*
X-199750D01*
G01X-183590D02*
X-183270Y-381110D01*
X-182780Y-378780D01*
X-182140Y-376660D01*
X-181330Y-374340D01*
X-180050Y-371160D01*
X-186480D01*
G01X-213190Y-267160D02*
X-209170Y-279860D01*
X-205140Y-267160D01*
G01X-199750Y-279860D02*
Y-267160D01*
X-196540D01*
X-195250Y-267800D01*
X-194280Y-268640D01*
X-193480Y-269910D01*
X-192840Y-271390D01*
X-192680Y-273510D01*
X-192840Y-275630D01*
X-193480Y-277110D01*
X-194280Y-278380D01*
X-195250Y-279230D01*
X-196540Y-279860D01*
X-199750D01*
G01X-186800Y-277960D02*
X-185840Y-279010D01*
X-184710Y-279650D01*
X-183270Y-279860D01*
X-181820Y-279440D01*
X-180690Y-278590D01*
X-179890Y-277110D01*
X-179730Y-275420D01*
X-180050Y-273720D01*
X-180850Y-272660D01*
X-181980Y-271820D01*
X-183100Y-271610D01*
X-184230Y-271820D01*
X-185680Y-272660D01*
X-185200Y-267160D01*
X-180850D01*
G01X-213190Y-165160D02*
X-209170Y-177860D01*
X-205140Y-165160D01*
G01X-199750Y-177860D02*
Y-165160D01*
X-196540D01*
X-195250Y-165800D01*
X-194280Y-166640D01*
X-193480Y-167910D01*
X-192840Y-169390D01*
X-192680Y-171510D01*
X-192840Y-173630D01*
X-193480Y-175110D01*
X-194280Y-176380D01*
X-195250Y-177230D01*
X-196540Y-177860D01*
X-199750D01*
G01X-186320Y-167280D02*
X-185360Y-166010D01*
X-184230Y-165370D01*
X-182940Y-165160D01*
X-181330Y-165580D01*
X-180210Y-166640D01*
X-179890Y-167910D01*
X-180050Y-169180D01*
X-180690Y-170240D01*
X-183910Y-172360D01*
X-185360Y-173840D01*
X-186320Y-175960D01*
X-186640Y-177860D01*
X-179890D01*
G01X-142050Y-1217860D02*
X-135300Y-1205160D01*
G01X-142050D02*
X-135300Y-1217860D01*
G01X-129260Y-1215960D02*
X-128300Y-1217010D01*
X-127170Y-1217650D01*
X-125730Y-1217860D01*
X-124280Y-1217440D01*
X-123150Y-1216590D01*
X-122350Y-1215110D01*
X-122190Y-1213420D01*
X-122510Y-1211720D01*
X-123310Y-1210660D01*
X-124440Y-1209820D01*
X-125560Y-1209610D01*
X-126690Y-1209820D01*
X-128140Y-1210660D01*
X-127660Y-1205160D01*
X-123310D01*
G01X-142050Y-143860D02*
X-135300Y-131160D01*
G01X-142050D02*
X-135300Y-143860D01*
G01X-129260Y-141320D02*
X-128300Y-142800D01*
X-127010Y-143650D01*
X-125560Y-143860D01*
X-124280Y-143650D01*
X-122990Y-142590D01*
X-122190Y-141320D01*
X-122030Y-140050D01*
X-122350Y-138570D01*
X-123470Y-137510D01*
X-124600Y-137090D01*
X-126050D01*
G01X-124600D02*
X-123630Y-136450D01*
X-122830Y-135390D01*
X-122510Y-134120D01*
X-122830Y-132850D01*
X-123630Y-131800D01*
X-125080Y-131160D01*
X-126530Y-131370D01*
X-127980Y-132220D01*
G01X-92050Y-1217860D02*
X-85300Y-1205160D01*
G01X-92050D02*
X-85300Y-1217860D01*
G01X-73790D02*
Y-1205160D01*
X-79750Y-1214260D01*
X-71700D01*
G01X-92050Y-143860D02*
X-85300Y-131160D01*
G01X-92050D02*
X-85300Y-143860D01*
G01X-78780Y-133280D02*
X-77820Y-132010D01*
X-76690Y-131370D01*
X-75400Y-131160D01*
X-73790Y-131580D01*
X-72670Y-132640D01*
X-72350Y-133910D01*
X-72510Y-135180D01*
X-73150Y-136240D01*
X-76370Y-138360D01*
X-77820Y-139840D01*
X-78780Y-141960D01*
X-79100Y-143860D01*
X-72350D01*
G54D13*
G01X-734200Y-2097210D02*
G03I-1250J0D01*
G01X-746850Y-1970910D02*
G03I-1250J0D01*
G01X-709800Y-1517060D02*
G03X-711050Y-1515810I-1250J0D01*
G01D02*
G03X-712300Y-1517060I0J-1250D01*
G01D02*
G03X-711050Y-1518310I1250J0D01*
G01D02*
G03X-709800Y-1517060I0J1250D01*
G01Y-1453560D02*
G03X-711050Y-1452310I-1250J0D01*
G01D02*
G03X-712300Y-1453560I0J-1250D01*
G01D02*
G03X-711050Y-1454810I1250J0D01*
G01D02*
G03X-709800Y-1453560I0J1250D01*
G01X-703450Y-507410D02*
G03X-704700Y-506160I-1250J0D01*
G01D02*
G03X-705950Y-507410I0J-1250D01*
G01D02*
G03X-704700Y-508660I1250J0D01*
G01D02*
G03X-703450Y-507410I0J1250D01*
G01Y-443910D02*
G03X-704700Y-442660I-1250J0D01*
G01D02*
G03X-705950Y-443910I0J-1250D01*
G01D02*
G03X-704700Y-445160I1250J0D01*
G01D02*
G03X-703450Y-443910I0J1250D01*
G01X-647800Y-1462460D02*
G03X-649050Y-1461210I-1250J0D01*
G01D02*
G03X-650300Y-1462460I0J-1250D01*
G01D02*
G03X-649050Y-1463710I1250J0D01*
G01D02*
G03X-647800Y-1462460I0J1250D01*
G01X-585950Y-1147050D02*
Y-1177050D01*
X-645950D01*
Y-1147050D01*
X-585950D01*
G01X-641450Y-452810D02*
G03X-642700Y-451560I-1250J0D01*
G01D02*
G03X-643950Y-452810I0J-1250D01*
G01D02*
G03X-642700Y-454060I1250J0D01*
G01D02*
G03X-641450Y-452810I0J1250D01*
G01X-536850Y-1710810D02*
G03I-1250J0D01*
G01X-530500Y-701160D02*
G03I-1250J0D01*
G01X-494900Y-2159160D02*
G03X-496150Y-2157910I-1250J0D01*
G01D02*
G03X-497400Y-2159160I0J-1250D01*
G01D02*
G03X-496150Y-2160410I1250J0D01*
G01D02*
G03X-494900Y-2159160I0J1250D01*
G01X-470100Y-2102960D02*
Y-2086960D01*
G01X-462100Y-2094960D02*
X-478100D01*
G01X-385600Y-2048560D02*
G03I-1250J0D01*
G01Y-1946960D02*
G03I-1250J0D01*
G01Y-1845360D02*
G03I-1250J0D01*
G01Y-1743760D02*
G03I-1250J0D01*
G01Y-1642160D02*
G03I-1250J0D01*
G01Y-1540560D02*
G03I-1250J0D01*
G01Y-1438960D02*
G03I-1250J0D01*
G01Y-1337360D02*
G03I-1250J0D01*
G01Y-975410D02*
G03I-1250J0D01*
G01Y-873810D02*
G03I-1250J0D01*
G01Y-772210D02*
G03I-1250J0D01*
G01Y-670610D02*
G03I-1250J0D01*
G01Y-569010D02*
G03I-1250J0D01*
G01Y-467410D02*
G03I-1250J0D01*
G01Y-365810D02*
G03I-1250J0D01*
G01Y-264210D02*
G03I-1250J0D01*
G01X-161280Y-2029150D02*
G03I-1250J0D01*
G01X-132300Y-1242060D02*
G03I-1250J0D01*
G01X-161140Y-955430D02*
G03I-1250J0D01*
G01X-132300Y-168910D02*
G03I-1250J0D01*
G01X-81500Y-1242060D02*
G03I-1250J0D01*
G01Y-168910D02*
G03I-1250J0D01*
M02*
