G04 ================== begin FILE IDENTIFICATION RECORD ==================*
G04 Layout Name:  d:/Project/Circuit/ORCAD/KPRM/02v2/pcb/KPRM_02v2.brd*
G04 Film Name:    TOP*
G04 File Format:  Gerber RS274X*
G04 File Origin:  Cadence Allegro 16.6-S019*
G04 Origin Date:  Thu Dec 19 17:20:45 2013*
G04 *
G04 Layer:  ETCH/TOP*
G04 Layer:  PIN/TOP*
G04 Layer:  VIA CLASS/TOP*
G04 *
G04 Offset:    (0.000 0.000)*
G04 Mirror:    No*
G04 Mode:      Positive*
G04 Rotation:  0*
G04 FullContactRelief:  No*
G04 UndefLineWidth:     0.250*
G04 ================== end FILE IDENTIFICATION RECORD ====================*
%FSLAX34Y34*MOMM*%
%IR0*IPPOS*OFA0.00000B0.00000*MIA0B0*SFA1.00000B1.00000*%
%ADD23R,.6X2.*%
%ADD24R,2.X.6*%
%ADD11C,1.*%
%ADD10C,4.*%
%ADD30C,2.5*%
%ADD25C,1.6*%
%ADD17R,1.55X.6*%
%ADD13C,1.55*%
%ADD29R,2.05X2.05*%
%ADD21R,1.15X1.15*%
%ADD28R,1.9X.95*%
%ADD12R,1.55X1.55*%
%ADD20R,1.1X1.4*%
%ADD16R,1.4X1.1*%
%ADD14R,2.7X1.1*%
%ADD19O,2.X1.75*%
%ADD22R,1.15X1.05*%
%ADD18R,1.X1.75*%
%ADD31R,2.5X2.5*%
%ADD27R,1.9X3.2*%
%ADD15R,1.75X1.*%
%ADD32C,.2*%
%ADD26R,1.25X1.8*%
%ADD33C,.4*%
%ADD34C,.5*%
%ADD35C,.6*%
%ADD36C,.25*%
%ADD37C,.8*%
%ADD38C,.453*%
%ADD39C,3.404*%
G75*
%LPD*%
G75*
G36*
G01X-959050Y-2251710D02*
G02X-978100Y-2232660I0J19050D01*
G01Y8890D01*
G02X-959050Y27940I19050J0D01*
G01X-400250D01*
G02X-381200Y8890I0J-19050D01*
G01Y-178450D01*
X-382180Y-179580D01*
X-382930Y-179680D01*
G03X-393350Y-186370I2034J-14628D01*
G02X-395040Y-187290I-1684J1081D01*
G01X-403970D01*
G03X-413420Y-191210I7J-13368D01*
G01X-428750Y-206540D01*
G03X-432670Y-215990I9448J-9457D01*
G01Y-340720D01*
G02X-433260Y-342140I-1999J-2D01*
G01X-541520Y-450400D01*
G02X-542940Y-450990I-1418J1409D01*
G01X-557220D01*
G03X-559220Y-452990I0J-2000D01*
G01Y-457880D01*
G02X-559810Y-459300I-1999J-2D01*
G01X-606020Y-505520D01*
G03X-609720Y-514440I8918J-8927D01*
G01Y-559180D01*
G02X-610310Y-560600I-1999J-2D01*
G01X-618500Y-568790D01*
G02X-620680Y-569220I-1412J1415D01*
G01X-621240Y-568990D01*
X-621910Y-567990D01*
Y-561930D01*
G02X-619910Y-559930I2000J0D01*
G01X-619350D01*
X-618180Y-558760D01*
Y-452990D01*
G03X-620180Y-450990I-2000J0D01*
G01X-649470D01*
G02X-650520Y-450690I3J1999D01*
G03X-652630Y-449660I-6347J-10326D01*
G01X-653220Y-449440D01*
X-653930Y-448410D01*
Y-443890D01*
G03X-655930Y-441890I-2000J0D01*
G01X-677470D01*
G03X-679470Y-443890I0J-2000D01*
G01Y-568030D01*
G03X-677470Y-570030I2000J0D01*
G01X-655930D01*
G03X-653930Y-568030I0J2000D01*
G01Y-563130D01*
X-653300Y-562150D01*
X-652770Y-561900D01*
G03X-650300Y-560370I-5102J10995D01*
G02X-649050Y-559930I1251J-1559D01*
G01X-648490D01*
Y-566900D01*
G03X-646490Y-568900I2000J0D01*
G01X-623430D01*
G02X-621590Y-570130I-5J-1999D01*
G01X-621350Y-570700D01*
X-621580Y-571880D01*
X-631420Y-581720D01*
G03X-635120Y-590640I8918J-8927D01*
G01Y-632890D01*
G02X-637120Y-634890I-2000J0D01*
G01X-642620D01*
G03X-644620Y-636890I0J-2000D01*
G01Y-656930D01*
G03X-642620Y-658930I2000J0D01*
G01X-624420D01*
G02X-622420Y-660930I0J-2000D01*
G01Y-662890D01*
G02X-624420Y-664890I-2000J0D01*
G01X-642620D01*
G03X-644620Y-666890I0J-2000D01*
G01Y-686930D01*
G03X-642620Y-688930I2000J0D01*
G01X-640870D01*
G02X-638870Y-690930I0J-2000D01*
G01Y-693370D01*
G02X-640870Y-695370I-2000J0D01*
G01X-645840D01*
G03X-647840Y-697370I0J-2000D01*
G01Y-719950D01*
G03X-645840Y-721950I2000J0D01*
G01X-640870D01*
G02X-638870Y-723950I0J-2000D01*
G01Y-724510D01*
X-637700Y-725680D01*
X-531930D01*
G03X-529930Y-723680I0J2000D01*
G01Y-693640D01*
G03X-531930Y-691640I-2000J0D01*
G01X-532510D01*
X-533680Y-690470D01*
Y-640130D01*
G02X-531680Y-638130I2000J0D01*
G01X-526180D01*
G03X-524180Y-636130I0J2000D01*
G01Y-616090D01*
G03X-526180Y-614090I-2000J0D01*
G01X-544380D01*
G02X-546380Y-612090I0J2000D01*
G01Y-610130D01*
G02X-544380Y-608130I2000J0D01*
G01X-526180D01*
G03X-524180Y-606130I0J2000D01*
G01Y-586090D01*
G03X-526180Y-584090I-2000J0D01*
G01X-534430D01*
G02X-536060Y-583260I-7J2001D01*
G03X-537380Y-581710I-10235J-7379D01*
G01X-543040Y-576040D01*
G02X-543470Y-573860I1415J1412D01*
G01X-543240Y-573300D01*
X-542240Y-572630D01*
X-526180D01*
X-525770Y-572220D01*
G02X-524350Y-571630I1418J-1410D01*
G01X-506410D01*
G02X-505000Y-572220I-8J-1999D01*
G01X-467010Y-610210D01*
G02X-466420Y-611620I-1409J-1418D01*
G01Y-877180D01*
G03X-461920Y-888050I15371J-3D01*
G01X-396260Y-953710D01*
G02X-395670Y-955120I-1409J-1418D01*
G01Y-969080D01*
G03X-393670Y-971080I2000J0D01*
G01X-383200D01*
G02X-381200Y-973080I0J-2000D01*
G01Y-1251600D01*
X-382180Y-1252730D01*
X-382930Y-1252830D01*
G03X-395320Y-1270650I2031J-14629D01*
G01X-395210Y-1271150D01*
X-395500Y-1272130D01*
X-416050Y-1292690D01*
G03X-419970Y-1302140I9448J-9457D01*
G01Y-1331320D01*
G02X-420560Y-1332740I-1999J-2D01*
G01X-547870Y-1460050D01*
G02X-549290Y-1460640I-1418J1409D01*
G01X-563570D01*
G03X-565570Y-1462640I0J-2000D01*
G01Y-1467530D01*
G02X-566160Y-1468950I-1999J-2D01*
G01X-612370Y-1515170D01*
G03X-616070Y-1524090I8918J-8927D01*
G01Y-1568830D01*
G02X-616660Y-1570250I-1999J-2D01*
G01X-624850Y-1578440D01*
G02X-627030Y-1578870I-1412J1415D01*
G01X-627590Y-1578640D01*
X-628260Y-1577640D01*
Y-1571580D01*
G02X-626260Y-1569580I2000J0D01*
G01X-625700D01*
X-624530Y-1568410D01*
Y-1462640D01*
G03X-626530Y-1460640I-2000J0D01*
G01X-655820D01*
G02X-656870Y-1460340I3J1999D01*
G03X-658980Y-1459310I-6347J-10326D01*
G01X-659570Y-1459090D01*
X-660280Y-1458060D01*
Y-1453540D01*
G03X-662280Y-1451540I-2000J0D01*
G01X-683820D01*
G03X-685820Y-1453540I0J-2000D01*
G01Y-1577680D01*
G03X-683820Y-1579680I2000J0D01*
G01X-662280D01*
G03X-660280Y-1577680I0J2000D01*
G01Y-1572780D01*
X-659650Y-1571800D01*
X-659120Y-1571550D01*
G03X-656650Y-1570020I-5102J10995D01*
G02X-655400Y-1569580I1251J-1559D01*
G01X-654840D01*
Y-1576550D01*
G03X-652840Y-1578550I2000J0D01*
G01X-629780D01*
G02X-627940Y-1579780I-5J-1999D01*
G01X-627700Y-1580350D01*
X-627930Y-1581530D01*
X-637770Y-1591370D01*
G03X-641470Y-1600290I8918J-8927D01*
G01Y-1642540D01*
G02X-643470Y-1644540I-2000J0D01*
G01X-648970D01*
G03X-650970Y-1646540I0J-2000D01*
G01Y-1666580D01*
G03X-648970Y-1668580I2000J0D01*
G01X-630770D01*
G02X-628770Y-1670580I0J-2000D01*
G01Y-1672540D01*
G02X-630770Y-1674540I-2000J0D01*
G01X-648970D01*
G03X-650970Y-1676540I0J-2000D01*
G01Y-1696580D01*
G03X-648970Y-1698580I2000J0D01*
G01X-647220D01*
G02X-645220Y-1700580I0J-2000D01*
G01Y-1703020D01*
G02X-647220Y-1705020I-2000J0D01*
G01X-652190D01*
G03X-654190Y-1707020I0J-2000D01*
G01Y-1729600D01*
G03X-652190Y-1731600I2000J0D01*
G01X-647220D01*
G02X-645220Y-1733600I0J-2000D01*
G01Y-1734160D01*
X-644050Y-1735330D01*
X-538280D01*
G03X-536280Y-1733330I0J2000D01*
G01Y-1703290D01*
G03X-538280Y-1701290I-2000J0D01*
G01X-538860D01*
X-540030Y-1700120D01*
Y-1649780D01*
G02X-538030Y-1647780I2000J0D01*
G01X-532530D01*
G03X-530530Y-1645780I0J2000D01*
G01Y-1625740D01*
G03X-532530Y-1623740I-2000J0D01*
G01X-550730D01*
G02X-552730Y-1621740I0J2000D01*
G01Y-1619780D01*
G02X-550730Y-1617780I2000J0D01*
G01X-532530D01*
G03X-530530Y-1615780I0J2000D01*
G01Y-1595740D01*
G03X-532530Y-1593740I-2000J0D01*
G01X-540780D01*
G02X-542410Y-1592910I-7J2001D01*
G03X-543730Y-1591360I-10235J-7379D01*
G01X-549390Y-1585690D01*
G02X-549820Y-1583510I1415J1412D01*
G01X-549590Y-1582950D01*
X-548590Y-1582280D01*
X-532530D01*
X-532120Y-1581870D01*
G02X-530700Y-1581280I1418J-1410D01*
G01X-493710D01*
G02X-492300Y-1581870I-8J-1999D01*
G01X-479710Y-1594460D01*
G02X-479120Y-1595870I-1409J-1418D01*
G01Y-1937630D01*
G03X-474620Y-1948500I15371J-3D01*
G01X-408090Y-2015030D01*
G02X-407660Y-2017210I-1414J-1411D01*
G01X-407890Y-2017770D01*
X-408890Y-2018440D01*
X-450830D01*
G02X-452830Y-2016440I0J2000D01*
G01Y-2014190D01*
G03X-454830Y-2012190I-2000J0D01*
G01X-485370D01*
G03X-487370Y-2014190I0J-2000D01*
G01Y-2016440D01*
G02X-489370Y-2018440I-2000J0D01*
G01X-585360D01*
G02X-586770Y-2017850I8J1999D01*
G01X-600150Y-2004480D01*
G03X-612430Y-1999390I-12284J-12279D01*
G01X-638280D01*
G02X-640120Y-1998170I2J2001D01*
G01X-640540Y-1997170D01*
G02X-640240Y-1995110I1840J784D01*
G03X-639640Y-1994350I-12072J10148D01*
G02X-638030Y-1993530I1614J-1179D01*
G01X-567980D01*
G03X-557470Y-1989170I-8J14868D01*
G01X-510390Y-1942090D01*
G03X-506030Y-1931580I-10508J10518D01*
G01Y-1800860D01*
G03X-520900Y-1785990I-14870J0D01*
G01X-641550D01*
G03X-654360Y-1793310I0J-14869D01*
G02X-656080Y-1794290I-1720J1020D01*
G01X-656750D01*
X-657920Y-1795460D01*
Y-1826330D01*
G03X-655920Y-1828330I2000J0D01*
G01X-650260D01*
G02X-648410Y-1829560I4J-2000D01*
G01X-648170Y-1830130D01*
X-648410Y-1831310D01*
X-656050Y-1838950D01*
G02X-657470Y-1839540I-1418J1410D01*
G01X-661030D01*
G02X-663030Y-1837540I0J2000D01*
G01Y-1831540D01*
G03X-665030Y-1829540I-2000J0D01*
G01X-685070D01*
G03X-687070Y-1831540I0J-2000D01*
G01Y-1850240D01*
G02X-689070Y-1852240I-2000J0D01*
G01X-691030D01*
G02X-693030Y-1850240I0J2000D01*
G01Y-1831540D01*
G03X-695030Y-1829540I-2000J0D01*
G01X-715070D01*
G03X-717070Y-1831540I0J-2000D01*
G01Y-1833000D01*
G02X-718300Y-1834850I-2000J-4D01*
G01X-718870Y-1835090D01*
X-720050Y-1834850D01*
X-768960Y-1785940D01*
G02X-769130Y-1785530I410J410D01*
G01Y-1765390D01*
G03X-772680Y-1756820I-12120J0D01*
G01X-868020Y-1661480D01*
G03X-874570Y-1658100I-8570J-8570D01*
G02X-876020Y-1657030I335J1971D01*
G03X-878320Y-1653710I-13178J-6673D01*
G01X-878580Y-1653430D01*
X-878850Y-1652730D01*
Y-1649270D01*
X-878580Y-1648570D01*
X-878320Y-1648290D01*
G03X-876110Y-1645140I-10883J9986D01*
G01X-875850Y-1644650D01*
X-874900Y-1644070D01*
X-868970D01*
G03X-860400Y-1640520I0J12120D01*
G01X-793150Y-1573270D01*
G02X-791730Y-1572680I1418J-1410D01*
G01X-719820D01*
G02X-717820Y-1574680I0J-2000D01*
G01Y-1577680D01*
G03X-715820Y-1579680I2000J0D01*
G01X-694280D01*
G03X-692280Y-1577680I0J2000D01*
G01Y-1453540D01*
G03X-694280Y-1451540I-2000J0D01*
G01X-715820D01*
G03X-717820Y-1453540I0J-2000D01*
G01Y-1456540D01*
G02X-719820Y-1458540I-2000J0D01*
G01X-873600D01*
X-874680Y-1457680D01*
X-874850Y-1457010D01*
G03X-876030Y-1453820I-14349J-3495D01*
G02X-875990Y-1451930I1784J908D01*
G01X-874820Y-1449870D01*
X-874430D01*
Y-1422330D01*
G03X-876430Y-1420330I-2000J0D01*
G01X-876810D01*
X-879470Y-1416060D01*
X-879520Y-1415030D01*
X-879290Y-1414570D01*
G03X-881100Y-1402200I-9909J4867D01*
G01X-881400Y-1401880D01*
X-881660Y-1401080D01*
X-881290Y-1397230D01*
X-880870Y-1396510D01*
X-880520Y-1396250D01*
G03X-878070Y-1394010I-8678J11952D01*
G02X-876560Y-1393320I1511J-1310D01*
G01X-551470D01*
G03X-540600Y-1388820I3J15371D01*
G01X-497330Y-1345550D01*
G03X-492830Y-1334680I-10871J10867D01*
G01Y-800190D01*
G03X-497330Y-789320I-15371J3D01*
G01X-525360Y-761290D01*
G03X-536230Y-756790I-10867J-10871D01*
G01X-619870D01*
G03X-630740Y-761290I-3J-15371D01*
G01X-646070Y-776620D01*
G03X-649960Y-783200I10871J-10867D01*
G01X-650150Y-783840D01*
X-651210Y-784640D01*
X-651570D01*
Y-816680D01*
G03X-649570Y-818680I2000J0D01*
G01X-643910D01*
G02X-642060Y-819910I4J-2000D01*
G01X-641820Y-820480D01*
X-642060Y-821660D01*
X-649700Y-829300D01*
G02X-651120Y-829890I-1418J1410D01*
G01X-654680D01*
G02X-656680Y-827890I0J2000D01*
G01Y-821890D01*
G03X-658680Y-819890I-2000J0D01*
G01X-678720D01*
G03X-680720Y-821890I0J-2000D01*
G01Y-840590D01*
G02X-682720Y-842590I-2000J0D01*
G01X-684680D01*
G02X-686680Y-840590I0J2000D01*
G01Y-821890D01*
G03X-688680Y-819890I-2000J0D01*
G01X-708720D01*
G03X-710720Y-821890I0J-2000D01*
G01Y-827890D01*
G02X-712720Y-829890I-2000J0D01*
G01X-772740D01*
G02X-774220Y-829240I-4J2000D01*
G03X-781810Y-845160I-7030J-6418D01*
G01X-781440Y-845190D01*
X-780780Y-845480D01*
X-778370Y-847890D01*
X-778080Y-848550D01*
X-778050Y-848920D01*
G03X-769110Y-857860I9500J560D01*
G01X-768740Y-857890D01*
X-768080Y-858180D01*
X-765670Y-860590D01*
X-765380Y-861250D01*
X-765350Y-861620D01*
G03X-756410Y-870560I9500J560D01*
G01X-756040Y-870590D01*
X-755380Y-870880D01*
X-752970Y-873290D01*
X-752680Y-873950D01*
X-752650Y-874320D01*
G03X-743710Y-883260I9500J560D01*
G01X-743340Y-883290D01*
X-742680Y-883580D01*
X-740270Y-885990D01*
X-739980Y-886650D01*
X-739950Y-887020D01*
G03X-731010Y-895960I9500J560D01*
G01X-730640Y-895990D01*
X-729980Y-896280D01*
X-727570Y-898690D01*
X-727280Y-899350D01*
X-727250Y-899720D01*
G03X-724510Y-905870I9505J549D01*
G02X-723930Y-907280I-1417J-1407D01*
G01Y-910090D01*
G02X-724510Y-911500I-1997J-3D01*
G03X-718310Y-927710I6758J-6706D01*
G01X-717940Y-927740D01*
X-717280Y-928030D01*
X-714870Y-930440D01*
X-714580Y-931100D01*
X-714550Y-931470D01*
G03X-695600Y-932080I9503J562D01*
G01X-695510Y-931330D01*
X-694370Y-930330D01*
X-661920D01*
G02X-659920Y-932330I0J-2000D01*
G01Y-938330D01*
G03X-657920Y-940330I2000J0D01*
G01X-637880D01*
G03X-635880Y-938330I0J2000D01*
G01Y-919630D01*
G02X-633880Y-917630I2000J0D01*
G01X-631920D01*
G02X-629920Y-919630I0J-2000D01*
G01Y-938330D01*
G03X-627920Y-940330I2000J0D01*
G01X-607880D01*
G03X-605880Y-938330I0J2000D01*
G01Y-932330D01*
G02X-603880Y-930330I2000J0D01*
G01X-574330D01*
G03X-565760Y-926780I0J12120D01*
G01X-537730Y-898750D01*
G03X-534180Y-890180I-8570J8570D01*
G01Y-820680D01*
G02X-532180Y-818680I2000J0D01*
G01X-531930D01*
G03X-529930Y-816680I0J2000D01*
G01Y-787060D01*
G02X-528700Y-785210I2002J3D01*
G01X-528130Y-784980D01*
X-526950Y-785210D01*
X-511460Y-800710D01*
G02X-510870Y-802120I-1409J-1418D01*
G01Y-1332750D01*
G02X-511460Y-1334160I-1999J8D01*
G01X-551990Y-1374690D01*
G02X-553400Y-1375280I-1418J1409D01*
G01X-876560D01*
G02X-878070Y-1374590I1J2000D01*
G03X-878180Y-1374470I-10940J-9918D01*
G01Y-1360980D01*
G02X-876180Y-1358980I2000J0D01*
G01X-870680D01*
G03X-868680Y-1356980I0J2000D01*
G01Y-1335940D01*
G03X-870680Y-1333940I-2000J0D01*
G01X-907720D01*
G03X-909720Y-1335940I0J-2000D01*
G01Y-1356980D01*
G03X-907720Y-1358980I2000J0D01*
G01X-902220D01*
G02X-900220Y-1360980I0J-2000D01*
G01Y-1371280D01*
G02X-902220Y-1373280I-2000J0D01*
G01X-908160D01*
G03X-913940Y-1374270I0J-17370D01*
G02X-915260I-660J1888D01*
G03X-921040Y-1373280I-5780J-16380D01*
G01X-929430D01*
G02X-930690Y-1372830I4J1999D01*
G03X-948680Y-1396250I-9309J-11469D01*
G01X-948330Y-1396510D01*
X-947910Y-1397230D01*
X-947540Y-1401080D01*
X-947800Y-1401880D01*
X-948100Y-1402200D01*
G03X-949910Y-1414570I8099J-7503D01*
G01X-949680Y-1415030D01*
X-949730Y-1416060D01*
X-951800Y-1419390D01*
G02X-953500Y-1420330I-1697J1061D01*
G01X-953600D01*
X-954770Y-1421500D01*
Y-1449870D01*
X-954380D01*
X-953210Y-1451930D01*
G02X-953170Y-1453820I-1744J-982D01*
G03X-950880Y-1470490I13171J-6683D01*
G01X-950620Y-1470770D01*
X-950350Y-1471470D01*
Y-1474930D01*
X-950620Y-1475630D01*
X-950880Y-1475910D01*
G03Y-1495890I10880J-9990D01*
G01X-950620Y-1496170D01*
X-950350Y-1496870D01*
Y-1500330D01*
X-950620Y-1501030D01*
X-950880Y-1501310D01*
G03Y-1521290I10880J-9990D01*
G01X-950620Y-1521570D01*
X-950350Y-1522270D01*
Y-1525730D01*
X-950620Y-1526430D01*
X-950880Y-1526710D01*
G03Y-1546690I10880J-9990D01*
G01X-950620Y-1546970D01*
X-950350Y-1547670D01*
Y-1551130D01*
X-950620Y-1551830D01*
X-950880Y-1552110D01*
G03Y-1572090I10880J-9990D01*
G01X-950620Y-1572370D01*
X-950350Y-1573070D01*
Y-1576530D01*
X-950620Y-1577230D01*
X-950880Y-1577510D01*
G03Y-1597490I10880J-9990D01*
G01X-950620Y-1597770D01*
X-950350Y-1598470D01*
Y-1601930D01*
X-950620Y-1602630D01*
X-950880Y-1602910D01*
G03Y-1622890I10880J-9990D01*
G01X-950620Y-1623170D01*
X-950350Y-1623870D01*
Y-1627330D01*
X-950620Y-1628030D01*
X-950880Y-1628310D01*
G03Y-1648290I10880J-9990D01*
G01X-950620Y-1648570D01*
X-950350Y-1649270D01*
Y-1652730D01*
X-950620Y-1653430D01*
X-950880Y-1653710D01*
G03X-953170Y-1670380I10881J-9987D01*
G02X-953210Y-1672270I-1784J-908D01*
G01X-954380Y-1674330D01*
X-954770D01*
Y-1703870D01*
X-954380D01*
X-953210Y-1705930D01*
G02X-953170Y-1707820I-1744J-982D01*
G03X-950880Y-1724490I13171J-6683D01*
G01X-950620Y-1724770D01*
X-950350Y-1725470D01*
Y-1728930D01*
X-950620Y-1729630D01*
X-950880Y-1729910D01*
G03Y-1749890I10880J-9990D01*
G01X-950620Y-1750170D01*
X-950350Y-1750870D01*
Y-1754330D01*
X-950620Y-1755030D01*
X-950880Y-1755310D01*
G03Y-1775290I10880J-9990D01*
G01X-950620Y-1775570D01*
X-950350Y-1776270D01*
Y-1779730D01*
X-950620Y-1780430D01*
X-950880Y-1780710D01*
G03Y-1800690I10880J-9990D01*
G01X-950620Y-1800970D01*
X-950350Y-1801670D01*
Y-1805130D01*
X-950620Y-1805830D01*
X-950880Y-1806110D01*
G03Y-1826090I10880J-9990D01*
G01X-950620Y-1826370D01*
X-950350Y-1827070D01*
Y-1830530D01*
X-950620Y-1831230D01*
X-950880Y-1831510D01*
G03Y-1851490I10880J-9990D01*
G01X-950620Y-1851770D01*
X-950350Y-1852470D01*
Y-1855930D01*
X-950620Y-1856630D01*
X-950880Y-1856910D01*
G03Y-1876890I10880J-9990D01*
G01X-950620Y-1877170D01*
X-950350Y-1877870D01*
Y-1881330D01*
X-950620Y-1882030D01*
X-950880Y-1882310D01*
G03Y-1902290I10880J-9990D01*
G01X-950620Y-1902570D01*
X-950350Y-1903270D01*
Y-1906730D01*
X-950620Y-1907430D01*
X-950880Y-1907710D01*
G03X-951480Y-1926990I10880J-9988D01*
G02X-951040Y-1928240I-1561J-1252D01*
G01Y-1957960D01*
G02X-951480Y-1959210I-2001J2D01*
G03X-950880Y-1978490I11480J-9292D01*
G01X-950620Y-1978770D01*
X-950350Y-1979470D01*
Y-1982930D01*
X-950620Y-1983630D01*
X-950880Y-1983910D01*
G03Y-2003890I10880J-9990D01*
G01X-950620Y-2004170D01*
X-950350Y-2004870D01*
Y-2008330D01*
X-950620Y-2009030D01*
X-950880Y-2009310D01*
G03Y-2029290I10880J-9990D01*
G01X-950620Y-2029570D01*
X-950350Y-2030270D01*
Y-2033730D01*
X-950620Y-2034430D01*
X-950880Y-2034710D01*
G03Y-2054690I10880J-9990D01*
G01X-950620Y-2054970D01*
X-950350Y-2055670D01*
Y-2059130D01*
X-950620Y-2059830D01*
X-950880Y-2060110D01*
G03Y-2080090I10880J-9990D01*
G01X-950620Y-2080370D01*
X-950350Y-2081070D01*
Y-2084530D01*
X-950620Y-2085230D01*
X-950880Y-2085510D01*
G03Y-2105490I10880J-9990D01*
G01X-950620Y-2105770D01*
X-950350Y-2106470D01*
Y-2109930D01*
X-950620Y-2110630D01*
X-950880Y-2110910D01*
G03Y-2130890I10880J-9990D01*
G01X-950620Y-2131170D01*
X-950350Y-2131870D01*
Y-2135330D01*
X-950620Y-2136030D01*
X-950880Y-2136310D01*
G03X-953170Y-2152980I10881J-9987D01*
G02X-953210Y-2154870I-1784J-908D01*
G01X-954380Y-2156930D01*
X-954770D01*
Y-2184470D01*
G03X-952770Y-2186470I2000J0D01*
G01X-925270D01*
G02X-923520Y-2187520I-9J-1998D01*
G03X-920530Y-2191510I15252J8314D01*
G01X-912200Y-2199840D01*
G02X-911660Y-2201700I-1413J-1419D01*
G01X-912530Y-2205510D01*
X-913210Y-2206270D01*
X-913700Y-2206450D01*
G03X-891480Y-2226400I5653J-16053D01*
G01X-891380Y-2225980D01*
X-890860Y-2225300D01*
X-887470Y-2223480D01*
X-886610Y-2223420D01*
X-886210Y-2223560D01*
G03X-881000Y-2224610I5996J16300D01*
G01X-880720Y-2224620D01*
X-880700D01*
G03X-880220Y-2224630I469J11010D01*
G01X-616150D01*
G03X-610280Y-2222940I5J11021D01*
G02X-609220Y-2222630I1069J-1689D01*
G01X-600570D01*
G02X-598570Y-2224630I0J-2000D01*
G01Y-2224960D01*
X-597400Y-2226130D01*
X-527930D01*
G03X-525930Y-2224130I0J2000D01*
G01Y-2223800D01*
X-524760Y-2222630D01*
X-519110D01*
G02X-517700Y-2223220I-8J-1999D01*
G01X-517320Y-2223590D01*
G03X-515910Y-2224180I1418J1409D01*
G01X-515870D01*
G02X-513870Y-2226180I0J-2000D01*
G01Y-2249710D01*
G02X-515870Y-2251710I-2000J0D01*
G01X-959050D01*
G37*
G36*
G01X-878870Y-2202000D02*
X-890990Y-2189880D01*
G02X-891430Y-2187700I1410J1419D01*
G01X-891190Y-2187140D01*
X-890200Y-2186470D01*
X-876430D01*
G03X-874430Y-2184470I0J2000D01*
G01Y-2156930D01*
X-874820D01*
X-875990Y-2154870D01*
G02X-876030Y-2152980I1744J982D01*
G03X-878320Y-2136310I-13171J6683D01*
G01X-878580Y-2136030D01*
X-878850Y-2135330D01*
Y-2131870D01*
X-878580Y-2131170D01*
X-878320Y-2130890D01*
G03Y-2110910I-10880J9990D01*
G01X-878580Y-2110630D01*
X-878850Y-2109930D01*
Y-2106470D01*
X-878580Y-2105770D01*
X-878320Y-2105490D01*
G03Y-2085510I-10880J9990D01*
G01X-878580Y-2085230D01*
X-878850Y-2084530D01*
Y-2081070D01*
X-878580Y-2080370D01*
X-878320Y-2080090D01*
G03Y-2060110I-10880J9990D01*
G01X-878580Y-2059830D01*
X-878850Y-2059130D01*
Y-2055670D01*
X-878580Y-2054970D01*
X-878320Y-2054690D01*
G03Y-2034710I-10880J9990D01*
G01X-878580Y-2034430D01*
X-878850Y-2033730D01*
Y-2030270D01*
X-878580Y-2029570D01*
X-878320Y-2029290D01*
G03Y-2009310I-10880J9990D01*
G01X-878580Y-2009030D01*
X-878850Y-2008330D01*
Y-2004870D01*
X-878580Y-2004170D01*
X-878320Y-2003890D01*
G03Y-1983910I-10880J9990D01*
G01X-878580Y-1983630D01*
X-878850Y-1982930D01*
Y-1979470D01*
X-878580Y-1978770D01*
X-878320Y-1978490D01*
G03X-877720Y-1959210I-10880J9988D01*
G02X-878160Y-1957960I1561J1252D01*
G01Y-1928240D01*
G02X-877720Y-1926990I2001J-2D01*
G03X-875250Y-1922540I-11484J9285D01*
G01X-875080Y-1922050D01*
X-874310Y-1921360D01*
X-870500Y-1920490D01*
G02X-868640Y-1921020I451J-1948D01*
G01X-850690Y-1938970D01*
G02X-850520Y-1939380I-410J-410D01*
G01Y-2071280D01*
G03X-846970Y-2079850I12120J0D01*
G01X-825290Y-2101530D01*
G03X-818610Y-2104930I8568J8571D01*
G01X-817880Y-2105050D01*
X-816920Y-2106170D01*
Y-2117040D01*
G02X-818920Y-2119040I-2000J0D01*
G01X-831520D01*
G03X-833520Y-2121040I0J-2000D01*
G01Y-2141080D01*
G03X-831520Y-2143080I2000J0D01*
G01X-780970D01*
Y-2143580D01*
X-779240D01*
G02X-777240Y-2145580I0J-2000D01*
G01Y-2147040D01*
G02X-779240Y-2149040I-2000J0D01*
G01X-806120D01*
G03X-808120Y-2151040I0J-2000D01*
G01Y-2151600D01*
X-809290Y-2152770D01*
X-827790D01*
G03X-829790Y-2154770I0J-2000D01*
G01Y-2167350D01*
G03X-827790Y-2169350I2000J0D01*
G01X-810120D01*
G02X-808120Y-2171350I0J-2000D01*
G01Y-2171910D01*
X-806950Y-2173080D01*
X-802370D01*
G02X-800370Y-2175080I0J-2000D01*
G01Y-2200590D01*
G02X-802370Y-2202590I-2000J0D01*
G01X-877460D01*
G02X-878870Y-2202000I8J1999D01*
G37*
G36*
G01X-792880Y-2117040D02*
Y-2085540D01*
G03X-794880Y-2083540I-2000J0D01*
G01X-814920D01*
G03X-816920Y-2085540I0J-2000D01*
G01Y-2088750D01*
G02X-818150Y-2090600I-2000J-4D01*
G01X-818720Y-2090840D01*
X-819900Y-2090600D01*
X-838810Y-2071690D01*
G02X-838980Y-2071280I410J410D01*
G01Y-1988960D01*
G02X-837610Y-1987070I1998J-7D01*
G01X-836670Y-1986750D01*
G02X-834570Y-1987290I631J-1898D01*
G03X-834270Y-1987600I8858J8272D01*
G01X-815910Y-2005960D01*
G02X-815320Y-2007380I-1410J-1418D01*
G01Y-2024180D01*
G03X-813320Y-2026180I2000J0D01*
G01X-793280D01*
G03X-791280Y-2024180I0J2000D01*
G01Y-1996640D01*
G03X-793280Y-1994640I-2000J0D01*
G01X-810080D01*
G02X-811500Y-1994050I-2J2000D01*
G01X-826110Y-1979440D01*
G02X-826280Y-1979030I410J410D01*
G01Y-1926680D01*
G03X-829830Y-1918110I-12120J0D01*
G01X-875010Y-1872930D01*
X-875270Y-1871850D01*
X-875110Y-1871320D01*
G03X-878320Y-1856910I-14091J4424D01*
G01X-878580Y-1856630D01*
X-878850Y-1855930D01*
Y-1852470D01*
X-878580Y-1851770D01*
X-878320Y-1851490D01*
G03X-876110Y-1848340I-10883J9986D01*
G01X-875850Y-1847850D01*
X-874900Y-1847270D01*
X-825790D01*
G02X-825380Y-1847440I0J-580D01*
G01X-736390Y-1936430D01*
G03X-727820Y-1939980I8570J8570D01*
G01X-668270D01*
G02X-666270Y-1941980I0J-2000D01*
G01Y-1947980D01*
G03X-664270Y-1949980I2000J0D01*
G01X-644230D01*
G03X-642230Y-1947980I0J2000D01*
G01Y-1929280D01*
G02X-640230Y-1927280I2000J0D01*
G01X-638270D01*
G02X-636270Y-1929280I0J-2000D01*
G01Y-1947980D01*
G03X-634270Y-1949980I2000J0D01*
G01X-614230D01*
G03X-612230Y-1947980I0J2000D01*
G01Y-1941980D01*
G02X-610230Y-1939980I2000J0D01*
G01X-580680D01*
G03X-572110Y-1936430I0J12120D01*
G01X-544080Y-1908400D01*
G03X-540530Y-1899830I-8570J8570D01*
G01Y-1830330D01*
G02X-538530Y-1828330I2000J0D01*
G01X-538280D01*
G03X-536280Y-1826330I0J2000D01*
G01Y-1805030D01*
G02X-534280Y-1803030I2000J0D01*
G01X-525070D01*
G02X-523070Y-1805030I0J-2000D01*
G01Y-1929850D01*
G02X-523660Y-1931270I-2000J-2D01*
G01X-568290Y-1975900D01*
G02X-569710Y-1976490I-1418J1410D01*
G01X-638030D01*
G02X-639640Y-1975670I4J1999D01*
G03X-652350Y-1969240I-12710J-9347D01*
G01X-654850D01*
G03X-665580Y-1973460I6J-15768D01*
G02X-666940Y-1973990I-1357J1472D01*
G01X-670670D01*
G03X-679380Y-1976330I-3J-17371D01*
G02X-681380I-1000J1730D01*
G03X-690090Y-1973990I-8707J-15031D01*
G01X-727260D01*
G02X-728620Y-1973460I-3J2002D01*
G03X-739350Y-1969240I-10736J-11548D01*
G01X-741850D01*
G03X-753940Y-1995140I0J-15772D01*
G01X-753710Y-1995410D01*
X-753470Y-1996070D01*
Y-1999350D01*
X-753710Y-2000010D01*
X-753940Y-2000280D01*
G03X-756030Y-2003510I12097J-10119D01*
G01X-756290Y-2004040D01*
X-757250Y-2004640D01*
X-759280D01*
G02X-761280Y-2002640I0J2000D01*
G01Y-1996640D01*
G03X-763280Y-1994640I-2000J0D01*
G01X-783320D01*
G03X-785320Y-1996640I0J-2000D01*
G01Y-2024180D01*
G03X-783320Y-2026180I2000J0D01*
G01X-763280D01*
G03X-761280Y-2024180I0J2000D01*
G01Y-2018180D01*
G02X-759280Y-2016180I2000J0D01*
G01X-757250D01*
X-756290Y-2016780D01*
X-756030Y-2017310D01*
G03X-753940Y-2020540I14187J6889D01*
G01X-753710Y-2020810D01*
X-753470Y-2021470D01*
Y-2024750D01*
X-753710Y-2025410D01*
X-753940Y-2025680D01*
G03X-741850Y-2051580I12090J-10128D01*
G01X-739350D01*
G03X-727260Y-2025680I0J15772D01*
G01X-727490Y-2025410D01*
X-727730Y-2024750D01*
Y-2021470D01*
X-727490Y-2020810D01*
X-727260Y-2020540D01*
G03X-725930Y-2002130I-12090J10126D01*
G01X-726210Y-2001670D01*
X-726240Y-2000580D01*
X-724270Y-1997060D01*
G02X-722520Y-1996030I1748J-969D01*
G01X-692850D01*
G02X-691440Y-1996620I-8J-1999D01*
G01X-691400Y-1996650D01*
Y-2029050D01*
G03X-690810Y-2030460I1999J8D01*
G01X-675030Y-2046240D01*
G03X-673620Y-2046830I1418J1409D01*
G01X-666940D01*
G02X-665580Y-2047360I3J-2002D01*
G03X-661470Y-2050120I10736J11547D01*
G01X-660930Y-2050370D01*
X-660310Y-2051350D01*
Y-2051940D01*
G02X-662310Y-2053940I-2000J0D01*
G01X-679650D01*
G03X-692960Y-2064670I0J-13620D01*
G01X-693110Y-2065360D01*
X-694200Y-2066240D01*
X-721920D01*
G03X-723920Y-2068240I0J-2000D01*
G01Y-2068800D01*
X-725090Y-2069970D01*
X-735190D01*
G03X-737190Y-2071970I0J-2000D01*
G01Y-2088550D01*
G03X-735190Y-2090550I2000J0D01*
G01X-725920D01*
G02X-723920Y-2092550I0J-2000D01*
G01Y-2093640D01*
G02X-725920Y-2095640I-2000J0D01*
G01X-743220D01*
G03X-745220Y-2097640I0J-2000D01*
G01X-745820Y-2098540D01*
X-746450Y-2098800D01*
G02X-748630Y-2098370I-768J1847D01*
G01X-749910Y-2097090D01*
G03X-758480Y-2093540I-8570J-8570D01*
G01X-760880D01*
G02X-762880Y-2091540I0J2000D01*
G01Y-2085540D01*
G03X-764880Y-2083540I-2000J0D01*
G01X-784920D01*
G03X-786920Y-2085540I0J-2000D01*
G01Y-2117040D01*
G02X-788920Y-2119040I-2000J0D01*
G01X-790880D01*
G02X-792880Y-2117040I0J2000D01*
G37*
G36*
G01X-846890Y-1519060D02*
X-837600Y-1509770D01*
G02X-836180Y-1509180I1418J-1410D01*
G01X-719820D01*
G02X-717820Y-1511180I0J-2000D01*
G01Y-1520040D01*
G02X-719820Y-1522040I-2000J0D01*
G01X-845040D01*
G02X-846890Y-1520810I-4J2000D01*
G01X-847130Y-1520240D01*
X-846890Y-1519060D01*
G37*
G36*
G01X-784330Y-2200590D02*
Y-2175080D01*
G02X-782330Y-2173080I2000J0D01*
G01X-778580D01*
G03X-776580Y-2171080I0J2000D01*
G01Y-2158850D01*
G02X-774580Y-2156850I2000J0D01*
G01X-758660D01*
G03X-756660Y-2154850I0J2000D01*
G01Y-2145580D01*
G02X-754660Y-2143580I2000J0D01*
G01X-754100D01*
X-752930Y-2142410D01*
Y-2138830D01*
G02X-750930Y-2136830I2000J0D01*
G01X-747220D01*
G02X-745220Y-2138830I0J-2000D01*
G01Y-2139080D01*
G03X-743220Y-2141080I2000J0D01*
G01X-742660D01*
X-741490Y-2142250D01*
Y-2148050D01*
G03X-739490Y-2150050I2000J0D01*
G01X-721410D01*
G03X-719410Y-2148050I0J2000D01*
G01Y-2143080D01*
G02X-717410Y-2141080I2000J0D01*
G01X-716850D01*
X-715680Y-2139910D01*
Y-2138830D01*
G02X-713680Y-2136830I2000J0D01*
G01X-701340D01*
G02X-700930Y-2137000I0J-580D01*
G01X-691950Y-2145980D01*
G03X-691830Y-2146100I8630J8510D01*
G02X-691220Y-2147540I-1390J-1438D01*
G01Y-2151780D01*
G03X-689220Y-2153780I2000J0D01*
G01X-663680D01*
G03X-661680Y-2151780I0J2000D01*
G01Y-2133450D01*
G02X-659680Y-2131450I2000J0D01*
G01X-639610D01*
G03X-637610Y-2129450I0J2000D01*
G01Y-2120180D01*
G02X-635610Y-2118180I2000J0D01*
G01X-635050D01*
X-633880Y-2117010D01*
Y-2115680D01*
G02X-631880Y-2113680I2000J0D01*
G01X-629170D01*
G02X-627170Y-2115680I0J-2000D01*
G01Y-2200590D01*
G02X-629170Y-2202590I-2000J0D01*
G01X-782330D01*
G02X-784330Y-2200590I0J2000D01*
G37*
G36*
G01X-583480Y-2054370D02*
Y-2042480D01*
G02X-581480Y-2040480I2000J0D01*
G01X-544300D01*
G02X-542550Y-2041500I6J-2001D01*
G01X-540570Y-2045010D01*
X-540590Y-2046080D01*
X-540870Y-2046550D01*
G03X-545620Y-2060450I29494J-17840D01*
G01Y-2085020D01*
G02X-547620Y-2087020I-2000J0D01*
G01X-562490D01*
G03X-564490Y-2089020I0J-2000D01*
G01Y-2109600D01*
G03X-562490Y-2111600I2000J0D01*
G01X-547620D01*
G02X-545620Y-2113600I0J-2000D01*
G01Y-2160130D01*
G03X-543620Y-2162130I2000J0D01*
G01X-543020D01*
G02X-541020Y-2164130I0J-2000D01*
G01Y-2170230D01*
G03X-539020Y-2172230I2000J0D01*
G01X-515870D01*
G02X-513870Y-2174230I0J-2000D01*
G01Y-2202590D01*
G02X-515870Y-2204590I-2000J0D01*
G01X-523930D01*
G02X-525930Y-2202590I0J2000D01*
G01Y-2202260D01*
X-527100Y-2201090D01*
X-527660D01*
G02X-529660Y-2199090I0J2000D01*
G01Y-2189820D01*
G03X-531660Y-2187820I-2000J0D01*
G01X-548240D01*
G03X-550240Y-2189820I0J-2000D01*
G01Y-2199090D01*
G02X-552240Y-2201090I-2000J0D01*
G01X-596570D01*
G03X-598570Y-2203090I0J-2000D01*
G01Y-2203420D01*
X-599740Y-2204590D01*
X-603130D01*
G02X-605130Y-2202590I0J2000D01*
G01Y-2057490D01*
G03X-610220Y-2045210I-17369J-4D01*
G01X-625550Y-2029880D01*
G03X-627020Y-2028560I-12321J-12243D01*
G01X-627520Y-2028160D01*
X-627880Y-2026940D01*
X-626420Y-2022770D01*
G02X-624540Y-2021430I1887J-659D01*
G01X-615190D01*
G02X-613780Y-2022020I-8J-1999D01*
G01X-598610Y-2037190D01*
G02X-598020Y-2038600I-1409J-1418D01*
G01Y-2054370D01*
G02X-598410Y-2055560I-2001J-3D01*
G03X-583090I7660J-5650D01*
G02X-583480Y-2054370I1611J1187D01*
G37*
G36*
G01X-519360Y-2150110D02*
G03X-519480Y-2150070I-4288J-12664D01*
G01Y-2143740D01*
X-519740Y-2143480D01*
G02X-520030Y-2142780I710J704D01*
G01Y-2118790D01*
G03X-521030Y-2117790I-1000J0D01*
G01X-532600D01*
G02X-533600Y-2116790I0J1000D01*
G01Y-2112600D01*
G02X-532600Y-2111600I1000J0D01*
G01X-516410D01*
G03X-515410Y-2110600I0J1000D01*
G01Y-2088020D01*
G03X-516410Y-2087020I-1000J0D01*
G01X-532600D01*
G02X-533600Y-2086020I0J1000D01*
G01Y-2061280D01*
G02X-533590Y-2061140I1000J-1D01*
G02X-508200Y-2042160I22215J-3245D01*
G01X-485870D01*
G02X-484870Y-2043160I0J-1000D01*
G01Y-2043230D01*
G03X-483870Y-2044230I1000J0D01*
G01X-456330D01*
G03X-455330Y-2043230I0J1000D01*
G01Y-2043160D01*
G02X-454330Y-2042160I1000J0D01*
G01X-382200D01*
G02X-381200Y-2043160I0J-1000D01*
G01Y-2131060D01*
G03X-362150Y-2150110I19050J0D01*
G01X-254200D01*
G02X-235150Y-2169160I0J-19050D01*
G01Y-2232660D01*
G02X-254200Y-2251710I-19050J0D01*
G01X-500850D01*
G02X-501850Y-2250710I0J1000D01*
G01Y-2225430D01*
G02X-500850Y-2224430I1000J0D01*
G01X-476130D01*
G03X-475130Y-2223430I0J1000D01*
G01Y-2206890D01*
G03X-476130Y-2205890I-1000J0D01*
G01X-500850D01*
G02X-501850Y-2204890I0J1000D01*
G01Y-2179430D01*
G02X-500850Y-2178430I1000J0D01*
G01X-476130D01*
G03X-475130Y-2177430I0J1000D01*
G01Y-2160890D01*
G03X-476130Y-2159890I-1000J0D01*
G01X-500850D01*
G02X-501850Y-2158890I0J1000D01*
G01Y-2151110D01*
G03X-502850Y-2150110I-1000J0D01*
G01X-519360D01*
G37*
G36*
G01X-531530Y-1473180D02*
Y-1464400D01*
G02X-530940Y-1462980I1999J2D01*
G01X-411840Y-1343880D01*
G02X-409660Y-1343450I1412J-1415D01*
G01X-409100Y-1343680D01*
X-408430Y-1344680D01*
Y-1382800D01*
G02X-409020Y-1384220I-2000J-2D01*
G01X-499390Y-1474590D01*
G02X-500810Y-1475180I-1418J1410D01*
G01X-529530D01*
G02X-531530Y-1473180I0J2000D01*
G37*
G36*
G01X-525180Y-465190D02*
Y-454750D01*
G02X-524590Y-453330I1999J2D01*
G01X-422880Y-351620D01*
G02X-420700Y-351190I1412J-1415D01*
G01X-420140Y-351420D01*
X-419470Y-352420D01*
Y-406680D01*
G02X-420060Y-408100I-2000J-2D01*
G01X-478560Y-466600D01*
G02X-479980Y-467190I-1418J1410D01*
G01X-523180D01*
G02X-525180Y-465190I0J2000D01*
G37*
G36*
G01X-382180Y-1963930D02*
X-382930Y-1964030D01*
G03X-384090Y-1964240I2049J-14627D01*
G01X-384590Y-1964350D01*
X-385570Y-1964060D01*
X-443440Y-1906190D01*
G02X-444030Y-1904770I1409J1418D01*
G01Y-1828680D01*
G02X-442800Y-1826840I1999J-5D01*
G01X-442230Y-1826600D01*
X-441050Y-1826830D01*
X-395500Y-1872390D01*
X-395210Y-1873370D01*
X-395320Y-1873870D01*
G03X-382930Y-1891690I14421J-3191D01*
G01X-382180Y-1891790D01*
X-381200Y-1892920D01*
Y-1911090D01*
G02X-383200Y-1913090I-2000J0D01*
G01X-393670D01*
G03X-395670Y-1915090I0J-2000D01*
G01Y-1940630D01*
G03X-393670Y-1942630I2000J0D01*
G01X-383200D01*
G02X-381200Y-1944630I0J-2000D01*
G01Y-1962800D01*
X-382180Y-1963930D01*
G37*
G36*
G01X-384180Y-2013430D02*
X-460490Y-1937110D01*
G02X-461080Y-1935700I1409J1418D01*
G01Y-1918060D01*
G02X-459840Y-1916210I2001J-1D01*
G01X-455850Y-1914580D01*
X-454660Y-1914820D01*
X-454230Y-1915260D01*
G03X-454150Y-1915330I8821J10001D01*
G01X-395500Y-1973990D01*
X-395210Y-1974970D01*
X-395320Y-1975470D01*
G03X-382930Y-1993290I14421J-3191D01*
G01X-382180Y-1993390D01*
X-381200Y-1994520D01*
Y-2011580D01*
G02X-382430Y-2013430I-2002J-3D01*
G01X-383000Y-2013660D01*
X-384180Y-2013430D01*
G37*
G36*
G01X-382180Y-1862330D02*
X-382930Y-1862430D01*
G03X-384090Y-1862640I2049J-14627D01*
G01X-384590Y-1862750D01*
X-385570Y-1862460D01*
X-430740Y-1817290D01*
G02X-431330Y-1815870I1409J1418D01*
G01Y-1739780D01*
G02X-430100Y-1737940I1999J-5D01*
G01X-429530Y-1737700D01*
X-428350Y-1737930D01*
X-395500Y-1770790D01*
X-395210Y-1771770D01*
X-395320Y-1772270D01*
G03X-382930Y-1790090I14421J-3191D01*
G01X-382180Y-1790190D01*
X-381200Y-1791320D01*
Y-1809490D01*
G02X-383200Y-1811490I-2000J0D01*
G01X-393670D01*
G03X-395670Y-1813490I0J-2000D01*
G01Y-1839030D01*
G03X-393670Y-1841030I2000J0D01*
G01X-383200D01*
G02X-381200Y-1843030I0J-2000D01*
G01Y-1861200D01*
X-382180Y-1862330D01*
G37*
G36*
G01X-487980Y-1486060D02*
X-385570Y-1383660D01*
X-384590Y-1383370D01*
X-384090Y-1383480D01*
G03X-382930Y-1383690I3209J14417D01*
G01X-382180Y-1383790D01*
X-381200Y-1384920D01*
Y-1403090D01*
G02X-383200Y-1405090I-2000J0D01*
G01X-393670D01*
G03X-395670Y-1407090I0J-2000D01*
G01Y-1432630D01*
G03X-393670Y-1434630I2000J0D01*
G01X-383200D01*
G02X-381200Y-1436630I0J-2000D01*
G01Y-1454800D01*
X-382180Y-1455930D01*
X-382930Y-1456030D01*
G03X-395320Y-1473850I2031J-14629D01*
G01X-395210Y-1474350D01*
X-395500Y-1475330D01*
X-408620Y-1488450D01*
G02X-410040Y-1489040I-1418J1409D01*
G01X-486130D01*
G02X-487970Y-1487810I5J1999D01*
G01X-488210Y-1487240D01*
X-487980Y-1486060D01*
G37*
G36*
G01X-382180Y-890780D02*
X-382930Y-890880D01*
G03X-384090Y-891090I2049J-14627D01*
G01X-384590Y-891200D01*
X-385570Y-890910D01*
X-430740Y-845740D01*
G02X-431330Y-844320I1409J1418D01*
G01Y-768230D01*
G02X-430100Y-766390I1999J-5D01*
G01X-429530Y-766150D01*
X-428350Y-766380D01*
X-395500Y-799240D01*
X-395210Y-800220D01*
X-395320Y-800720D01*
G03X-382930Y-818540I14421J-3191D01*
G01X-382180Y-818640D01*
X-381200Y-819770D01*
Y-837940D01*
G02X-383200Y-839940I-2000J0D01*
G01X-393670D01*
G03X-395670Y-841940I0J-2000D01*
G01Y-867480D01*
G03X-393670Y-869480I2000J0D01*
G01X-383200D01*
G02X-381200Y-871480I0J-2000D01*
G01Y-889650D01*
X-382180Y-890780D01*
G37*
G36*
G01X-384180Y-940280D02*
X-447790Y-876660D01*
G02X-448380Y-875250I1409J1418D01*
G01Y-857610D01*
G02X-447140Y-855760I2001J-1D01*
G01X-443150Y-854130D01*
X-441960Y-854370D01*
X-441530Y-854810D01*
G03X-441450Y-854880I8821J10001D01*
G01X-395500Y-900840D01*
X-395210Y-901820D01*
X-395320Y-902320D01*
G03X-382930Y-920140I14421J-3191D01*
G01X-382180Y-920240D01*
X-381200Y-921370D01*
Y-938430D01*
G02X-382430Y-940280I-2002J-3D01*
G01X-383000Y-940510D01*
X-384180Y-940280D01*
G37*
G36*
G01X-382180Y-585980D02*
X-382930Y-586080D01*
G03X-384090Y-586290I2049J-14627D01*
G01X-384590Y-586400D01*
X-385570Y-586110D01*
X-462140Y-509540D01*
G02X-462570Y-507360I1415J1412D01*
G01X-462340Y-506800D01*
X-461340Y-506130D01*
X-395040D01*
G02X-393350Y-507050I6J-2001D01*
G03X-382930Y-513740I12454J7938D01*
G01X-382180Y-513840D01*
X-381200Y-514970D01*
Y-533140D01*
G02X-383200Y-535140I-2000J0D01*
G01X-393670D01*
G03X-395670Y-537140I0J-2000D01*
G01Y-562680D01*
G03X-393670Y-564680I2000J0D01*
G01X-383200D01*
G02X-381200Y-566680I0J-2000D01*
G01Y-584850D01*
X-382180Y-585980D01*
G37*
G36*
G01X-381200Y-465080D02*
Y-483250D01*
X-382180Y-484380D01*
X-382930Y-484480D01*
G03X-393350Y-491170I2034J-14628D01*
G02X-395040Y-492090I-1684J1081D01*
G01X-460730D01*
G02X-462570Y-490860I5J1999D01*
G01X-462810Y-490290D01*
X-462580Y-489110D01*
X-385570Y-412110D01*
X-384590Y-411820D01*
X-384090Y-411930D01*
G03X-382930Y-412140I3209J14417D01*
G01X-382180Y-412240D01*
X-381200Y-413370D01*
Y-431540D01*
G02X-383200Y-433540I-2000J0D01*
G01X-393670D01*
G03X-395670Y-435540I0J-2000D01*
G01Y-461080D01*
G03X-393670Y-463080I2000J0D01*
G01X-383200D01*
G02X-381200Y-465080I0J-2000D01*
G37*
G36*
G01X-49000Y-1050000D02*
X19000D01*
G02X20000Y-1051000I0J-1000D01*
G01Y-1169000D01*
G02X19000Y-1170000I-1000J0D01*
G01X-49000D01*
G02X-50000Y-1169000I0J1000D01*
G01Y-1051000D01*
G02X-49000Y-1050000I1000J0D01*
G37*
%LPC*%
G75*
G36*
G01X-685930Y-443890D02*
Y-568030D01*
G02X-687930Y-570030I-2000J0D01*
G01X-709470D01*
G02X-711470Y-568030I0J2000D01*
G01Y-565030D01*
G03X-713470Y-563030I-2000J0D01*
G01X-748380D01*
G03X-749680Y-563510I0J-2000D01*
G02X-765330Y-557150I-6171J7250D01*
G01X-765360Y-556800D01*
X-765660Y-556170D01*
X-767960Y-553870D01*
X-768590Y-553570D01*
X-768940Y-553540D01*
G02X-777550Y-544620I893J9477D01*
G01X-777580Y-544250D01*
X-777870Y-543590D01*
X-780280Y-541180D01*
X-780940Y-540890D01*
X-781310Y-540860D01*
G02X-790270Y-531580I557J9503D01*
G01X-790280Y-531190D01*
X-790580Y-530490D01*
X-793080Y-527990D01*
X-793780Y-527690D01*
X-794170Y-527680D01*
G02X-786920Y-511740I221J9518D01*
G03X-785440Y-512390I1476J1350D01*
G01X-713470D01*
G03X-711470Y-510390I0J2000D01*
G01Y-500530D01*
G03X-713470Y-498530I-2000J0D01*
G01X-785440D01*
G03X-786920Y-499180I-4J-2000D01*
G02X-803450Y-493320I-7028J6421D01*
G01X-803480Y-492950D01*
X-803770Y-492290D01*
X-806180Y-489880D01*
X-806840Y-489590D01*
X-807210Y-489560D01*
G02X-816150Y-480620I560J9500D01*
G01X-816180Y-480250D01*
X-816470Y-479590D01*
X-818880Y-477180D01*
X-819540Y-476890D01*
X-819910Y-476860D01*
G02X-828850Y-467920I560J9500D01*
G01X-828880Y-467550D01*
X-829170Y-466890D01*
X-831580Y-464480D01*
X-832240Y-464190D01*
X-832610Y-464160D01*
G02X-825020Y-448240I560J9502D01*
G03X-823540Y-448890I1476J1350D01*
G01X-713470D01*
G03X-711470Y-446890I0J2000D01*
G01Y-443890D01*
G02X-709470Y-441890I2000J0D01*
G01X-687930D01*
G02X-685930Y-443890I0J-2000D01*
G37*
G36*
G01X-903990Y-1306670D02*
X-874410D01*
G02X-872410Y-1308670I0J-2000D01*
G01Y-1322250D01*
G02X-874410Y-1324250I-2000J0D01*
G01X-903990D01*
G02X-905990Y-1322250I0J2000D01*
G01Y-1308670D01*
G02X-903990Y-1306670I2000J0D01*
G37*
G36*
G01X-611340Y-1154150D02*
X-610900Y-1153750D01*
G02Y-1170350I7650J-8300D01*
G01X-611340Y-1169950D01*
X-612510Y-1169750D01*
X-616960Y-1171700D01*
X-617610Y-1172700D01*
Y-1173090D01*
X-637690D01*
G02X-639690Y-1171090I0J2000D01*
G01Y-1153010D01*
G02X-637690Y-1151010I2000J0D01*
G01X-617610D01*
Y-1151400D01*
X-616960Y-1152400D01*
X-612510Y-1154350D01*
X-611340Y-1154150D01*
G37*
G36*
G01X-592840Y-2173820D02*
X-563260D01*
G02X-561260Y-2175820I0J-2000D01*
G01Y-2189400D01*
G02X-563260Y-2191400I-2000J0D01*
G01X-592840D01*
G02X-594840Y-2189400I0J2000D01*
G01Y-2175820D01*
G02X-592840Y-2173820I2000J0D01*
G37*
G36*
G01X-565290Y-2144420D02*
X-552710D01*
G02X-550710Y-2146420I0J-2000D01*
G01Y-2166500D01*
G02X-552710Y-2168500I-2000J0D01*
G01X-565290D01*
G02X-567290Y-2166500I0J2000D01*
G01Y-2146420D01*
G02X-565290Y-2144420I2000J0D01*
G37*
G36*
G01X-506840Y-2119020D02*
X-492260D01*
G02X-491260Y-2120020I0J-1000D01*
G01Y-2142100D01*
G02X-492260Y-2143100I-1000J0D01*
G01X-506840D01*
G02X-507840Y-2142100I0J1000D01*
G01Y-2120020D01*
G02X-506840Y-2119020I1000J0D01*
G37*
G36*
G01X-482640Y-2058920D02*
X-457560D01*
G02X-456560Y-2059920I0J-1000D01*
G01Y-2085000D01*
G02X-457560Y-2086000I-1000J0D01*
G01X-482640D01*
G02X-483640Y-2085000I0J1000D01*
G01Y-2059920D01*
G02X-482640Y-2058920I1000J0D01*
G37*
G54D39*
X-908050Y0D03*
%LPD*%
G75*
G54D10*
X-965400Y-2222500D03*
Y-1333500D03*
G54D20*
X-728400Y-2080260D03*
X-711400D03*
X-669000D03*
X-686000D03*
G54D11*
G01X-792350Y-2213610D02*
X-880220D01*
G02X-884710Y-2211750I0J6350D01*
G01X-912740Y-2183720D01*
G02X-914600Y-2179230I4490J4490D01*
G01Y-1388110D01*
G01X-889200Y-1346460D02*
Y-1384300D01*
G01D02*
X-908160D01*
G03X-912650Y-1386160I0J-6350D01*
G01X-914600Y-1388110D01*
G01X-940000Y-1384300D02*
X-921040D01*
G02X-916550Y-1386160I0J-6350D01*
G01X-914600Y-1388110D01*
G01X-616150Y-2213610D02*
X-792350D01*
G01X-740600Y-1985010D02*
X-690090D01*
G02X-685600Y-1986870I0J-6350D01*
G01X-680380Y-1992090D01*
G01D02*
Y-2025310D01*
X-669880Y-2035810D01*
X-653600D01*
G01X-680380Y-1992090D02*
X-675160Y-1986870D01*
G02X-670670Y-1985010I4490J-4490D01*
G01X-653600D01*
G01X-616150Y-2105660D02*
Y-2213610D01*
G01Y-2105660D02*
Y-2057490D01*
G03X-618010Y-2053000I-6350J0D01*
G01X-633340Y-2037670D01*
G03X-637830Y-2035810I-4490J-4490D01*
G01X-653600D01*
G01X-590750Y-2029460D02*
X-470100D01*
G01X-653600Y-2010410D02*
X-612430D01*
G02X-607940Y-2012270I0J-6350D01*
G01X-590750Y-2029460D01*
G01X-470100D02*
X-380900D01*
G01X-197050Y-1978660D02*
X-279300D01*
G01X-292300Y-2004060D02*
X-217280D01*
G02X-212790Y-2005920I0J-6350D01*
G01X-197050Y-2021660D01*
G01X-292300Y-2004060D02*
X-302840Y-1993520D01*
G02X-304700Y-1989030I4490J4490D01*
G01Y-1978660D01*
G01X-292300Y-1902460D02*
X-217280D01*
G02X-212790Y-1904320I0J-6350D01*
G01X-197050Y-1920060D01*
G01X-292300Y-1902460D02*
X-302840Y-1891920D01*
G02X-304700Y-1887430I4490J4490D01*
G01Y-1877060D01*
G01X-197050D02*
X-279300D01*
G01X-197050Y-1775460D02*
X-279300D01*
G01X-292300Y-1800860D02*
X-217280D01*
G02X-212790Y-1802720I0J-6350D01*
G01X-197050Y-1818460D01*
G01X-292300Y-1800860D02*
X-302840Y-1790320D01*
G02X-304700Y-1785830I4490J4490D01*
G01Y-1775460D01*
G01X-197050Y-1673860D02*
X-279300D01*
G01X-292300Y-1699260D02*
X-217280D01*
G02X-212790Y-1701120I0J-6350D01*
G01X-197050Y-1716860D01*
G01X-292300Y-1699260D02*
X-302840Y-1688720D01*
G02X-304700Y-1684230I4490J4490D01*
G01Y-1673860D01*
G01X-292300Y-1597660D02*
X-217280D01*
G02X-212790Y-1599520I0J-6350D01*
G01X-197050Y-1615260D01*
G01X-292300Y-1597660D02*
X-302840Y-1587120D01*
G02X-304700Y-1582630I4490J4490D01*
G01Y-1572260D01*
G01X-197050D02*
X-279300D01*
G01X-197050Y-1470660D02*
X-279300D01*
G01X-292300Y-1496060D02*
X-217280D01*
G02X-212790Y-1497920I0J-6350D01*
G01X-197050Y-1513660D01*
G01X-292300Y-1496060D02*
X-302840Y-1485520D01*
G02X-304700Y-1481030I4490J4490D01*
G01Y-1470660D01*
G01X-197050Y-1369060D02*
X-279300D01*
G01X-292300Y-1394460D02*
X-217280D01*
G02X-212790Y-1396320I0J-6350D01*
G01X-197050Y-1412060D01*
G01X-292300Y-1394460D02*
X-302840Y-1383920D01*
G02X-304700Y-1379430I4490J4490D01*
G01Y-1369060D01*
G01X-292300Y-1292860D02*
X-217280D01*
G02X-212790Y-1294720I0J-6350D01*
G01X-197050Y-1310460D01*
G01X-292300Y-1292860D02*
X-302840Y-1282320D01*
G02X-304700Y-1277830I4490J4490D01*
G01Y-1267460D01*
G01X-197050D02*
X-279300D01*
G01X-292300Y-930910D02*
X-217280D01*
G02X-212790Y-932770I0J-6350D01*
G01X-197050Y-948510D01*
G01X-292300Y-930910D02*
X-302840Y-920370D01*
G02X-304700Y-915880I4490J4490D01*
G01Y-905510D01*
G01X-292300Y-829310D02*
X-302840Y-818770D01*
G02X-304700Y-814280I4490J4490D01*
G01Y-803910D01*
G01X-197050Y-905510D02*
X-279300D01*
G01X-197050Y-803910D02*
X-279300D01*
G01X-292300Y-829310D02*
X-217280D01*
G02X-212790Y-831170I0J-6350D01*
G01X-197050Y-846910D01*
G01Y-702310D02*
X-279300D01*
G01X-292300Y-727710D02*
X-217280D01*
G02X-212790Y-729570I0J-6350D01*
G01X-197050Y-745310D01*
G01X-292300Y-727710D02*
X-302840Y-717170D01*
G02X-304700Y-712680I4490J4490D01*
G01Y-702310D01*
G01X-292300Y-626110D02*
X-217280D01*
G02X-212790Y-627970I0J-6350D01*
G01X-197050Y-643710D01*
G01X-292300Y-626110D02*
X-302840Y-615570D01*
G02X-304700Y-611080I4490J4490D01*
G01Y-600710D01*
G01X-292300Y-524510D02*
X-302840Y-513970D01*
G02X-304700Y-509480I4490J4490D01*
G01Y-499110D01*
G01X-197050Y-600710D02*
X-279300D01*
G01X-197050Y-499110D02*
X-279300D01*
G01X-292300Y-524510D02*
X-217280D01*
G02X-212790Y-526370I0J-6350D01*
G01X-197050Y-542110D01*
G01Y-397510D02*
X-279300D01*
G01X-292300Y-422910D02*
X-217280D01*
G02X-212790Y-424770I0J-6350D01*
G01X-197050Y-440510D01*
G01X-292300Y-422910D02*
X-302840Y-412370D01*
G02X-304700Y-407880I4490J4490D01*
G01Y-397510D01*
G01X-292300Y-321310D02*
X-217280D01*
G02X-212790Y-323170I0J-6350D01*
G01X-197050Y-338910D01*
G01X-292300Y-321310D02*
X-302840Y-310770D01*
G02X-304700Y-306280I4490J4490D01*
G01Y-295910D01*
G01X-197050D02*
X-279300D01*
G01X-304700Y-194310D02*
Y-204680D01*
G03X-302840Y-209170I6350J0D01*
G01X-292300Y-219710D01*
G01X-197050Y-194310D02*
X-279300D01*
G01X-292300Y-219710D02*
X-217280D01*
G02X-212790Y-221570I0J-6350D01*
G01X-197050Y-237310D01*
G01X-133550Y-1978660D02*
X-197050D01*
G01X-82750D02*
X-106290Y-2002200D01*
G02X-110780Y-2004060I-4490J4490D01*
G01X-176820D01*
G03X-181310Y-2005920I0J-6350D01*
G01X-197050Y-2021660D01*
G01X-82750Y-1877060D02*
X-106290Y-1900600D01*
G02X-110780Y-1902460I-4490J4490D01*
G01X-176820D01*
G03X-181310Y-1904320I0J-6350D01*
G01X-197050Y-1920060D01*
G01X-133550Y-1877060D02*
X-197050D01*
G01X-133550Y-1775460D02*
X-197050D01*
G01X-82750D02*
X-106290Y-1799000D01*
G02X-110780Y-1800860I-4490J4490D01*
G01X-176820D01*
G03X-181310Y-1802720I0J-6350D01*
G01X-197050Y-1818460D01*
G01X-133550Y-1673860D02*
X-197050D01*
G01X-82750D02*
X-106290Y-1697400D01*
G02X-110780Y-1699260I-4490J4490D01*
G01X-176820D01*
G03X-181310Y-1701120I0J-6350D01*
G01X-197050Y-1716860D01*
G01X-82750Y-1572260D02*
X-106290Y-1595800D01*
G02X-110780Y-1597660I-4490J4490D01*
G01X-176820D01*
G03X-181310Y-1599520I0J-6350D01*
G01X-197050Y-1615260D01*
G01X-133550Y-1572260D02*
X-197050D01*
G01X-133550Y-1470660D02*
X-197050D01*
G01X-82750D02*
X-106290Y-1494200D01*
G02X-110780Y-1496060I-4490J4490D01*
G01X-176820D01*
G03X-181310Y-1497920I0J-6350D01*
G01X-197050Y-1513660D01*
G01X-133550Y-1369060D02*
X-197050D01*
G01X-82750D02*
X-106290Y-1392600D01*
G02X-110780Y-1394460I-4490J4490D01*
G01X-176820D01*
G03X-181310Y-1396320I0J-6350D01*
G01X-197050Y-1412060D01*
G01X-82750Y-1267460D02*
X-106290Y-1291000D01*
G02X-110780Y-1292860I-4490J4490D01*
G01X-176820D01*
G03X-181310Y-1294720I0J-6350D01*
G01X-197050Y-1310460D01*
G01X-133550Y-1267460D02*
X-197050D01*
G01X-82750Y-905510D02*
X-106290Y-929050D01*
G02X-110780Y-930910I-4490J4490D01*
G01X-176820D01*
G03X-181310Y-932770I0J-6350D01*
G01X-197050Y-948510D01*
G01X-82750Y-803910D02*
X-106290Y-827450D01*
G02X-110780Y-829310I-4490J4490D01*
G01X-176820D01*
G03X-181310Y-831170I0J-6350D01*
G01X-197050Y-846910D01*
G01X-133550Y-905510D02*
X-197050D01*
G01X-133550Y-803910D02*
X-197050D01*
G01X-133550Y-702310D02*
X-197050D01*
G01X-82750D02*
X-106290Y-725850D01*
G02X-110780Y-727710I-4490J4490D01*
G01X-176820D01*
G03X-181310Y-729570I0J-6350D01*
G01X-197050Y-745310D01*
G01X-82750Y-600710D02*
X-106290Y-624250D01*
G02X-110780Y-626110I-4490J4490D01*
G01X-176820D01*
G03X-181310Y-627970I0J-6350D01*
G01X-197050Y-643710D01*
G01X-82750Y-499110D02*
X-106290Y-522650D01*
G02X-110780Y-524510I-4490J4490D01*
G01X-176820D01*
G03X-181310Y-526370I0J-6350D01*
G01X-197050Y-542110D01*
G01X-133550Y-600710D02*
X-197050D01*
G01X-133550Y-499110D02*
X-197050D01*
G01X-133550Y-397510D02*
X-197050D01*
G01X-82750D02*
X-106290Y-421050D01*
G02X-110780Y-422910I-4490J4490D01*
G01X-176820D01*
G03X-181310Y-424770I0J-6350D01*
G01X-197050Y-440510D01*
G01X-82750Y-295910D02*
X-106290Y-319450D01*
G02X-110780Y-321310I-4490J4490D01*
G01X-176820D01*
G03X-181310Y-323170I0J-6350D01*
G01X-197050Y-338910D01*
G01X-133550Y-295910D02*
X-197050D01*
G01X-82750Y-194310D02*
X-106290Y-217850D01*
G02X-110780Y-219710I-4490J4490D01*
G01X-176820D01*
G03X-181310Y-221570I0J-6350D01*
G01X-197050Y-237310D01*
G01X-133550Y-194310D02*
X-197050D01*
X-968100Y-2167470D03*
Y-2067470D03*
Y-1967470D03*
Y-1867470D03*
Y-1767470D03*
Y-1667470D03*
Y-1567470D03*
Y-1467470D03*
Y-1266200D03*
Y-1166200D03*
Y-1066200D03*
Y-966200D03*
Y-866200D03*
Y-766200D03*
Y-666200D03*
Y-566200D03*
Y-466200D03*
Y-366200D03*
Y-266200D03*
Y-166200D03*
Y-66200D03*
X-965400Y15240D03*
X-908050Y-2222500D03*
X-920950Y-2200910D03*
X-908050Y0D03*
X-844550Y-2241550D03*
X-813000Y-2188210D03*
X-870150Y-2194560D03*
X-868510Y-2136790D03*
X-825700Y-2067560D03*
X-838400Y-2099310D03*
X-832050Y-2010410D03*
X-867850Y-2036790D03*
X-863800Y-1959610D03*
X-813000D03*
X-832050Y-1858010D03*
X-844750Y-1635760D03*
X-877570Y-1282040D03*
Y-1182040D03*
Y-1082040D03*
Y-982040D03*
Y-882040D03*
Y-782040D03*
X-805580Y-704750D03*
X-877570Y-682040D03*
Y-582040D03*
X-832050Y-454660D03*
X-819350Y-467360D03*
X-806650Y-480060D03*
X-877570Y-482040D03*
X-868100Y-320610D03*
Y-220610D03*
X-836570Y-75710D03*
X-844750Y15240D03*
X-742950Y-2241550D03*
X-730450Y-2162810D03*
X-768550Y-2169160D03*
X-743150Y-2194560D03*
X-755850Y-2080260D03*
X-774900Y-1985010D03*
Y-2035810D03*
Y-1915160D03*
Y-1743710D03*
X-747190Y-1796390D03*
X-741570Y-1710680D03*
X-793950Y-1635760D03*
X-800200Y-1515860D03*
X-793950Y-1584960D03*
X-800300Y-1369060D03*
Y-1400810D03*
Y-1305560D03*
Y-1203960D03*
Y-1102360D03*
Y-1000760D03*
Y-905510D03*
X-781250Y-835660D03*
X-768550Y-848360D03*
X-755850Y-861060D03*
X-743150Y-873760D03*
X-730450Y-886460D03*
Y-759460D03*
X-800300Y-803910D03*
X-786660Y-606550D03*
X-780750Y-531360D03*
X-768050Y-544060D03*
X-755850Y-556260D03*
X-793950Y-492760D03*
Y-518160D03*
X-780670Y-506730D03*
X-748160Y-441140D03*
X-772080Y-353620D03*
X-762420Y-175710D03*
X-736570Y-75710D03*
X-730450Y15240D03*
X-679650Y-2175510D03*
X-698700Y-2061210D03*
X-654200Y-2079860D03*
X-705050Y-2004060D03*
X-717750Y-1959600D03*
X-715730Y-1825830D03*
X-650790Y-1769810D03*
X-666950Y-1718310D03*
X-723030Y-1612410D03*
X-658970Y-1648160D03*
X-724200Y-1515860D03*
X-656220Y-1450540D03*
X-724100Y-1369060D03*
X-723030Y-1412410D03*
Y-1312410D03*
X-710680Y-1268780D03*
X-724100Y-1203960D03*
Y-1102360D03*
Y-1000760D03*
X-685410Y-943450D03*
X-717750Y-918210D03*
X-705050Y-930910D03*
X-717750Y-899160D03*
X-685710Y-811890D03*
X-660600Y-708660D03*
X-724100Y-651510D03*
X-652620Y-638510D03*
X-726190Y-570780D03*
X-718000Y-506000D03*
X-721870Y-267120D03*
X-662420Y-175710D03*
X-641350Y-2241550D03*
X-641550Y-2188210D03*
X-647900Y-2143760D03*
X-597100Y-2162810D03*
X-641550Y-2061210D03*
X-590750D03*
X-597100Y-2086610D03*
X-578050Y-2004060D03*
X-616150Y-2029460D03*
X-641550Y-1965960D03*
X-647900Y-1591310D03*
X-618200Y-1509860D03*
X-646800Y-1368780D03*
X-642400Y-1399820D03*
X-623030Y-1310730D03*
Y-1210730D03*
X-617370Y-1119000D03*
Y-1019000D03*
X-585540Y-938330D03*
X-606940Y-750290D03*
X-647900Y-581660D03*
X-609800Y-499110D03*
X-648160Y-441270D03*
X-617770Y-365190D03*
Y-265190D03*
X-636570Y-75710D03*
X-628850Y15240D03*
X-520700Y-2241550D03*
X-552650Y-2175510D03*
X-530500Y-2178010D03*
X-546300Y-2048510D03*
X-571700Y-1953260D03*
X-529570Y-1865490D03*
X-499530Y-1846040D03*
X-552650Y-1750060D03*
X-534200Y-1695860D03*
X-517770Y-1592740D03*
X-524000Y-1468000D03*
X-556240Y-1452640D03*
X-547130Y-1360640D03*
X-542400Y-1399820D03*
X-517370Y-1265170D03*
Y-1165170D03*
Y-1065170D03*
Y-965170D03*
Y-865170D03*
X-508660Y-768790D03*
X-517770Y-692740D03*
Y-592740D03*
X-516000Y-458000D03*
X-517770Y-392740D03*
X-548170Y-442990D03*
X-517770Y-292740D03*
Y-192740D03*
X-520900Y15240D03*
X-495500Y-2004060D03*
X-429900Y-2011940D03*
X-494200Y-1929860D03*
X-452200Y-1931860D03*
X-438200Y-1901860D03*
X-485620Y-1728900D03*
Y-1628900D03*
X-470100Y-1483360D03*
X-420000Y-1362000D03*
X-427470Y-1319910D03*
X-486330Y-1266260D03*
Y-1166260D03*
Y-1066260D03*
Y-966260D03*
X-442200Y-861860D03*
X-424200Y-841860D03*
X-486330Y-866260D03*
X-472920Y-844610D03*
Y-744610D03*
Y-644610D03*
X-452200Y-511860D03*
Y-485860D03*
X-430000Y-376000D03*
X-440170Y-311960D03*
X-425650Y-181610D03*
X-491200Y-105800D03*
X-417770Y-1966040D03*
Y-1866040D03*
X-422200Y-1813860D03*
X-417770Y-1766040D03*
X-419300Y-1432560D03*
X-417770Y-1266040D03*
Y-1166040D03*
Y-1066040D03*
Y-966040D03*
X-418200Y-897860D03*
Y-785860D03*
Y-543860D03*
Y-453860D03*
X-391200Y-118380D03*
Y-18380D03*
X-393900Y15240D03*
X-88900Y-2222500D03*
Y0D03*
G54D12*
X-889200Y-2171700D03*
X-940000D03*
X-889200Y-1943100D03*
X-940000D03*
X-889200Y-1689100D03*
X-940000D03*
X-889200Y-1435100D03*
X-940000D03*
X-628650Y-1162050D03*
X-380900Y-2029460D03*
Y-1927860D03*
Y-1826260D03*
Y-1724660D03*
Y-1623060D03*
Y-1521460D03*
Y-1419860D03*
Y-1318260D03*
Y-956310D03*
Y-854710D03*
Y-753110D03*
Y-651510D03*
Y-549910D03*
Y-448310D03*
Y-346710D03*
Y-245110D03*
G54D21*
X-673050Y-1527810D03*
Y-1566910D03*
X-705050D03*
Y-1527810D03*
X-673050Y-1464310D03*
Y-1503410D03*
X-705050D03*
Y-1464310D03*
X-666700Y-557260D03*
X-698700D03*
X-666700Y-518160D03*
X-698700D03*
X-666700Y-454660D03*
Y-493760D03*
X-698700D03*
Y-454660D03*
G54D30*
X-133550Y-2029460D03*
Y-1978660D03*
Y-1927860D03*
Y-1826260D03*
Y-1877060D03*
Y-1775460D03*
Y-1673860D03*
Y-1724660D03*
Y-1623060D03*
Y-1521460D03*
Y-1572260D03*
Y-1470660D03*
Y-1369060D03*
Y-1419860D03*
Y-1318260D03*
Y-956310D03*
Y-905510D03*
Y-854710D03*
Y-753110D03*
Y-803910D03*
Y-702310D03*
Y-600710D03*
Y-651510D03*
Y-549910D03*
Y-448310D03*
Y-499110D03*
Y-397510D03*
Y-295910D03*
Y-346710D03*
Y-245110D03*
X-82750Y-2029460D03*
Y-1978660D03*
Y-1927860D03*
Y-1826260D03*
Y-1877060D03*
Y-1775460D03*
Y-1673860D03*
Y-1724660D03*
Y-1623060D03*
Y-1521460D03*
Y-1572260D03*
Y-1470660D03*
Y-1369060D03*
Y-1419860D03*
Y-1318260D03*
Y-956310D03*
Y-905510D03*
Y-854710D03*
Y-753110D03*
Y-803910D03*
Y-702310D03*
Y-600710D03*
Y-651510D03*
Y-549910D03*
Y-448310D03*
Y-499110D03*
Y-397510D03*
Y-295910D03*
Y-346710D03*
Y-245110D03*
G54D31*
X-133550Y-1267460D03*
Y-194310D03*
X-82750Y-1267460D03*
Y-194310D03*
G54D22*
X-673050Y-1541010D03*
Y-1553710D03*
X-705050D03*
Y-1541010D03*
X-673050Y-1477510D03*
Y-1490210D03*
X-705050D03*
Y-1477510D03*
X-666700Y-531360D03*
Y-544060D03*
X-698700D03*
Y-531360D03*
X-666700Y-467860D03*
Y-480560D03*
X-698700D03*
Y-467860D03*
G54D13*
X-889200Y-2120900D03*
Y-2146300D03*
X-940000Y-2120900D03*
Y-2146300D03*
X-889200Y-2044700D03*
Y-2070100D03*
Y-2095500D03*
X-940000Y-2044700D03*
Y-2070100D03*
Y-2095500D03*
X-889200Y-1968500D03*
Y-1993900D03*
Y-2019300D03*
X-940000Y-1968500D03*
Y-1993900D03*
Y-2019300D03*
X-889200Y-1892300D03*
Y-1917700D03*
X-940000Y-1892300D03*
Y-1917700D03*
X-889200Y-1816100D03*
Y-1841500D03*
Y-1866900D03*
X-940000Y-1816100D03*
Y-1841500D03*
Y-1866900D03*
X-889200Y-1739900D03*
Y-1765300D03*
Y-1790700D03*
X-940000Y-1739900D03*
Y-1765300D03*
Y-1790700D03*
X-889200Y-1663700D03*
Y-1714500D03*
X-940000Y-1663700D03*
Y-1714500D03*
X-889200Y-1587500D03*
Y-1612900D03*
Y-1638300D03*
X-940000Y-1587500D03*
Y-1612900D03*
Y-1638300D03*
X-889200Y-1511300D03*
Y-1536700D03*
Y-1562100D03*
X-940000Y-1511300D03*
Y-1536700D03*
Y-1562100D03*
X-889200Y-1460500D03*
Y-1485900D03*
X-940000Y-1460500D03*
Y-1485900D03*
X-889200Y-1384300D03*
Y-1409700D03*
X-940000Y-1384300D03*
Y-1409700D03*
X-380900Y-1978660D03*
Y-1877060D03*
Y-1775460D03*
Y-1673860D03*
Y-1572260D03*
Y-1470660D03*
Y-1369060D03*
Y-1267460D03*
Y-905510D03*
Y-803910D03*
Y-702310D03*
Y-600710D03*
Y-499110D03*
Y-397510D03*
Y-295910D03*
Y-194310D03*
X-330100Y-1978660D03*
X-304700D03*
X-279300D03*
Y-2029460D03*
X-304700D03*
X-330100D03*
X-279300Y-1927860D03*
X-304700D03*
X-330100D03*
Y-1877060D03*
X-304700D03*
X-279300D03*
Y-1826260D03*
X-304700D03*
X-330100D03*
Y-1775460D03*
X-304700D03*
X-279300D03*
X-330100Y-1673860D03*
X-304700D03*
X-279300D03*
Y-1724660D03*
X-304700D03*
X-330100D03*
X-279300Y-1623060D03*
X-304700D03*
X-330100D03*
Y-1572260D03*
X-304700D03*
X-279300D03*
Y-1521460D03*
X-304700D03*
X-330100D03*
Y-1470660D03*
X-304700D03*
X-279300D03*
X-330100Y-1369060D03*
X-304700D03*
X-279300D03*
Y-1419860D03*
X-304700D03*
X-330100D03*
X-279300Y-1318260D03*
X-304700D03*
X-330100D03*
Y-1267460D03*
X-304700D03*
X-279300D03*
X-330100Y-905510D03*
X-304700D03*
X-279300D03*
Y-956310D03*
X-304700D03*
X-330100D03*
X-279300Y-854710D03*
X-304700D03*
X-330100D03*
Y-803910D03*
X-304700D03*
X-279300D03*
Y-753110D03*
X-304700D03*
X-330100D03*
Y-702310D03*
X-304700D03*
X-279300D03*
X-330100Y-600710D03*
X-304700D03*
X-279300D03*
Y-651510D03*
X-304700D03*
X-330100D03*
X-279300Y-549910D03*
X-304700D03*
X-330100D03*
Y-499110D03*
X-304700D03*
X-279300D03*
Y-448310D03*
X-304700D03*
X-330100D03*
Y-397510D03*
X-304700D03*
X-279300D03*
X-330100Y-295910D03*
X-304700D03*
X-279300D03*
Y-346710D03*
X-304700D03*
X-330100D03*
X-279300Y-245110D03*
X-304700D03*
X-330100D03*
Y-194310D03*
X-304700D03*
X-279300D03*
G54D32*
X0Y-2222500D03*
Y0D03*
G54D14*
X-889200Y-1315460D03*
Y-1346460D03*
X-578050Y-2213610D03*
Y-2182610D03*
G54D23*
X-584400Y-1811310D03*
X-597100D03*
X-609800D03*
X-622500D03*
X-635200D03*
X-647900D03*
Y-1718310D03*
X-635200D03*
X-622500D03*
X-609800D03*
X-597100D03*
X-584400D03*
X-590750Y-801660D03*
X-603450D03*
X-616150D03*
X-628850D03*
X-641550D03*
Y-708660D03*
X-628850D03*
X-616150D03*
X-603450D03*
X-590750D03*
X-546300Y-1811310D03*
X-559000D03*
X-571700D03*
Y-1718310D03*
X-559000D03*
X-546300D03*
X-539950Y-801660D03*
X-552650D03*
X-565350D03*
X-578050D03*
Y-708660D03*
X-565350D03*
X-552650D03*
X-539950D03*
G54D33*
G01X-792350Y-2161060D02*
Y-2213610D01*
G01X-647900Y-2105660D02*
X-676450D01*
G01X-616150D02*
X-647900D01*
G01X-609800Y-1656560D02*
Y-1654810D01*
G01X-529550Y-2131060D02*
Y-2142540D01*
X-529000Y-2143090D01*
Y-2156460D01*
G01X-489150Y-2169160D02*
X-505580D01*
G02X-510070Y-2167300I0J6350D01*
G01X-519050Y-2158320D01*
G03X-523540Y-2156460I-4490J-4490D01*
G01X-529000D01*
G01X-380900Y-1673860D02*
X-411090Y-1643670D01*
G02X-412950Y-1639180I4490J4490D01*
G01Y-1562190D01*
G03X-414810Y-1557700I-6350J0D01*
G01X-449190Y-1523320D01*
G03X-453680Y-1521460I-4490J-4490D01*
G01X-548550D01*
G01X-380900Y-1775460D02*
X-423790Y-1732570D01*
G02X-425650Y-1728080I4490J4490D01*
G01Y-1568540D01*
G03X-427510Y-1564050I-6350J0D01*
G01X-455540Y-1536020D01*
G03X-460030Y-1534160I-4490J-4490D01*
G01X-548550D01*
G01X-380900Y-1877060D02*
X-436490Y-1821470D01*
G02X-438350Y-1816980I4490J4490D01*
G01Y-1574890D01*
G03X-440210Y-1570400I-6350J0D01*
G01X-461890Y-1548720D01*
G03X-466380Y-1546860I-4490J-4490D01*
G01X-548550D01*
G01X-380900Y-1978660D02*
X-449190Y-1910370D01*
G02X-451050Y-1905880I4490J4490D01*
G01Y-1581240D01*
G03X-452910Y-1576750I-6350J0D01*
G01X-468240Y-1561420D01*
G03X-472730Y-1559560I-4490J-4490D01*
G01X-548550D01*
G01X-380900Y-1267460D02*
X-411090Y-1297650D01*
G03X-412950Y-1302140I4490J-4490D01*
G01Y-1332430D01*
G02X-414810Y-1336920I-6350J0D01*
G01X-548550Y-1470660D01*
G01X-380900Y-1369060D02*
X-493340Y-1481500D01*
G02X-497830Y-1483360I-4490J4490D01*
G01X-548550D01*
G01X-380900Y-1470660D02*
X-404440Y-1494200D01*
G02X-408930Y-1496060I-4490J4490D01*
G01X-548550D01*
G01X-380900Y-1572260D02*
X-442540Y-1510620D01*
G03X-447030Y-1508760I-4490J-4490D01*
G01X-548550D01*
G01X-380900Y-803910D02*
X-423790Y-761020D01*
G02X-425650Y-756530I4490J4490D01*
G01Y-596990D01*
G03X-427510Y-592500I-6350J0D01*
G01X-480940Y-539070D01*
G03X-485430Y-537210I-4490J-4490D01*
G01X-542200D01*
G01X-380900Y-905510D02*
X-436490Y-849920D01*
G02X-438350Y-845430I4490J4490D01*
G01Y-603360D01*
G03X-440210Y-598870I-6350J0D01*
G01X-487310Y-551770D01*
G03X-491800Y-549910I-4490J-4490D01*
G01X-542200D01*
G01X-380900Y-194310D02*
X-403970D01*
G03X-408460Y-196170I0J-6350D01*
G01X-423790Y-211500D01*
G03X-425650Y-215990I4490J-4490D01*
G01Y-341830D01*
G02X-427510Y-346320I-6350J0D01*
G01X-542200Y-461010D01*
G01X-380900Y-397510D02*
X-467940Y-484550D01*
G02X-472430Y-486410I-4490J4490D01*
G01X-542200D01*
G01X-380900Y-499110D02*
X-542200D01*
G01X-380900Y-600710D02*
X-467940Y-513670D01*
G03X-472430Y-511810I-4490J-4490D01*
G01X-542200D01*
G01X-380900Y-702310D02*
X-411090Y-672120D01*
G02X-412950Y-667630I4490J4490D01*
G01Y-590640D01*
G03X-414810Y-586150I-6350J0D01*
G01X-474590Y-526370D01*
G03X-479080Y-524510I-4490J-4490D01*
G01X-542200D01*
G01X-380900Y-295910D02*
X-411090Y-326100D01*
G03X-412950Y-330590I4490J-4490D01*
G01Y-407580D01*
G02X-414810Y-412070I-6350J0D01*
G01X-474590Y-471850D01*
G02X-479080Y-473710I-4490J4490D01*
G01X-542200D01*
G54D15*
X-817750Y-2131060D03*
Y-2161060D03*
X-792350Y-2131060D03*
Y-2161060D03*
X-584400Y-1686560D03*
X-609800D03*
X-635200D03*
X-584400Y-1656560D03*
X-597100Y-1605760D03*
Y-1635760D03*
X-609800Y-1656560D03*
X-622500Y-1605760D03*
Y-1635760D03*
X-635200Y-1656560D03*
X-628850Y-676910D03*
X-578050D03*
X-603450D03*
X-628850Y-646910D03*
X-578050D03*
X-590750Y-626110D03*
X-603450Y-646910D03*
X-616150Y-626110D03*
X-590750Y-596110D03*
X-616150D03*
X-559000Y-1686560D03*
X-546300Y-1605760D03*
Y-1635760D03*
X-559000Y-1656560D03*
X-571700Y-1605760D03*
Y-1635760D03*
X-552650Y-676910D03*
X-539950Y-626110D03*
X-552650Y-646910D03*
X-565350Y-626110D03*
X-539950Y-596110D03*
X-565350D03*
G54D24*
X-641550Y-1572260D03*
Y-1559560D03*
Y-1546860D03*
Y-1534160D03*
Y-1521460D03*
Y-1508760D03*
Y-1496060D03*
Y-1483360D03*
Y-1470660D03*
X-635200Y-562610D03*
Y-549910D03*
Y-537210D03*
Y-524510D03*
Y-511810D03*
Y-499110D03*
Y-486410D03*
Y-473710D03*
Y-461010D03*
X-548550Y-1521460D03*
Y-1534160D03*
Y-1546860D03*
Y-1559560D03*
Y-1572260D03*
Y-1470660D03*
Y-1483360D03*
Y-1496060D03*
Y-1508760D03*
X-542200Y-537210D03*
Y-549910D03*
Y-562610D03*
Y-461010D03*
Y-473710D03*
Y-486410D03*
Y-499110D03*
Y-511810D03*
Y-524510D03*
G54D34*
G01X-653600Y-1985010D02*
X-567980D01*
G03X-563490Y-1983150I0J6350D01*
G01X-516410Y-1936070D01*
G03X-514550Y-1931580I-4490J4490D01*
G01Y-1800860D01*
G03X-520900Y-1794510I-6350J0D01*
G01X-641550D01*
G03X-647900Y-1800860I0J-6350D01*
G01Y-1811310D01*
G54D16*
X-766950Y-2148060D03*
Y-2131060D03*
X-647900Y-2122660D03*
Y-2105660D03*
X-539950Y-2213610D03*
Y-2196610D03*
G54D25*
X-603250Y-1162050D03*
G54D35*
G01X-889200Y-1384300D02*
X-551470D01*
G03X-546980Y-1382440I0J6350D01*
G01X-503710Y-1339170D01*
G03X-501850Y-1334680I-4490J4490D01*
G01Y-800190D01*
G03X-503710Y-795700I-6350J0D01*
G01X-531740Y-767670D01*
G03X-536230Y-765810I-4490J-4490D01*
G01X-619870D01*
G03X-624360Y-767670I0J-6350D01*
G01X-639690Y-783000D01*
G03X-641550Y-787490I4490J-4490D01*
G01Y-801660D01*
G01X-616150Y-2213610D02*
X-578050D01*
G01X-489150Y-2215160D02*
X-513000D01*
X-514550Y-2213610D01*
X-539950D01*
G01X-578050D02*
X-539950D01*
G01X-380900Y-2029460D02*
X-468240Y-1942120D01*
G02X-470100Y-1937630I4490J4490D01*
G01Y-1593940D01*
G03X-471960Y-1589450I-6350J0D01*
G01X-487290Y-1574120D01*
G03X-491780Y-1572260I-4490J-4490D01*
G01X-548550D01*
G01X-380900Y-956310D02*
X-455540Y-881670D01*
G02X-457400Y-877180I4490J4490D01*
G01Y-609690D01*
G03X-459260Y-605200I-6350J0D01*
G01X-499990Y-564470D01*
G03X-504480Y-562610I-4490J-4490D01*
G01X-542200D01*
G54D26*
X-554950Y-2099310D03*
X-524950D03*
G54D17*
X-730450Y-2143760D03*
Y-2131060D03*
Y-2118360D03*
Y-2105660D03*
X-676450Y-2131060D03*
Y-2143760D03*
Y-2105660D03*
Y-2118360D03*
G54D36*
G01X-889200Y-1866900D02*
X-833910Y-1922190D01*
G02X-832050Y-1926680I-4490J-4490D01*
G01Y-1979030D01*
G03X-830190Y-1983520I6350J0D01*
G01X-803300Y-2010410D01*
G01X-889200Y-1841500D02*
X-825790D01*
G02X-821300Y-1843360I0J-6350D01*
G01X-732310Y-1932350D01*
G03X-727820Y-1934210I4490J4490D01*
G01X-654250D01*
G01X-889200Y-1892300D02*
X-846610Y-1934890D01*
G02X-844750Y-1939380I-4490J-4490D01*
G01Y-2071280D01*
G03X-842890Y-2075770I6350J0D01*
G01X-821210Y-2097450D01*
G03X-816720Y-2099310I4490J4490D01*
G01X-804900D01*
G01X-889200Y-1765300D02*
X-863900D01*
G02X-859410Y-1767160I0J-6350D01*
G01X-732320Y-1894250D01*
G03X-727830Y-1896110I4490J4490D01*
G01X-705050D01*
G01X-889200Y-1790700D02*
X-851190D01*
G02X-846700Y-1792560I0J-6350D01*
G01X-732310Y-1906950D01*
G03X-727820Y-1908810I4490J4490D01*
G01X-654250D01*
G01X-889200Y-1816100D02*
X-838490D01*
G02X-834000Y-1817960I0J-6350D01*
G01X-732310Y-1919650D01*
G03X-727820Y-1921510I4490J4490D01*
G01X-705050D01*
G01X-889200Y-1689100D02*
X-863890D01*
G02X-859400Y-1690960I0J-6350D01*
G01X-783110Y-1767250D01*
G02X-781250Y-1771740I-4490J-4490D01*
G01Y-1791890D01*
G03X-779390Y-1796380I6350J0D01*
G01X-719620Y-1856150D01*
G03X-715130Y-1858010I4490J4490D01*
G01X-654250D01*
G01X-889200Y-1714500D02*
X-851190D01*
G02X-846700Y-1716360I0J-6350D01*
G01X-789460Y-1773600D01*
G02X-787600Y-1778090I-4490J-4490D01*
G01Y-1798230D01*
G03X-785740Y-1802720I6350J0D01*
G01X-719610Y-1868850D01*
G03X-715120Y-1870710I4490J4490D01*
G01X-705050D01*
G01X-889200Y-1739900D02*
X-876590D01*
G02X-872100Y-1741760I0J-6350D01*
G01X-732310Y-1881550D01*
G03X-727820Y-1883410I4490J4490D01*
G01X-654250D01*
G01X-889200Y-1612900D02*
X-856260D01*
G03X-851770Y-1611040I0J6350D01*
G01X-796300Y-1555570D01*
G02X-791810Y-1553710I4490J-4490D01*
G01X-705050D01*
G01X-889200Y-1638300D02*
X-868970D01*
G03X-864480Y-1636440I0J6350D01*
G01X-796810Y-1568770D01*
G02X-792320Y-1566910I4490J-4490D01*
G01X-705050D01*
G01X-889200Y-1663700D02*
X-876590D01*
G02X-872100Y-1665560I0J-6350D01*
G01X-776760Y-1760900D01*
G02X-774900Y-1765390I-4490J-4490D01*
G01Y-1785530D01*
G03X-773040Y-1790020I6350J0D01*
G01X-719610Y-1843450D01*
G03X-715120Y-1845310I4490J4490D01*
G01X-705050D01*
G01X-889200Y-1536700D02*
X-875320D01*
G03X-870830Y-1534840I0J6350D01*
G01X-841260Y-1505270D01*
G02X-836770Y-1503410I4490J-4490D01*
G01X-705050D01*
G01X-889200Y-1562100D02*
X-856770Y-1529670D01*
G02X-852280Y-1527810I4490J-4490D01*
G01X-705050D01*
G01X-889200Y-1587500D02*
X-843570D01*
G03X-839080Y-1585640I0J6350D01*
G01X-796310Y-1542870D01*
G02X-791820Y-1541010I4490J-4490D01*
G01X-705050D01*
G01X-889200Y-1460500D02*
X-887250Y-1462450D01*
G03X-882760Y-1464310I4490J4490D01*
G01X-705050D01*
G01X-889200Y-1485900D02*
X-882670Y-1479370D01*
G02X-878180Y-1477510I4490J-4490D01*
G01X-705050D01*
G01X-889200Y-1511300D02*
X-862620D01*
G03X-858130Y-1509440I0J6350D01*
G01X-840760Y-1492070D01*
G02X-836270Y-1490210I4490J-4490D01*
G01X-705050D01*
G01X-817750Y-2131060D02*
X-792350D01*
G01X-832050Y-454660D02*
X-698700D01*
G01Y-467860D02*
X-699200Y-467360D01*
X-819350D01*
G01X-730450Y-2131060D02*
X-766950D01*
G01X-792350D02*
X-766950D01*
G01X-774900Y-2099310D02*
X-758480D01*
G02X-753990Y-2101170I0J-6350D01*
G01X-751360Y-2103800D01*
G03X-746870Y-2105660I4490J4490D01*
G01X-730450D01*
G01X-740600Y-2010410D02*
X-773300D01*
G01X-698700Y-835660D02*
X-781250D01*
G01X-647900Y-848360D02*
X-768550D01*
G01X-698700Y-861060D02*
X-755850D01*
G01X-647900Y-873760D02*
X-743150D01*
G01X-698700Y-531360D02*
X-780750D01*
G01X-698700Y-544060D02*
X-768050D01*
G01X-698700Y-557260D02*
X-753440D01*
G02X-755850Y-556260I-2J3400D01*
G01X-698700Y-480560D02*
X-699200Y-480060D01*
X-806650D01*
G01X-698700Y-493760D02*
G03X-701110Y-492760I-2408J-2400D01*
G01X-793950D01*
G01X-698700Y-518160D02*
X-793950D01*
G01X-676450Y-2131060D02*
X-683370D01*
G02X-687860Y-2129200I0J6350D01*
G01X-698700Y-2118360D01*
G01X-676450Y-2143760D02*
X-683380D01*
G02X-687870Y-2141900I0J6350D01*
G01X-696850Y-2132920D01*
G03X-701340Y-2131060I-4490J-4490D01*
G01X-730450D01*
G01X-686000Y-2080260D02*
X-698700D01*
G01X-641550Y-2061210D02*
X-679650D01*
G03X-686000Y-2067560I0J-6350D01*
G01Y-2080260D01*
G01X-711400D02*
X-698700D01*
G01Y-2118360D02*
Y-2080260D01*
G01X-730450Y-2118360D02*
X-698700D01*
G01X-675050Y-1921510D02*
X-587030D01*
G03X-582540Y-1919650I0J6350D01*
G01X-560860Y-1897970D01*
G03X-559000Y-1893480I-4490J4490D01*
G01Y-1811310D01*
G01X-675050Y-1896110D02*
X-606080D01*
G03X-601590Y-1894250I0J6350D01*
G01X-586260Y-1878920D01*
G03X-584400Y-1874430I-4490J4490D01*
G01Y-1811310D01*
G01X-675050Y-1870710D02*
X-616150D01*
G03X-609800Y-1864360I0J6350D01*
G01Y-1811310D01*
G01X-675050Y-1845310D02*
X-656880D01*
G03X-652390Y-1843450I0J6350D01*
G01X-637060Y-1828120D01*
G03X-635200Y-1823630I-4490J4490D01*
G01Y-1811310D01*
G01X-641550Y-1546860D02*
X-651620D01*
G03X-656110Y-1548720I0J-6350D01*
G01X-658740Y-1551350D01*
G02X-663230Y-1553210I-4490J4490D01*
G01X-672550D01*
X-673050Y-1553710D01*
G01X-641550Y-1534160D02*
X-651620D01*
G03X-656110Y-1536020I0J-6350D01*
G01X-658740Y-1538650D01*
G02X-663230Y-1540510I-4490J4490D01*
G01X-672550D01*
X-673050Y-1541010D01*
G01X-641550Y-1521460D02*
X-664070D01*
G03X-668560Y-1523320I0J-6350D01*
G01X-673050Y-1527810D01*
G01X-641550Y-1559560D02*
X-651620D01*
G03X-656110Y-1561420I0J-6350D01*
G01X-659740Y-1565050D01*
G02X-664230Y-1566910I-4490J4490D01*
G01X-673050D01*
G01X-641550Y-1508760D02*
X-665070D01*
G02X-669560Y-1506900I0J6350D01*
G01X-673050Y-1503410D01*
G01X-641550Y-1483360D02*
X-651620D01*
G02X-656110Y-1481500I0J6350D01*
G01X-658240Y-1479370D01*
G03X-662730Y-1477510I-4490J-4490D01*
G01X-673050D01*
G01X-641550Y-1470660D02*
X-651620D01*
G02X-656110Y-1468800I0J6350D01*
G01X-658740Y-1466170D01*
G03X-663230Y-1464310I-4490J-4490D01*
G01X-673050D01*
G01X-641550Y-1496060D02*
X-651620D01*
G02X-656110Y-1494200I0J6350D01*
G01X-658240Y-1492070D01*
G03X-662730Y-1490210I-4490J-4490D01*
G01X-673050D01*
G01X-698700Y-911860D02*
X-708770D01*
G03X-713260Y-913720I0J-6350D01*
G01X-717750Y-918210D01*
G01X-647900Y-924560D02*
X-696070D01*
G03X-700560Y-926420I0J-6350D01*
G01X-705050Y-930910D01*
G01X-668700Y-911860D02*
X-580680D01*
G03X-576190Y-910000I0J6350D01*
G01X-554510Y-888320D01*
G03X-552650Y-883830I-4490J4490D01*
G01Y-801660D01*
G01X-698700Y-886460D02*
X-730450D01*
G01X-647900Y-899160D02*
X-717750D01*
G01X-668700Y-886460D02*
X-599730D01*
G03X-595240Y-884600I0J6350D01*
G01X-579910Y-869270D01*
G03X-578050Y-864780I-4490J4490D01*
G01Y-801660D01*
G01X-668700Y-861060D02*
X-609800D01*
G03X-603450Y-854710I0J6350D01*
G01Y-801660D01*
G01X-668700Y-835660D02*
X-650530D01*
G03X-646040Y-833800I0J6350D01*
G01X-630710Y-818470D01*
G03X-628850Y-813980I-4490J4490D01*
G01Y-801660D01*
G01X-635200Y-524510D02*
X-645270D01*
G03X-649760Y-526370I0J-6350D01*
G01X-652390Y-529000D01*
G02X-656880Y-530860I-4490J4490D01*
G01X-666200D01*
X-666700Y-531360D01*
G01X-635200Y-537210D02*
X-645270D01*
G03X-649760Y-539070I0J-6350D01*
G01X-652390Y-541700D01*
G02X-656880Y-543560I-4490J4490D01*
G01X-666200D01*
X-666700Y-544060D01*
G01X-635200Y-549910D02*
X-645270D01*
G03X-649760Y-551770I0J-6350D01*
G01X-653390Y-555400D01*
G02X-657880Y-557260I-4490J4490D01*
G01X-666700D01*
G01X-635200Y-499110D02*
X-658720D01*
G02X-663210Y-497250I0J6350D01*
G01X-666700Y-493760D01*
G01X-635200Y-486410D02*
X-645270D01*
G02X-649760Y-484550I0J6350D01*
G01X-651890Y-482420D01*
G03X-656380Y-480560I-4490J-4490D01*
G01X-666700D01*
G01X-635200Y-473710D02*
X-645270D01*
G02X-649760Y-471850I0J6350D01*
G01X-651890Y-469720D01*
G03X-656380Y-467860I-4490J-4490D01*
G01X-666700D01*
G01X-635200Y-511810D02*
X-657720D01*
G03X-662210Y-513670I0J-6350D01*
G01X-666700Y-518160D01*
G01X-635200Y-461010D02*
X-645270D01*
G02X-649760Y-459150I0J6350D01*
G01X-652390Y-456520D01*
G03X-656880Y-454660I-4490J-4490D01*
G01X-666700D01*
G01X-590750Y-2061210D02*
Y-2029460D01*
G01X-624250Y-1934210D02*
X-580680D01*
G03X-576190Y-1932350I0J6350D01*
G01X-548160Y-1904320D01*
G03X-546300Y-1899830I-4490J4490D01*
G01Y-1811310D01*
G01X-624250Y-1908810D02*
X-593380D01*
G03X-588890Y-1906950I0J6350D01*
G01X-573560Y-1891620D01*
G03X-571700Y-1887130I-4490J4490D01*
G01Y-1811310D01*
G01X-624250Y-1883410D02*
X-612430D01*
G03X-607940Y-1881550I0J6350D01*
G01X-598960Y-1872570D01*
G03X-597100Y-1868080I-4490J4490D01*
G01Y-1811310D01*
G01X-624250Y-1858010D02*
G03X-622500Y-1853790I-4210J4219D01*
G01Y-1811310D01*
G01X-635200Y-1686560D02*
Y-1718310D01*
G01X-622500Y-1635760D02*
Y-1718310D01*
G01X-609800Y-1686560D02*
Y-1718310D01*
G01X-597100Y-1635760D02*
Y-1718310D01*
G01X-584400Y-1686560D02*
Y-1718310D01*
G01X-635200Y-1656560D02*
Y-1600290D01*
G02X-633340Y-1595800I6350J0D01*
G01X-611660Y-1574120D01*
G03X-609800Y-1569630I-4490J4490D01*
G01Y-1524090D01*
G02X-607940Y-1519600I6350J0D01*
G01X-560860Y-1472520D01*
G02X-556370Y-1470660I4490J-4490D01*
G01X-548550D01*
G01X-622500Y-1605760D02*
Y-1600300D01*
G02X-620640Y-1595810I6350J0D01*
G01X-605310Y-1580480D01*
G03X-603450Y-1575990I-4490J4490D01*
G01Y-1530440D01*
G02X-601590Y-1525950I6350J0D01*
G01X-560860Y-1485220D01*
G02X-556370Y-1483360I4490J-4490D01*
G01X-548550D01*
G01Y-1496060D02*
X-556370D01*
G03X-560860Y-1497920I0J-6350D01*
G01X-595240Y-1532300D01*
G03X-597100Y-1536790I4490J-4490D01*
G01Y-1582340D01*
G02X-598960Y-1586830I-6350J0D01*
G01X-607940Y-1595810D01*
G03X-609800Y-1600300I4490J-4490D01*
G01Y-1654810D01*
G01X-597100Y-1605760D02*
Y-1600290D01*
G02X-595240Y-1595800I6350J0D01*
G01X-592610Y-1593170D01*
G03X-590750Y-1588680I-4490J4490D01*
G01Y-1543140D01*
G02X-588890Y-1538650I6350J0D01*
G01X-560860Y-1510620D01*
G02X-556370Y-1508760I4490J-4490D01*
G01X-548550D01*
G01X-584400Y-1656560D02*
Y-1549490D01*
G02X-582540Y-1545000I6350J0D01*
G01X-560860Y-1523320D01*
G02X-556370Y-1521460I4490J-4490D01*
G01X-548550D01*
G01X-617900Y-924560D02*
X-574330D01*
G03X-569840Y-922700I0J6350D01*
G01X-541810Y-894670D01*
G03X-539950Y-890180I-4490J4490D01*
G01Y-801660D01*
G01X-617900Y-873760D02*
X-606080D01*
G03X-601590Y-871900I0J6350D01*
G01X-592610Y-862920D01*
G03X-590750Y-858430I-4490J4490D01*
G01Y-801660D01*
G01X-617900Y-848360D02*
G03X-616150Y-844140I-4210J4219D01*
G01Y-801660D01*
G01X-617900Y-899160D02*
X-587030D01*
G03X-582540Y-897300I0J6350D01*
G01X-567210Y-881970D01*
G03X-565350Y-877480I-4490J4490D01*
G01Y-801660D01*
G01X-616150Y-708660D02*
Y-626110D01*
G01X-603450Y-676910D02*
Y-708660D01*
G01X-590750Y-626110D02*
Y-708660D01*
G01X-628850Y-676910D02*
Y-708660D01*
G01Y-646910D02*
Y-590640D01*
G02X-626990Y-586150I6350J0D01*
G01X-605310Y-564470D01*
G03X-603450Y-559980I-4490J4490D01*
G01Y-514440D01*
G02X-601590Y-509950I6350J0D01*
G01X-554510Y-462870D01*
G02X-550020Y-461010I4490J-4490D01*
G01X-542200D01*
G01X-603450Y-646910D02*
Y-590640D01*
G02X-601590Y-586150I6350J0D01*
G01X-592610Y-577170D01*
G03X-590750Y-572680I-4490J4490D01*
G01Y-527140D01*
G02X-588890Y-522650I6350J0D01*
G01X-554510Y-488270D01*
G02X-550020Y-486410I4490J-4490D01*
G01X-542200D01*
G01X-590750Y-596110D02*
Y-590640D01*
G02X-588890Y-586150I6350J0D01*
G01X-586260Y-583520D01*
G03X-584400Y-579030I-4490J4490D01*
G01Y-533490D01*
G02X-582540Y-529000I6350J0D01*
G01X-554510Y-500970D01*
G02X-550020Y-499110I4490J-4490D01*
G01X-542200D01*
G01X-616150Y-596110D02*
Y-590650D01*
G02X-614290Y-586160I6350J0D01*
G01X-598960Y-570830D01*
G03X-597100Y-566340I-4490J4490D01*
G01Y-520790D01*
G02X-595240Y-516300I6350J0D01*
G01X-554510Y-475570D01*
G02X-550020Y-473710I4490J-4490D01*
G01X-542200D01*
G01X-571700Y-1635760D02*
Y-1718310D01*
G01X-559000Y-1686560D02*
Y-1718310D01*
G01X-546300Y-1635760D02*
Y-1718310D01*
G01X-571700Y-1605760D02*
Y-1600280D01*
G03X-573560Y-1595790I-6350J0D01*
G01X-576190Y-1593160D01*
G02X-578050Y-1588670I4490J4490D01*
G01Y-1555840D01*
G02X-576190Y-1551350I6350J0D01*
G01X-560860Y-1536020D01*
G02X-556370Y-1534160I4490J-4490D01*
G01X-548550D01*
G01X-559000Y-1656560D02*
Y-1600280D01*
G03X-560860Y-1595790I-6350J0D01*
G01X-569840Y-1586810D01*
G02X-571700Y-1582320I4490J4490D01*
G01Y-1562190D01*
G02X-569840Y-1557700I6350J0D01*
G01X-560860Y-1548720D01*
G02X-556370Y-1546860I4490J-4490D01*
G01X-548550D01*
G01X-546300Y-1605760D02*
Y-1600280D01*
G03X-548160Y-1595790I-6350J0D01*
G01X-563490Y-1580460D01*
G02X-565350Y-1575970I4490J4490D01*
G01Y-1565910D01*
G02X-559000Y-1559560I6350J0D01*
G01X-548550D01*
G01X-578050Y-676910D02*
Y-708660D01*
G01X-565350Y-626110D02*
Y-708660D01*
G01X-552650Y-676910D02*
Y-708660D01*
G01X-539950Y-626110D02*
Y-708660D01*
G01X-578050Y-646910D02*
Y-539840D01*
G02X-576190Y-535350I6350J0D01*
G01X-554510Y-513670D01*
G02X-550020Y-511810I4490J-4490D01*
G01X-542200D01*
G01X-552650Y-646910D02*
Y-590630D01*
G03X-554510Y-586140I-6350J0D01*
G01X-563490Y-577160D01*
G02X-565350Y-572670I4490J4490D01*
G01Y-552540D01*
G02X-563490Y-548050I6350J0D01*
G01X-554510Y-539070D01*
G02X-550020Y-537210I4490J-4490D01*
G01X-542200D01*
G01X-565350Y-596110D02*
Y-590630D01*
G03X-567210Y-586140I-6350J0D01*
G01X-569840Y-583510D01*
G02X-571700Y-579020I4490J4490D01*
G01Y-546190D01*
G02X-569840Y-541700I6350J0D01*
G01X-554510Y-526370D01*
G02X-550020Y-524510I4490J-4490D01*
G01X-542200D01*
G01X-539950Y-596110D02*
Y-590630D01*
G03X-541810Y-586140I-6350J0D01*
G01X-557140Y-570810D01*
G02X-559000Y-566320I4490J4490D01*
G01Y-556260D01*
G02X-552650Y-549910I6350J0D01*
G01X-542200D01*
G54D27*
X-428150Y-2192160D03*
G54D18*
X-804900Y-2099310D03*
X-774900D03*
X-803300Y-2010410D03*
X-773300D03*
X-675050Y-1896110D03*
X-705050D03*
X-654250Y-1908810D03*
X-675050Y-1921510D03*
X-705050D03*
X-654250Y-1934210D03*
X-675050Y-1845310D03*
X-705050D03*
X-654250Y-1858010D03*
X-675050Y-1870710D03*
X-705050D03*
X-654250Y-1883410D03*
X-668700Y-911860D03*
X-698700D03*
X-668700Y-835660D03*
X-698700D03*
X-668700Y-861060D03*
X-698700D03*
X-668700Y-886460D03*
X-698700D03*
X-624250Y-1908810D03*
Y-1934210D03*
Y-1858010D03*
Y-1883410D03*
X-617900Y-924560D03*
X-647900D03*
X-617900Y-848360D03*
X-647900D03*
X-617900Y-873760D03*
X-647900D03*
X-617900Y-899160D03*
X-647900D03*
X-529550Y-2131060D03*
X-529000Y-2156460D03*
X-559000D03*
X-499550Y-2131060D03*
G54D37*
G01X-669000Y-2080260D02*
X-668600Y-2079860D01*
X-654200D01*
G54D19*
X-740600Y-2035810D03*
Y-2010410D03*
Y-1985010D03*
X-653600D03*
Y-2010410D03*
Y-2035810D03*
G54D28*
X-489150Y-2215160D03*
Y-2192160D03*
Y-2169160D03*
G54D38*
G01X-953040Y-1943100D02*
X-940000D01*
G01X-953040Y-1956140D02*
X-940000Y-1943100D01*
G01X-889200D02*
X-876160D01*
G01X-889200D02*
X-876160Y-1930060D01*
G01X-953040Y-1409700D02*
X-940000D01*
G01X-951220Y-1398480D02*
X-940000Y-1409700D01*
G01X-889200D02*
X-876160D01*
G01X-889200D02*
X-877980Y-1398480D01*
G01X-889200Y-1326250D02*
Y-1315460D01*
G01D02*
Y-1304670D01*
G01X-907990Y-1315460D02*
X-889200D01*
G01D02*
X-870410D01*
G01X-817750Y-2171350D02*
Y-2161060D01*
G01D02*
Y-2150770D01*
G01X-831790Y-2161060D02*
X-817750D01*
G01X-743490Y-2143760D02*
X-730450D01*
G01X-766950Y-2158850D02*
Y-2148060D01*
G01X-779240D02*
X-766950D01*
G01D02*
X-754660D01*
G01X-739190Y-2080260D02*
X-728400D01*
G01X-730450Y-2152050D02*
Y-2143760D01*
G01D02*
X-717410D01*
G01X-728400Y-2092550D02*
Y-2080260D01*
G01D02*
Y-2067970D01*
G01X-647900Y-2133450D02*
Y-2122660D01*
G01X-596840Y-2182610D02*
X-578050D01*
G01X-647900Y-2122660D02*
X-635610D01*
G01X-647900Y-1733600D02*
Y-1718310D01*
G01D02*
Y-1703020D01*
G01X-656190Y-1718310D02*
X-647900D01*
G01X-641550Y-1580550D02*
Y-1572260D01*
G01X-656840D02*
X-641550D01*
G01D02*
X-626260D01*
G01X-603250Y-1175340D02*
Y-1162050D01*
G01D02*
Y-1148760D01*
G01Y-1162050D02*
X-589960D01*
G01X-628650Y-1175090D02*
Y-1162050D01*
G01D02*
Y-1149010D01*
G01X-641690Y-1162050D02*
X-628650D01*
G01X-641550Y-723950D02*
Y-708660D01*
G01D02*
Y-693370D01*
G01X-649840Y-708660D02*
X-641550D01*
G01X-635200Y-570900D02*
Y-562610D01*
G01X-650490D02*
X-635200D01*
G01D02*
X-619910D01*
G01X-559000Y-2170500D02*
Y-2156460D01*
G01D02*
Y-2142420D01*
G01X-569290Y-2156460D02*
X-559000D01*
G01D02*
X-548710D01*
G01X-539950Y-2196610D02*
Y-2185820D01*
G01X-552240Y-2196610D02*
X-539950D01*
G01D02*
X-527660D01*
G01X-578050Y-2193400D02*
Y-2182610D01*
G01D02*
Y-2171820D01*
G01Y-2182610D02*
X-559260D01*
G01X-508840Y-2131060D02*
X-499550D01*
G01X-554950Y-2113600D02*
Y-2099310D01*
G01D02*
Y-2085020D01*
G01X-566490Y-2099310D02*
X-554950D01*
G01X-524950Y-2112600D02*
Y-2099310D01*
G01D02*
Y-2086020D01*
G01Y-2099310D02*
X-514410D01*
G01X-499550Y-2144100D02*
Y-2131060D01*
G01D02*
Y-2118020D01*
G01Y-2131060D02*
X-490260D01*
G01X-470100Y-2087000D02*
Y-2072460D01*
G01D02*
Y-2057920D01*
G01X-484640Y-2072460D02*
X-470100D01*
G01D02*
X-455560D01*
G54D29*
X-470100D03*
Y-2029460D03*
X-197050Y-1978660D03*
Y-2021660D03*
Y-1920060D03*
Y-1818460D03*
Y-1877060D03*
Y-1775460D03*
Y-1673860D03*
Y-1716860D03*
Y-1615260D03*
Y-1513660D03*
Y-1572260D03*
Y-1470660D03*
Y-1369060D03*
Y-1412060D03*
Y-1310460D03*
Y-1267460D03*
Y-905510D03*
Y-948510D03*
Y-846910D03*
Y-803910D03*
Y-702310D03*
Y-745310D03*
Y-600710D03*
Y-643710D03*
Y-542110D03*
Y-499110D03*
Y-397510D03*
Y-440510D03*
Y-295910D03*
Y-338910D03*
Y-237310D03*
Y-194310D03*
M02*
