M48
METRIC,TZ
T01C.5
T02C1.
T03C2.
T04C2.7
T05C2.7
;LEADER: 12 
;HEADER: 
;CODE  : ASCII 
;FILE  : KPRM_02v2-1-2.drl for  ... layers TOP and BOTTOM
;T01 Holesize 1. = 0.500000 Tolerance = +0.000000/-0.000000 PLATED MM Quantity = 220
;T02 Holesize 2. = 1.000000 Tolerance = +0.000000/-0.000000 PLATED MM Quantity = 194
;T03 Holesize 3. = 2.000000 Tolerance = +0.000000/-0.000000 PLATED MM Quantity = 64
;T04 Holesize 4. = 2.700000 Tolerance = +0.000000/-0.000000 PLATED MM Quantity = 2
;T05 Holesize 5. = 2.700000 Tolerance = +0.000000/-0.000000 NON_PLATED MM Quantity = 2
%
G90
T01
X-705050Y-930910
X-717750Y-918210
Y-899160
X-730450Y-886460
X-743150Y-873760
X-755850Y-861060
X-768550Y-848360
X-781250Y-835660
X-418200Y-453860
X-419300Y-1432560
X-417770Y-1766040
R02Y-100000
X-542400Y-1399820
X-642400
X-656220Y-1450540
X-556240Y-1452640
X-427470Y-1319910
X-472920Y-844610
R02Y100000
X-652620Y-638510
X-726190Y-570780
X-748160Y-441140
X-648160Y-441270
X-548170Y-442990
X-430000Y-376000
X-440170Y-311960
X-425650Y-181610
X-391200Y-118380
Y-18380
X-646800Y-1368780
X-547130Y-1360640
X-517370Y-1265170
R04Y100000
X-585540Y-938330
X-685410Y-943450
X-685710Y-811890
X-606940Y-750290
X-508660Y-768790
X-486330Y-866260
R04Y-100000
X-968100Y-1467470
R07Y-100000
X-920950Y-2200910
X-844550Y-2241550
R02X101600
X-491200Y-105800
X-636570Y-75710
R02X-100000
X-868100Y-220610
Y-320610
X-710680Y-1268780
X-617370Y-1119000
Y-1019000
X-800300Y-1000760
X-658970Y-1648160
X-844750Y-1635760
X-747190Y-1796390
X-650790Y-1769810
X-552650Y-1750060
X-499530Y-1846040
X-429900Y-2011940
X-485620Y-1728900
Y-1628900
X-832050Y-1858010
X-641550Y-1965960
X-571700Y-1953260
X-529570Y-1865490
X-867850Y-2036790
X-868510Y-2136790
X-417770Y-1266040
R03Y100000
X-393900Y15240
X-520900
X-628850
X-730450
X-844750
X-965400
X-968100Y-66200
R12Y-100000
X-877570Y-1282040
R08Y100000
X-780670Y-506730
X-786660Y-606550
X-805580Y-704750
X-800300Y-803910
Y-905510
Y-1102360
R02Y-101600
Y-1400810
X-724100Y-1000760
R02Y-101600
X-723030Y-1312410
Y-1412410
X-724200Y-1515860
X-723030Y-1612410
X-741570Y-1710680
X-717750Y-1959600
X-534200Y-1695860
X-517770Y-1592740
Y-692740
Y-592740
Y-392740
Y-292740
Y-192740
X-772080Y-353620
X-623030Y-1210730
Y-1310730
X-618200Y-1509860
X-715730Y-1825830
X-774900Y-1915160
X-617770Y-365190
Y-265190
X-662420Y-175710
X-762420
X-721870Y-267120
X-647900Y-581660
X-660600Y-708660
X-647900Y-1591310
X-666950Y-1718310
X-724100Y-1369060
X-800300
X-418200Y-897860
Y-785860
Y-543860
X-470100Y-1483360
X-609800Y-499110
X-724100Y-651510
X-730450Y-759460
X-793950Y-1635760
Y-1584960
X-774900Y-1743710
X-870150Y-2194560
X-800200Y-1515860
X-438200Y-1901860
X-452200Y-1931860
X-422200Y-1813860
X-520700Y-2241550
X-530500Y-2178010
X-597100Y-2162810
Y-2086610
X-546300Y-2048510
X-616150Y-2029460
X-647900Y-2143760
X-641550Y-2188210
X-743150Y-2194560
X-768550Y-2169160
X-679650Y-2175510
X-730450Y-2162810
X-813000Y-2188210
X-838400Y-2099310
X-825700Y-2067560
X-705050Y-2004060
X-654200Y-2079860
X-755850Y-2080260
X-698700Y-2061210
X-832050Y-2010410
X-774900Y-2035810
Y-1985010
X-813000Y-1959610
X-863800
X-552650Y-2175510
X-578050Y-2004060
X-495500
X-424200Y-841860
X-452200Y-485860
Y-511860
X-494200Y-1929860
X-442200Y-861860
X-718000Y-506000
X-516000Y-458000
X-524000Y-1468000
X-420000Y-1362000
X-755850Y-556260
X-768050Y-544060
X-780750Y-531360
X-793950Y-518160
Y-492760
X-806650Y-480060
X-819350Y-467360
X-832050Y-454660
X-590750Y-2061210
X-641550
T02
X-380900Y-245110
X-330100
X-304700
X-279300
Y-194310
R02X-25400
X-380900
Y-1419860
X-330100
R02X25400
Y-1369060
R02X-25400
X-380900
Y-1521460
X-330100
R02X25400
Y-1470660
R02X-25400
X-380900
Y-1623060
X-330100
R02X25400
Y-1572260
R02X-25400
X-380900
Y-1724660
X-330100
R02X25400
Y-1673860
R02X-25400
X-380900
Y-1826260
X-330100
R02X25400
Y-1775460
R02X-25400
X-380900
Y-1927860
X-330100
R02X25400
Y-1877060
R02X-25400
X-380900
Y-2029460
X-330100
R02X25400
Y-1978660
R02X-25400
X-380900
Y-346710
X-330100
R02X25400
Y-295910
R02X-25400
X-380900
Y-448310
X-330100
R02X25400
Y-397510
R02X-25400
X-380900
Y-549910
X-330100
R02X25400
Y-499110
R02X-25400
X-380900
Y-651510
X-330100
R02X25400
Y-600710
R02X-25400
X-380900
Y-753110
X-330100
R02X25400
Y-702310
R02X-25400
X-380900
Y-854710
X-330100
R02X25400
Y-803910
R02X-25400
X-380900
Y-956310
X-330100
R02X25400
Y-905510
R02X-25400
X-380900
Y-1318260
X-330100
R02X25400
Y-1267460
R02X-25400
X-380900
X-940000Y-2146300
R07Y25400
Y-1917700
R08Y25400
Y-1663700
R08Y25400
Y-1409700
Y-1384300
X-889200Y-2146300
R07Y25400
Y-1917700
R08Y25400
Y-1663700
R08Y25400
Y-1409700
Y-1384300
X-940000Y-2171700
X-889200
X-940000Y-1943100
X-889200
X-940000Y-1689100
X-889200
X-940000Y-1435100
X-889200
X-628650Y-1162050
X-603250
T03
X-82750Y-194310
R15Y-50800
X-133550Y-194310
R15Y-50800
X-82750Y-1267460
R15Y-50800
X-133550Y-1267460
R15Y-50800
T04
X-965400Y-2222500
Y-1333500
T05
X0Y0
X0Y-2222500
M30
